<svg id="Capa_1" data-name="Capa 1" xmlns="http://www.w3.org/2000/svg" viewBox="0 0 16.87 16.87"><defs><style>.cls-1{fill:#713708;}</style></defs><title>illustrator</title><path class="cls-1" d="M6.85,5.77h0c-.13.51-.25,1.16-.39,1.66L5.92,9.25h1.9L7.28,7.43C7.13,6.92,7,6.28,6.85,5.77Z"/><path class="cls-1" d="M15.84,0H1A1,1,0,0,0,0,1V15.84a1,1,0,0,0,1,1H15.84a1,1,0,0,0,1-1V1A1,1,0,0,0,15.84,0ZM8.76,12.9,8.1,10.7H5.64L5,12.9H3L5.64,4.32H8.18l2.66,8.58Zm5,0H11.86V6.68h1.94Zm-1-7a1,1,0,0,1-1-1,1,1,0,0,1,1-1,1,1,0,1,1,0,1.95Z"/></svg>