<svg id="Capa_1" data-name="Capa 1" xmlns="http://www.w3.org/2000/svg" viewBox="0 0 17.47 17.47"><defs><style>.cls-1{fill:#031826;}</style></defs><title>photoshop</title><path class="cls-1" d="M5.93,5a3.61,3.61,0,0,0-.9.09V7.91A3.38,3.38,0,0,0,5.75,8c1.16,0,1.87-.59,1.87-1.57S7,5,5.93,5Z" transform="translate(0 0)"/><path class="cls-1" d="M16.4,0H1.07A1.07,1.07,0,0,0,0,1.07V16.4a1.07,1.07,0,0,0,1.07,1.07H16.4a1.07,1.07,0,0,0,1.07-1.07V1.07A1.07,1.07,0,0,0,16.4,0ZM8.89,8.62a4.46,4.46,0,0,1-3.12,1,5.4,5.4,0,0,1-.74,0V13H2.87V3.54a18,18,0,0,1,2.94-.2,4.61,4.61,0,0,1,2.94.77,2.81,2.81,0,0,1,1,2.23A3.07,3.07,0,0,1,8.89,8.62Zm3.25,4.56a4.93,4.93,0,0,1-2.26-.48l.39-1.56a4.27,4.27,0,0,0,1.87.53c.65,0,.93-.23.93-.59s-.21-.53-1-.8c-1.44-.48-2-1.27-2-2.1,0-1.3,1.11-2.29,2.84-2.29a4.7,4.7,0,0,1,2,.4l-.39,1.5A3.42,3.42,0,0,0,13,7.4c-.53,0-.83.21-.83.57s.27.5,1.13.8c1.33.46,1.89,1.13,1.9,2.15C15.17,12.22,14.14,13.18,12.15,13.18Z" transform="translate(0 0)"/></svg>