<svg id="ps_cc_app_RGB.svg" xmlns="http://www.w3.org/2000/svg" viewBox="0 0 233.75 227.48"><defs><style>.cls-1{fill:#2e001f;}.cls-2{fill:#ffd9f2;}</style></defs><title>xd</title><path class="cls-1" d="M198.34,230.74H41.66A38.65,38.65,0,0,1,3.08,192.15V41.85A38.65,38.65,0,0,1,41.66,3.26H198.24a38.58,38.58,0,0,1,38.59,38.59V192A38.52,38.52,0,0,1,198.34,230.74Z" transform="translate(-3.08 -3.26)"/><path class="cls-2" d="M94.9,109.5l28,53.8c.5.8.2,1.6-.6,1.6H104.9a2,2,0,0,1-2.1-1.3c-6.4-13.2-12.9-26.4-19.6-40.6H83c-6,13.4-12.6,27.5-19,40.7a1.92,1.92,0,0,1-1.8,1.1H45.7c-1,0-1.1-.8-.6-1.4l27.4-52.2L46,58.4a.81.81,0,0,1,.6-1.4H63.8a1.57,1.57,0,0,1,1.8,1.1c6.3,13.2,12.7,26.8,18.7,40.1h.2c5.8-13.2,12.2-26.9,18.4-40,.5-.8.8-1.3,1.8-1.3h16.1c.8,0,1.1.6.6,1.4Zm32.9,16.3c0-23.3,15.5-41.5,40.1-41.5a44.35,44.35,0,0,1,5.2.2V58a1,1,0,0,1,1-1h15.8c.8,0,1,.3,1,.8v91.8a71.23,71.23,0,0,0,.5,9.8c0,.6-.2.8-.8,1.1a59.57,59.57,0,0,1-25.6,5.8C143.3,166.4,127.8,153,127.8,125.8Zm45.3-25.6a15.12,15.12,0,0,0-5.8-1c-12.6,0-21.4,9.7-21.4,25.8,0,18.4,9,25.8,20.3,25.8a18.87,18.87,0,0,0,6.9-1.1Z" transform="translate(-3.08 -3.26)"/></svg>