<svg version="1.1" id="Layer_1" xmlns="http://www.w3.org/2000/svg" x="0" y="0" viewBox="0 0 149 149" xml:space="preserve"><style>.st0{fill:#e64d4d}</style><g id="Artboard_1"><g id="startup" transform="translate(15.036 14.991)"><g id="Group_79" transform="translate(58.66 56.056)"><g id="Group_78"><path id="Path_359" class="st0" d="M4 .7C3.1-.2 1.6-.2.7.7c-.9.9-.9 2.4 0 3.3.9.9 2.4.9 3.3 0 .9-.9.9-2.4 0-3.3z"/></g></g><g id="Group_81" transform="translate(72.42 23.646)"><g id="Group_80"><path id="Path_360" class="st0" d="M19.9 3.4C15.3-1.1 8-1.1 3.4 3.4s-4.6 11.9 0 16.5 11.9 4.6 16.5 0c4.5-4.5 4.6-11.9 0-16.5zm-3.3 13.2c-2.7 2.7-7.2 2.7-9.9 0S4 9.4 6.7 6.7s7.2-2.7 9.9 0 2.7 7.2 0 9.9z"/></g></g><g id="Group_83" transform="translate(22.387)"><g id="Group_82"><path id="Path_361" class="st0" d="M96.3.7c-.4-.5-1.1-.7-1.7-.7-9.6.6-19 2.6-28 5.8-12 4.2-21.9 10.3-29.6 18-1.7 1.7-3.4 3.6-5 5.5-7.6-4.5-13.7-3.1-17.6-1C5.5 33 0 45.9 0 55.1c0 1.3 1 2.3 2.3 2.3.6 0 1.2-.2 1.6-.7 3.3-3.2 7.8-4.7 12.3-4.1l.8.8c-1.6 3.7-2.8 7.5-3.9 11.3-.3 1.3-.2 2.8.3 4.1-2.3 1.1-4.5 2.6-6.3 4.4-6 6-7.2 20.6-7.3 21.2-.1 1.3.9 2.4 2.1 2.5h.4c.6 0 15.2-1.3 21.2-7.3 1.8-1.8 3.3-4 4.4-6.3 1.3.5 2.7.6 4.1.3 3.9-1 7.6-2.3 11.3-3.8l.8.8c.6 4.5-.9 9.1-4.1 12.3-.9.9-.9 2.4 0 3.3.4.4 1 .7 1.6.7 9.2 0 22.1-5.5 26.9-14.4 2.1-3.9 3.5-10-1-17.6 1.9-1.6 3.7-3.3 5.5-5 7.7-7.7 13.7-17.7 18-29.6 3.2-9 5.2-18.4 5.8-28 .2-.5 0-1.2-.5-1.6zM5.2 50.1c1.4-7 5.7-14.7 11.4-17.8 3.8-2 8-1.8 12.4.6-3.8 5-7.1 10.3-9.8 16-.3-.4-.8-.6-1.2-.7-4.4-.8-8.9-.2-12.8 1.9zm15.3 36.3C17.3 89.6 9.7 91.3 5 92c.7-4.8 2.4-12.3 5.6-15.5 1.7-1.7 3.7-3.1 6-3.9l7.8 7.8c-.9 2.3-2.2 4.3-3.9 6zm10.6-7.2c-.7.1-1.5-.1-2-.7L24.5 74l-6-6c-.6-.5-.8-1.3-.7-2 .8-3 1.8-6 2.9-8.9L40 76.3c-2.9 1.1-5.9 2.1-8.9 2.9zm33.6 1.2c-3.1 5.7-10.7 9.9-17.8 11.4 2.1-3.9 2.7-8.4 1.9-12.8-.1-.5-.4-.9-.7-1.2 5.6-2.7 11-6 16-9.8 2.4 4.4 2.6 8.6.6 12.4zm5.2-23.7c-2.1 2.1-4.4 4.1-6.7 6-5.7 4.6-11.9 8.5-18.6 11.5L22.7 52.4c3.1-6.6 6.9-12.9 11.5-18.6 1.9-2.3 3.9-4.6 6-6.7 6.9-6.9 15.8-12.4 26.5-16.4l19.5 19.5c-3.9 10.7-9.4 19.6-16.3 26.5zM88 25.3L71.7 9c6.6-2 13.5-3.4 20.4-4.1-.7 6.9-2.1 13.8-4.1 20.4z"/></g></g><g id="Group_85" transform="translate(45.471 95.624)"><g id="Group_84"><path id="Path_362" class="st0" d="M10.6.7c-.9-.9-2.4-.9-3.3 0L.7 7.3c-.9.9-.9 2.4 0 3.3.9.9 2.4.9 3.3 0L10.6 4c.9-.9.9-2.4 0-3.3z"/></g></g><g id="Group_87" transform="translate(12.495 62.651)"><g id="Group_86"><path id="Path_363" class="st0" d="M10.6.7c-.9-.9-2.4-.9-3.3 0L.7 7.3c-.9.9-.9 2.4 0 3.3.9.9 2.4.9 3.3 0L10.6 4c.9-.9.9-2.4 0-3.3z"/></g></g><g id="Group_89" transform="translate(19.784 98.924)"><g id="Group_88"><path id="Path_364" class="st0" d="M19.8.7c-.9-.9-2.4-.9-3.3 0L.7 16.5c-.9.9-.9 2.4 0 3.3.9.9 2.4.9 3.3 0L19.8 4c.9-.9.9-2.4 0-3.3z"/></g></g><g id="Group_91" transform="translate(1.131 98.924)"><g id="Group_90"><path id="Path_365" class="st0" d="M19.8.7c-.9-.9-2.4-.9-3.3 0L.7 16.5c-.9.9-.9 2.4 0 3.3.9.9 2.4.9 3.3 0L19.8 4c.9-.9.9-2.4 0-3.3z"/></g></g><g id="Group_93" transform="translate(0 79.137)"><g id="Group_92"><path id="Path_366" class="st0" d="M19.8.7c-.9-.9-2.4-.9-3.3 0L.7 16.5c-.9.9-.9 2.4 0 3.3.9.9 2.4.9 3.3 0L19.8 4c.9-.9.9-2.4 0-3.3z"/></g></g><g id="Group_95" transform="translate(65.255 46.164)"><g id="Group_94"><path id="Path_367" class="st0" d="M7.3.7C6.4-.2 4.9-.2 4 .7L.7 4c-.9.9-.9 2.4 0 3.3.9.9 2.4.9 3.3 0L7.3 4c.9-.9.9-2.4 0-3.3z"/></g></g></g></g></svg>