<svg version="1.1" id="Layer_1" xmlns="http://www.w3.org/2000/svg" x="0" y="0" viewBox="0 0 149 149" xml:space="preserve"><style>.st0{fill:#e64d4d}</style><g id="Artboard_2"><g id="sketch" transform="translate(8.123 8.078)"><g id="Group_75" transform="translate(92.211 92.061)"><g id="Group_74"><path id="Path_357" class="st0" d="M23.7.2c-.7-.3-1.5-.1-2.1.4l-21 21c-.8.8-.8 2 0 2.7.4.4.8.6 1.4.6h21c1.1 0 1.9-.9 1.9-1.9V2c-.1-.9-.5-1.6-1.2-1.8zM6.6 21L21 6.6V21H6.6z"/></g></g><g id="Group_77"><g id="Group_76"><path id="Path_358" class="st0" d="M129.8 61.4c-.7-.3-1.5-.1-2.1.4l-5.8 5.8V28.4c0-1.1-.9-1.9-1.9-1.9h-14.8l5.4-5.4 5.2-5.2c2.3-2.3 2.3-6 0-8.3l-6-6c-2.3-2.3-6-2.3-8.3 0l-5.2 5.2-6.2 6.2-13.4 13.5H17v-19c0-1.1-.9-1.9-1.9-1.9C6.8 5.6 0 12.3 0 20.7v82c.6 7.6 6.9 13.5 14.5 13.5h58.7l-11.1 11.1c-.8.8-.8 2 0 2.7.4.4.8.6 1.4.6H129c1.1 0 1.9-.9 1.9-1.9V63.2c.1-.8-.4-1.5-1.1-1.8zm-25.6-57c.8-.8 2.1-.8 2.9 0l6 6c.8.8.8 2.1 0 2.9l-3.8 3.8-8.8-8.8 3.7-3.9zM97.7 11l8.8 8.8-3.5 3.5-8.8-8.8 3.5-3.5zm29.4 73.8h-3.5c-1.1 0-1.9.9-1.9 1.9 0 1.1.9 1.9 1.9 1.9h3.5v5.8h-3.5c-1.1 0-1.9.9-1.9 1.9 0 1.1.9 1.9 1.9 1.9h3.5v5.8h-3.5c-1.1 0-1.9.9-1.9 1.9 0 1.1.9 1.9 1.9 1.9h3.5v5.8h-3.5c-1.1 0-1.9.9-1.9 1.9 0 1.1.9 1.9 1.9 1.9h3.5v9.2H68.2l19.4-19.4c.8-.8.8-2 0-2.7-.8-.8-2-.8-2.7 0l-7.8 7.8H14.6c-5.8 0-10.6-4.6-10.7-10.4 0-.4 0-.7.1-1.1 0-.2 0-.3.1-.5v-.1c0-.2.1-.3.1-.4v-.1c0-.1.1-.3.1-.4 0-.1 0-.1.1-.2 0-.1.1-.2.1-.3s.1-.2.1-.3c0-.1 0-.1.1-.2 0-.1.1-.3.1-.4v-.1c.1-.2.1-.3.2-.5 1.5-3.2 4.4-5.4 7.9-6.2.2 0 .3-.1.5-.1h.1c.1 0 .3 0 .4-.1h1.2c1.1 0 1.9-.9 1.9-1.9V75.2c0-1.1-.9-1.9-1.9-1.9-1.1 0-1.9.9-1.9 1.9v12.1c-3.3.4-6.3 1.9-8.6 4.2-.3.2-.5.5-.7.8V20.7c0-5.5 4-10.2 9.4-11.1v57.9c0 1.1.9 1.9 1.9 1.9 1.1 0 1.9-.9 1.9-1.9V30.4h55.8L62.2 41c-.7.8-.7 2 0 2.7.7.7 1.9.7 2.7 0l13.9-13.9 12.6-12.6 8.8 8.8-1 1-38.7 38.8-8.9-8.8 7.6-7.6c.7-.8.7-2 0-2.7-.7-.7-1.9-.7-2.7 0l-9 9s-.1.1-.1.2v.1l-.1.1v.1c0 .1 0 .1-.1.1s0 0 0 .1v.1L43.4 67l-2.6 7.2c0 .1-.1.2-.1.3h-6.4c-1.1 0-1.9.9-1.9 1.9 0 1.1.9 1.9 1.9 1.9h53.2c1.1 0 1.9-.9 1.9-1.9 0-1.1-.9-1.9-1.9-1.9H49.4l11.7-4.1s.1 0 .1-.1h.1s.1 0 .1-.1l.1-.1c.1 0 .1-.1.2-.1l39.6-39.6H118v41.1L90.6 98.9c-.8.8-.8 2 0 2.7l.1.1c.8.6 1.9.6 2.6-.1l33.8-33.8v17zM57 67.7l-5.5 1.9-3.7-3.6 1.9-5.5 7.3 7.2z"/></g></g></g></g></svg>