<svg version="1.1" id="Layer_1" xmlns="http://www.w3.org/2000/svg" x="0" y="0" viewBox="0 0 149 149" xml:space="preserve"><style>.st0{fill:#e64d4d}</style><g id="Artboard_3"><g id="blueprint" transform="translate(7.383 16.396)"><path id="Path_339" class="st0" d="M128.5 33.5h-20.8l12.4-13.8c1.4-1.6 1.3-4-.3-5.5l-5.3-4.8c-1.6-1.4-4-1.3-5.5.3L87.6 33.5H50.4c-1.1 0-1.9.9-1.9 2s.9 2 1.9 2h33.7l-8.7 9.7c-.7.8-1 1.8-1 2.8v.4l-3 8.1c-.6 1.6.2 3.4 1.8 4 .8.3 1.7.2 2.5-.1l7.7-3.8h.3c1-.1 2-.5 2.7-1.3L104 37.7h24.3c.4 0 .6.3.6.6v75.1c0 .4-.3.6-.6.6h-14.2c-1.1 0-1.9.9-1.9 1.9s.9 1.9 1.9 1.9h14.2c2.5 0 4.5-2 4.5-4.5V38c.2-2.5-1.8-4.5-4.3-4.5zm-11.3-16.4l-2.3 2.6-5.3-4.8 2.3-2.6 5.3 4.8zm-10.3.7l1.2 1.1-28.6 31.8-1.2-1.1 28.6-31.8zM77.2 53.9l2.3 2-3.7 1.8 1.4-3.8zm6.4.5l-1.2-1.1L111 21.5l1.2 1.1-28.6 31.8z"/><path id="Path_340" class="st0" d="M105.8 113.7H18.2c-7.9 0-14.3-6.4-14.3-14.3v-1c0-7.9 6.4-14.3 14.3-14.3h4c2.5 0 4.5-2 4.5-4.5V37.4h15.2c1.1 0 2-.9 2-2s-.9-2-2-2H26.7v-6.8c0-1.1-.9-1.9-1.9-2-1.1 0-2 .9-2 2v52.9c0 .4-.3.6-.6.6h-4c-5.6 0-10.8 2.6-14.3 6.9V18c0-7.9 6.4-14.3 14.3-14.3h4c.4 0 .6.3.6.6V18c0 1.1.9 2 2 2s1.9-.9 1.9-2V4.5c0-2.5-2-4.5-4.5-4.5h-4C8.1 0 0 8.1 0 18.2v81.3c0 10 8.1 18.2 18.2 18.2h87.6c1.1 0 1.9-.9 1.9-1.9.1-1.2-.8-2.1-1.9-2.1z"/><path id="Path_341" class="st0" d="M104 54c-7.9 0-14.5 6.2-15 14.1h-9c-1.1 0-1.9.9-1.9 1.9v22.3c0 1.1.9 1.9 1.9 1.9h22.3c1.1 0 1.9-.9 1.9-1.9V84c8.3-.1 14.9-6.9 14.7-15.2-.1-8.2-6.7-14.8-14.9-14.8zm-3.7 25.5c-3.4-1.2-6.1-4-7.1-7.5h7.1v7.5zM82 90.4V72h7.3c1.2 5.7 5.5 10.1 11.1 11.5v6.8l-18.4.1zm22.2-10.3v-10c0-1.1-.9-1.9-1.9-1.9h-9.4c.5-6.1 5.8-10.6 11.9-10.1 6.1.5 10.6 5.8 10.1 11.9-.4 5.6-5 10-10.7 10.1z"/><path id="Path_342" class="st0" d="M111.2 85.4c-1.1 0-1.9.9-1.9 2s.9 1.9 1.9 1.9h4.3c1.1 0 2-.9 2-1.9 0-1.1-.9-2-2-2h-4.3z"/><path id="Path_343" class="st0" d="M117.5 92.3c0-1.1-.9-1.9-1.9-1.9h-4.3c-1.1 0-1.9.9-1.9 1.9 0 1.1.9 2 1.9 2h4.3c1 0 1.9-.9 1.9-2z"/><path id="Path_344" class="st0" d="M35.6 53.3h3.1c1.1 0 1.9-.9 1.9-1.9s-.9-1.9-1.9-1.9h-3.1c-1.1 0-1.9.9-1.9 1.9s.8 1.9 1.9 1.9z"/><path id="Path_345" class="st0" d="M35.6 58.9h15c1.1 0 1.9-.9 1.9-1.9s-.8-2-1.9-2h-15c-1.1 0-1.9.9-1.9 1.9s.8 2 1.9 2z"/><path id="Path_346" class="st0" d="M47.5 53.3h3.1c1.1 0 1.9-.9 1.9-1.9s-.9-1.9-1.9-1.9h-3.1c-1.1 0-1.9.9-1.9 1.9s.8 1.9 1.9 1.9z"/><path id="Path_347" class="st0" d="M62.6 49.4h-3.1c-1.1 0-1.9.9-1.9 1.9s.9 1.9 1.9 1.9h3.1c1.1 0 1.9-.9 1.9-1.9s-.9-1.9-1.9-1.9z"/><path id="Path_348" class="st0" d="M35.6 64.6h15c1.1 0 1.9-.9 1.9-1.9s-.9-1.9-1.9-1.9h-15c-1.1 0-1.9.9-1.9 1.9s.8 1.9 1.9 1.9z"/><path id="Path_349" class="st0" d="M33.6 68.3c0 1.1.9 1.9 1.9 1.9h23.8c1.1 0 1.9-.9 1.9-2s-.9-1.9-1.9-1.9H35.6c-1.1 0-2 .9-2 2z"/><path id="Path_350" class="st0" d="M64.5 73.9c0-1.1-.9-1.9-1.9-1.9h-27c-1.1 0-1.9.9-1.9 2s.9 1.9 1.9 1.9h27c1 0 1.9-.9 1.9-2z"/><path id="Path_351" class="st0" d="M42.9 83c0-1.1-.9-1.9-1.9-1.9h-5.4c-1.1 0-1.9.9-1.9 1.9v5.4c0 1.1.9 1.9 1.9 1.9H41c1.1 0 1.9-.9 1.9-1.9V83zM39 86.4h-1.5v-1.5H39v1.5z"/><path id="Path_352" class="st0" d="M55.8 83c0-1.1-.9-1.9-1.9-1.9h-5.4c-1.1 0-1.9.9-1.9 1.9v5.4c0 1.1.9 1.9 1.9 1.9h5.4c1.1 0 1.9-.9 1.9-1.9V83zm-3.9 3.4h-1.5v-1.5h1.5v1.5z"/><path id="Path_353" class="st0" d="M68.7 83c0-1.1-.9-1.9-1.9-1.9h-5.4c-1.1 0-1.9.9-1.9 1.9v5.4c0 1.1.9 1.9 1.9 1.9h5.4c1.1 0 1.9-.9 1.9-1.9V83zm-3.9 3.4h-1.5v-1.5h1.5v1.5z"/><path id="Path_354" class="st0" d="M41 94.7h-5.4c-1.1 0-1.9.9-1.9 1.9v5.4c0 1.1.9 1.9 1.9 1.9H41c1.1 0 1.9-.9 1.9-1.9v-5.4c0-1-.9-1.9-1.9-1.9zm-2 5.4h-1.5v-1.5H39v1.5z"/><path id="Path_355" class="st0" d="M53.8 94.7h-5.4c-1.1 0-1.9.9-1.9 1.9v5.4c0 1.1.9 1.9 1.9 1.9h5.4c1.1 0 1.9-.9 1.9-1.9v-5.4c.1-1-.8-1.9-1.9-1.9zm-1.9 5.4h-1.5v-1.5h1.5v1.5z"/><path id="Path_356" class="st0" d="M61.4 104h5.4c1.1 0 1.9-.9 1.9-1.9v-5.4c0-1.1-.9-1.9-1.9-1.9h-5.4c-1.1 0-1.9.9-1.9 1.9v5.4c-.1 1 .8 1.9 1.9 1.9zm1.9-5.4h1.5v1.5h-1.5v-1.5z"/></g></g></svg>