<svg id="Layer_1" data-name="Layer 1" xmlns="http://www.w3.org/2000/svg" viewBox="0 0 186.3 186.54"><defs><style>.cls-1{fill:#e64d4d}</style></defs><path class="cls-1" d="M61.78 186.52c-2.31-1-4.85-1.65-6.88-3-4.36-3-6.24-7.44-6.25-12.68v-23.12l-2.07 2.65c2.35 4.29 2.06 6.17-1.78 10L21.48 183.6c-3.64 3.64-6.92 3.65-10.55 0-2.88-2.87-5.77-5.74-8.63-8.63-3.08-3.12-3.08-6.65 0-9.77q12-12.06 24.08-24.09c3.4-3.4 5.82-3.7 9.76-1.27l11.28-11.54c-1.76-4.21-4.08-8.46-5.36-13-3.38-12-1.51-23.43 5.34-33.93a6.86 6.86 0 001.23-4c-.07-6.68 0-13.36 0-20V56.1c.09-1.86 1.14-3 2.73-3a2.72 2.72 0 012.71 3v17.27c2.2-1.57 4.26-2.93 6.16-4.48.46-.38.54-1.4.54-2.13V21.95c0-2.82.94-3.72 3.73-3.72h23V12.1c-.58 0-1.16-.08-1.74-.08H64.63c-6.58 0-10.55 4-10.57 10.53v22a2.72 2.72 0 01-2.63 2.81h-.1a2.69 2.69 0 01-2.71-2.67v-.13c-.06-1.33 0-2.67 0-4v-18c0-9.54 6.47-15.95 16-16h22.95V4c0-3.07.85-4 3.87-4h52.09c2.6 0 3.51.9 3.59 3.47V6.6h23.45c7.58.06 13.27 4.51 15.12 11.76.27 1 .4 2.11.6 3.17v59c-.95 2.32-1.87 3-3.43 2.7s-2.17-1.37-2.19-3.86V22.56c0-6.61-4-10.49-10.59-10.52h-22.79v6.21h22.48c3.41 0 4.21.78 4.21 4.15v148.42c0 3.26-.8 4.06-4.11 4.06H65c-3.29 0-4.13-.81-4.13-4.06v-29.5c0-1.13-2-3.06-2.94-2.87s-3.77 3.86-3.77 5v27.32c0 6.31 4.06 10.32 10.4 10.34h14.55c1.54 0 3 .15 3.6 1.83s-.41 2.72-1.6 3.65zm4.66-17.28h102V23.84h-21.2v1.78c0 4.39-.54 4.9-4.94 4.9H91.07c-2.44-.06-3.41-1-3.45-3.46v-3.29H66.46v42c.69-.21 1.21-.35 1.71-.52 11.78-3.92 23.15-3.07 34.12 2.86a6 6 0 002.75.66q21.13.06 42.25 0a14.7 14.7 0 011.64.05 2.65 2.65 0 01.28 5.24 11 11 0 01-2.16.18h-35.63c2.59 3.84 5.08 7.62 7.68 11.31a2.5 2.5 0 001.82.71h29.14a12.9 12.9 0 012 .07 2.47 2.47 0 012.28 2.43 2.42 2.42 0 01-1.89 2.74 8.21 8.21 0 01-2.16.22h-26.77c-.57 0-1.14.05-1.87.09l.8 2.86h12.47a2.75 2.75 0 012.87 2.63v.07a2.79 2.79 0 01-2.85 2.72h-11.62v10.65h26.8a10.57 10.57 0 012 .13 2.66 2.66 0 01-.23 5.28 17.88 17.88 0 01-1.82 0h-25.88c-2.77 0-2.79 0-3.13 3h7.63c2.24 0 4.49 0 6.73.1a2.15 2.15 0 012.2 2.35 4.34 4.34 0 01-1.32 2.7c-.51.48-1.6.43-2.43.44-4.55 0-9.11.08-13.66 0a3.16 3.16 0 00-3.21 1.76 41.44 41.44 0 01-44.68 18.16c-2-.49-3.91-1.12-6-1.71zM118 104.39a36 36 0 10-36.07 35.93h.25A35.93 35.93 0 00118 104.39zM93.17 24.94h48.45V5.6H93.17zm-60.68 140c3.09-3.11 6.28-6.33 9.49-9.54.85-.85.44-1.47-.24-2.14q-3.18-3.13-6.32-6.3c-3.55-3.57-3.54-3.57-7.16 0l-.77.77-6.09 6.08zm-20.28-2c-1.94 2-4 4.06-6 6.11a1.31 1.31 0 000 2.16c3 3 6 6 9 8.95a1.85 1.85 0 001.8.08c2.22-2 4.32-4.17 6.31-6.14zm28.26-18.73l1.47 1.58 11.25-11.19-1.37-1.6zm-12.1 25.39L16.81 158c.07.65 0 1.27.2 1.52q4.82 4.93 9.76 9.76c.23.32.85.2 1.6.32z" transform="translate(.01 -.05)"/><path class="cls-1" d="M136.62 156.6h-16c-3 0-3.84-.86-3.85-3.75v-14c0-2.55.95-3.56 3.5-3.57h32.6c2.79 0 3.66 1 3.67 3.76v13.66c0 3.07-.84 3.92-3.86 3.92zM122.3 151H151v-10.13h-28.69zm-4.97-101.4H92.94a7.44 7.44 0 01-1.81-.11 2.68 2.68 0 010-5.23 8.3 8.3 0 012-.12h48.39a14.49 14.49 0 011.46 0 2.7 2.7 0 012.64 2.66 2.66 2.66 0 01-2.6 2.72c-1.09.09-2.18 0-3.28 0h-22.41zm.37 7.73h-9.27c-2.17 0-3.35-1-3.32-2.75s1.16-2.67 3.23-2.69q9.27-.07 18.54 0c2.09 0 3.38 1.16 3.35 2.79s-1.29 2.65-3.44 2.67h-9.09zm30.09 42.84c-1.21 0-2.42.05-3.63 0a2.78 2.78 0 01-2.89-2.67 2.74 2.74 0 012.73-2.74h.07c2.48-.08 5-.07 7.44 0a2.67 2.67 0 012.83 2.49v.19c0 1.6-1.1 2.66-2.94 2.76h-3.6zm.21 19.24c1.33 0 2.66-.08 4 0a2.38 2.38 0 012.35 2.41v.09a2.35 2.35 0 01-2 2.68H152c-2.77.13-5.55.12-8.32 0a2.39 2.39 0 01-2.38-2.68 2.46 2.46 0 012.34-2.58h.17c1.38-.07 2.78 0 4.16 0zM82 73.94a30.41 30.41 0 11-30.41 30.41v-.08A30.51 30.51 0 0182 73.94zm0 5.47a24.94 24.94 0 1025 24.88 25.07 25.07 0 00-25-24.88zm20.62-70.68a6.48 6.48 0 016.57 6.35 6.56 6.56 0 01-6.4 6.72 6.66 6.66 0 01-6.62-6.58 6.58 6.58 0 016.45-6.49zm.19 5.1c-.52.59-1.08 1-1 1.24a1.67 1.67 0 00.88 1.08c.18.08.92-.47.94-.77s-.44-.83-.83-1.55zM126 17.94h-8.18c-1.92 0-3.06-1-3.14-2.58s1.13-2.82 3.09-2.84q8.18-.09 16.36 0a2.69 2.69 0 013 2.71c0 1.56-1.16 2.69-3.17 2.72h-8z" transform="translate(.01 -.05)"/></svg>