<svg xmlns="http://www.w3.org/2000/svg" xmlns:xlink="http://www.w3.org/1999/xlink" width="478.405" height="251.031"><defs><linearGradient id="linear-gradient" x1=".5" y1="1" x2=".5" gradientUnits="objectBoundingBox"><stop offset="0" stop-color="gray" stop-opacity=".251"/><stop offset=".54" stop-color="gray" stop-opacity=".122"/><stop offset="1" stop-color="gray" stop-opacity=".102"/></linearGradient><linearGradient id="linear-gradient-2" x1=".5" y1="1" x2=".5" y2="-.001" xlink:href="#linear-gradient"/><style>.cls-1,.cls-4,.cls-5{opacity:.1}.cls-2{fill:#3f3d56}.cls-3,.cls-5{fill:#6c63ff}.cls-6{fill:none;stroke-miterlimit:10;stroke:#3f3d56;stroke-width:4px}.cls-8{fill:#be6f72}.cls-9{fill:#ff6f61}.cls-12{fill:#2f2e41}.cls-13{fill:#fbbebe}.cls-14{fill:#e8e8f0}</style></defs><g id="Group_59" data-name="Group 59" transform="translate(0 .359)"><g id="Group_51" data-name="Group 51" class="cls-1" transform="translate(185.578 17.101)"><ellipse id="Ellipse_50" data-name="Ellipse 50" class="cls-2" cx="4.967" cy="6.504" rx="4.967" ry="6.504" transform="translate(18.722 134.258)"/><path id="Path_199" data-name="Path 199" class="cls-2" d="M528.917 447.47a7.857 7.857 0 001.039-3.977c0-3.592-2.226-6.5-4.972-6.5S520 439.91 520 443.5a7.857 7.857 0 001.039 3.977 8.123 8.123 0 000 7.949 8.124 8.124 0 000 7.949 7.83 7.83 0 00-1.039 3.978c0 3.588 2.226 6.5 4.967 6.5s4.972-2.916 4.972-6.5a7.83 7.83 0 00-1.039-3.977 8.123 8.123 0 000-7.949 8.123 8.123 0 000-7.949z" transform="translate(-501.295 -334.535)"/><ellipse id="Ellipse_51" data-name="Ellipse 51" class="cls-2" cx="4.967" cy="6.504" rx="4.967" ry="6.504" transform="translate(18.722 94.515)"/><ellipse id="Ellipse_52" data-name="Ellipse 52" class="cls-2" cx="4.967" cy="6.504" rx="4.967" ry="6.504" transform="translate(18.722 86.566)"/><path id="Path_200" data-name="Path 200" class="cls-3" d="M482.243 240.94a23.165 23.165 0 01-1.851-2.724l13.051-2.143-14.116.1a23.842 23.842 0 01-.436-18.857l18.94 9.826-17.46-12.842a23.8 23.8 0 1139.285 26.627 23.805 23.805 0 012.715 4.339l-16.949 8.834 18.067-6.063a23.8 23.8 0 01-3.837 22.349 23.8 23.8 0 11-37.408 0 23.8 23.8 0 010-29.429z" transform="translate(-477.149 -202.271)"/><path id="Path_201" data-name="Path 201" class="cls-4" d="M524.746 324.117a23.689 23.689 0 01-5.094 14.714 23.8 23.8 0 11-37.408 0c-3.191-4.05 42.502-17.385 42.502-14.714z" transform="translate(-477.149 -270.734)"/></g><g id="Group_52" data-name="Group 52" class="cls-1" transform="translate(249.556 38.853)"><ellipse id="Ellipse_53" data-name="Ellipse 53" class="cls-2" cx="3.715" cy="4.858" rx="3.715" ry="4.858" transform="translate(13.99 100.245)"/><path id="Path_202" data-name="Path 202" class="cls-2" d="M662.412 435.151a5.862 5.862 0 00.773-2.968c0-2.684-1.663-4.863-3.71-4.863s-3.715 2.183-3.715 4.863a5.819 5.819 0 00.777 2.968 6.067 6.067 0 000 5.941 6.067 6.067 0 000 5.941 5.819 5.819 0 00-.777 2.967c0 2.684 1.663 4.863 3.715 4.863s3.71-2.182 3.71-4.863a5.862 5.862 0 00-.773-2.968 6.111 6.111 0 000-5.941 6.111 6.111 0 000-5.94z" transform="translate(-641.774 -350.838)"/><ellipse id="Ellipse_54" data-name="Ellipse 54" class="cls-2" cx="3.715" cy="4.858" rx="3.715" ry="4.858" transform="translate(13.99 70.546)"/><ellipse id="Ellipse_55" data-name="Ellipse 55" class="cls-2" cx="3.715" cy="4.858" rx="3.715" ry="4.858" transform="translate(13.99 64.605)"/><path id="Path_203" data-name="Path 203" class="cls-3" d="M627.526 280.915a17.02 17.02 0 01-1.384-2.034l9.756-1.6-10.55.079a17.826 17.826 0 01-.341-14.095l14.156 7.346-13.056-9.6a17.787 17.787 0 1129.372 19.9 17.985 17.985 0 012.03 3.243l-12.659 6.578 13.5-4.531a17.792 17.792 0 01-2.868 16.7 17.783 17.783 0 11-27.936 0 17.783 17.783 0 010-21.991z" transform="translate(-623.72 -252.103)"/><path id="Path_204" data-name="Path 204" class="cls-4" d="M659.3 342.962a17.708 17.708 0 01-3.806 11 17.783 17.783 0 11-27.936 0c-2.395-3.029 31.742-12.995 31.742-11z" transform="translate(-623.731 -303.155)"/></g><g id="Group_53" data-name="Group 53" class="cls-1" transform="translate(429.316 -.359)"><ellipse id="Ellipse_56" data-name="Ellipse 56" class="cls-2" cx="4.967" cy="6.504" rx="4.967" ry="6.504" transform="translate(19.057 134.258)"/><path id="Path_205" data-name="Path 205" class="cls-2" d="M1080.228 407.47a7.857 7.857 0 01-1.039-3.977c0-3.592 2.226-6.5 4.972-6.5s4.967 2.911 4.967 6.5a7.858 7.858 0 01-1.039 3.977 8.124 8.124 0 010 7.949 8.124 8.124 0 010 7.949 7.832 7.832 0 011.039 3.977c0 3.588-2.226 6.5-4.967 6.5s-4.972-2.916-4.972-6.5a7.83 7.83 0 011.039-3.976 8.122 8.122 0 010-7.949 8.122 8.122 0 010-7.95z" transform="translate(-1060.137 -294.535)"/><ellipse id="Ellipse_57" data-name="Ellipse 57" class="cls-2" cx="4.967" cy="6.504" rx="4.967" ry="6.504" transform="translate(19.057 94.515)"/><ellipse id="Ellipse_58" data-name="Ellipse 58" class="cls-2" cx="4.967" cy="6.504" rx="4.967" ry="6.504" transform="translate(19.057 86.566)"/><path id="Path_206" data-name="Path 206" class="cls-3" d="M1078.161 200.94a23.162 23.162 0 001.851-2.724l-13.051-2.143 14.116.1a23.841 23.841 0 00.437-18.857l-18.94 9.826 17.46-12.842a23.8 23.8 0 10-39.285 26.627 23.811 23.811 0 00-2.715 4.339l16.949 8.826-18.067-6.063a23.8 23.8 0 003.837 22.349 23.8 23.8 0 1037.408 0 23.8 23.8 0 000-29.429z" transform="translate(-1035.541 -162.271)"/><path id="Path_207" data-name="Path 207" class="cls-4" d="M1035.81 284.117a23.689 23.689 0 005.094 14.714 23.8 23.8 0 1037.408 0c3.188-4.05-42.502-17.385-42.502-14.714z" transform="translate(-1035.692 -230.734)"/></g><g id="Group_54" data-name="Group 54" class="cls-1" transform="translate(387.506 36.234)"><ellipse id="Ellipse_59" data-name="Ellipse 59" class="cls-2" cx="3.715" cy="4.858" rx="3.715" ry="4.858" transform="translate(14.166 100.245)"/><path id="Path_208" data-name="Path 208" class="cls-2" d="M973 429.151a5.863 5.863 0 01-.773-2.968c0-2.684 1.663-4.863 3.71-4.863s3.715 2.183 3.715 4.863a5.818 5.818 0 01-.777 2.968 6.067 6.067 0 010 5.941 6.067 6.067 0 010 5.941 5.817 5.817 0 01.777 2.968c0 2.684-1.663 4.863-3.715 4.863s-3.71-2.182-3.71-4.863a5.863 5.863 0 01.773-2.968 6.111 6.111 0 010-5.941 6.111 6.111 0 010-5.941z" transform="translate(-958.055 -344.838)"/><ellipse id="Ellipse_60" data-name="Ellipse 60" class="cls-2" cx="3.715" cy="4.858" rx="3.715" ry="4.858" transform="translate(14.166 70.546)"/><ellipse id="Ellipse_61" data-name="Ellipse 61" class="cls-2" cx="3.715" cy="4.858" rx="3.715" ry="4.858" transform="translate(14.166 64.605)"/><path id="Path_209" data-name="Path 209" class="cls-3" d="M971.535 274.915a17 17 0 001.384-2.034l-9.756-1.6 10.55.079a17.827 17.827 0 00.341-14.095l-14.154 7.344 13.056-9.6a17.787 17.787 0 10-29.372 19.9 17.986 17.986 0 00-2.03 3.243l12.658 6.578-13.475-4.527a17.792 17.792 0 002.868 16.7 17.783 17.783 0 1027.936 0 17.783 17.783 0 000-21.991z" transform="translate(-939.756 -246.103)"/><path id="Path_210" data-name="Path 210" class="cls-4" d="M939.788 336.962a17.709 17.709 0 003.806 11 17.783 17.783 0 1027.936 0c2.393-3.029-31.742-12.995-31.742-11z" transform="translate(-939.769 -297.155)"/></g><g id="Group_55" data-name="Group 55" class="cls-1" transform="translate(3.19 -.286)"><ellipse id="Ellipse_62" data-name="Ellipse 62" class="cls-2" cx="4.967" cy="6.504" rx="4.967" ry="6.504" transform="translate(18.726 134.185)"/><path id="Path_211" data-name="Path 211" class="cls-2" d="M111.105 407.47a7.857 7.857 0 001.039-3.977c0-3.592-2.226-6.5-4.967-6.5s-4.967 2.911-4.967 6.5a7.857 7.857 0 001.035 3.977 8.149 8.149 0 000 7.949 8.149 8.149 0 000 7.949 7.826 7.826 0 00-1.035 3.977c0 3.588 2.222 6.5 4.967 6.5s4.98-2.907 4.98-6.5a7.831 7.831 0 00-1.039-3.977 8.123 8.123 0 000-7.949 8.123 8.123 0 000-7.949z" transform="translate(-83.483 -294.608)"/><ellipse id="Ellipse_63" data-name="Ellipse 63" class="cls-2" cx="4.967" cy="6.504" rx="4.967" ry="6.504" transform="translate(18.726 94.442)"/><ellipse id="Ellipse_64" data-name="Ellipse 64" class="cls-2" cx="4.967" cy="6.504" rx="4.967" ry="6.504" transform="translate(18.726 86.493)"/><path id="Path_212" data-name="Path 212" class="cls-3" d="M64.412 201.035a23.717 23.717 0 01-1.851-2.724l13.056-2.143-14.13.127a23.842 23.842 0 01-.437-18.857L80 187.263l-17.46-12.842a23.8 23.8 0 1139.285 26.627 23.807 23.807 0 012.715 4.339l-16.954 8.8 18.071-6.063a23.829 23.829 0 01-3.841 22.349 23.8 23.8 0 11-37.408 0 23.8 23.8 0 010-29.429z" transform="translate(-59.309 -162.439)"/><path id="Path_213" data-name="Path 213" class="cls-4" d="M106.906 284.117a23.689 23.689 0 01-5.094 14.715 23.8 23.8 0 11-37.408 0c-3.191-4.051 42.502-17.386 42.502-14.715z" transform="translate(-59.309 -230.807)"/></g><g id="Group_56" data-name="Group 56" class="cls-1" transform="translate(57.129 36.234)"><ellipse id="Ellipse_65" data-name="Ellipse 65" class="cls-2" cx="3.715" cy="4.858" rx="3.715" ry="4.858" transform="translate(13.99 100.245)"/><path id="Path_214" data-name="Path 214" class="cls-2" d="M221.582 429.151a5.862 5.862 0 00.773-2.968c0-2.684-1.659-4.863-3.71-4.863s-3.715 2.183-3.715 4.863a5.862 5.862 0 00.777 2.968 6.067 6.067 0 000 5.941 6.067 6.067 0 000 5.941 5.863 5.863 0 00-.777 2.967c0 2.684 1.663 4.863 3.715 4.863s3.71-2.182 3.71-4.863a5.862 5.862 0 00-.773-2.968 6.111 6.111 0 000-5.941 6.111 6.111 0 000-5.941z" transform="translate(-200.94 -344.838)"/><ellipse id="Ellipse_66" data-name="Ellipse 66" class="cls-2" cx="3.715" cy="4.858" rx="3.715" ry="4.858" transform="translate(13.99 70.546)"/><ellipse id="Ellipse_67" data-name="Ellipse 67" class="cls-2" cx="3.715" cy="4.858" rx="3.715" ry="4.858" transform="translate(13.99 64.605)"/><path id="Path_215" data-name="Path 215" class="cls-3" d="M186.686 274.915a17.547 17.547 0 01-1.384-2.034l9.756-1.6-10.55.079a17.827 17.827 0 01-.34-14.095l14.156 7.346-13.056-9.6a17.787 17.787 0 1129.372 19.9 17.514 17.514 0 012.03 3.243l-12.658 6.578 13.5-4.531a17.792 17.792 0 01-2.868 16.7 17.783 17.783 0 11-27.936 0 17.783 17.783 0 010-21.991z" transform="translate(-182.88 -246.103)"/><path id="Path_216" data-name="Path 216" class="cls-4" d="M218.457 336.962a17.709 17.709 0 01-3.806 11 17.783 17.783 0 11-27.936 0c-2.401-3.029 31.742-12.995 31.742-11z" transform="translate(-182.891 -297.155)"/></g><ellipse id="Ellipse_68" data-name="Ellipse 68" class="cls-5" cx="239.202" cy="3.867" rx="239.202" ry="3.867" transform="translate(0 211.182)"/><ellipse id="Ellipse_69" data-name="Ellipse 69" class="cls-5" cx="239.202" cy="3.867" rx="239.202" ry="3.867" transform="translate(0 242.937)"/><ellipse id="Ellipse_70" data-name="Ellipse 70" class="cls-5" cx="239.202" cy="3.867" rx="239.202" ry="3.867" transform="translate(0 144.908)"/><ellipse id="Ellipse_71" data-name="Ellipse 71" class="cls-5" cx="239.202" cy="3.867" rx="239.202" ry="3.867" transform="translate(0 178.043)"/><path id="Path_217" data-name="Path 217" class="cls-5" d="M829.893 259.273a7.988 7.988 0 00-4.627.506 6.831 6.831 0 01-5.561 0 7.8 7.8 0 00-6.548.127 4.033 4.033 0 01-1.881.471c-2.654 0-4.858-2.671-5.317-6.194a5.185 5.185 0 001.31-1.427 7.45 7.45 0 0113.3-.048 5.1 5.1 0 004.4 2.418h.07c2.139-.026 3.968 1.674 4.854 4.147z" transform="translate(-476.856 -211.299)"/><path id="Path_218" data-name="Path 218" class="cls-5" d="M837.962 235.484l-4.286 2.715 2.619-4.732a4.234 4.234 0 00-2.593-.921h-.07a4.956 4.956 0 01-.873-.065l-1.475.921.624-1.135a5.146 5.146 0 01-2.545-1.929l-2.619 1.65 1.641-2.988a7.606 7.606 0 00-5.823-2.942 7.988 7.988 0 00-6.67 4.112 4.981 4.981 0 01-4.4 2.375h-.144c-2.986 0-5.4 3.383-5.4 7.556s2.418 7.56 5.4 7.56a4.1 4.1 0 001.881-.471 7.8 7.8 0 016.547-.131 6.787 6.787 0 005.561 0 7.822 7.822 0 016.486.127 4.059 4.059 0 001.859.463c2.986 0 5.4-3.387 5.4-7.56a9.574 9.574 0 00-1.12-4.605z" transform="translate(-476.845 -198.575)"/><path id="Path_219" data-name="Path 219" class="cls-5" d="M421.644 257.982a5.6 5.6 0 00-3.243.354 4.766 4.766 0 01-3.889 0 5.448 5.448 0 00-4.579.092 2.89 2.89 0 01-1.31.327c-1.855 0-3.4-1.868-3.723-4.334a3.632 3.632 0 00.93-1 5.216 5.216 0 019.311-.035 3.575 3.575 0 003.086 1.694h.048c1.466-.009 2.745 1.178 3.369 2.902z" transform="translate(-250.859 -212.369)"/><path id="Path_220" data-name="Path 220" class="cls-5" d="M427.286 241.34l-3 1.9 1.82-3.313a2.946 2.946 0 00-1.811-.646h-.052a3.27 3.27 0 01-.62-.048l-1.017.646.436-.794a3.623 3.623 0 01-1.781-1.349l-1.82 1.152 1.152-2.086a5.33 5.33 0 00-4.077-2.065 5.583 5.583 0 00-4.666 2.881 3.492 3.492 0 01-3.086 1.663h-.1c-2.091 0-3.784 2.366-3.784 5.29s1.694 5.29 3.784 5.29a2.837 2.837 0 001.31-.332 5.456 5.456 0 014.575-.087 4.688 4.688 0 003.894.026 5.474 5.474 0 014.54.087 2.829 2.829 0 001.31.323c2.086 0 3.78-2.37 3.78-5.29a6.692 6.692 0 00-.787-3.248z" transform="translate(-250.848 -203.466)"/><path id="Path_221" data-name="Path 221" class="cls-5" d="M321.59 336.392a5.6 5.6 0 013.239.354 4.776 4.776 0 003.894 0 5.465 5.465 0 014.579.087 2.824 2.824 0 001.31.332c1.855 0 3.4-1.873 3.719-4.339a3.558 3.558 0 01-.925-1 5.221 5.221 0 00-9.315-.031 3.575 3.575 0 01-3.082 1.694h-.048a3.9 3.9 0 00-3.371 2.903z" transform="translate(-203.914 -256.553)"/><path id="Path_222" data-name="Path 222" class="cls-5" d="M307.631 319.786l3 1.9-1.825-3.309a2.964 2.964 0 011.816-.65h.048a3.72 3.72 0 00.624-.044l1.017.642-.436-.79a3.619 3.619 0 001.777-1.349l1.82 1.152-1.135-2.091a5.325 5.325 0 014.077-2.06 5.589 5.589 0 014.666 2.881 3.492 3.492 0 003.082 1.663h.1c2.086 0 3.78 2.37 3.78 5.29s-1.694 5.29-3.78 5.29a2.833 2.833 0 01-1.31-.327 5.447 5.447 0 00-4.579-.092 4.74 4.74 0 01-1.955.437 4.8 4.8 0 01-1.938-.41 5.465 5.465 0 00-4.535.087 2.829 2.829 0 01-1.31.323c-2.091 0-3.784-2.366-3.784-5.29a6.74 6.74 0 01.78-3.253z" transform="translate(-195.612 -247.673)"/><path id="Path_223" data-name="Path 223" class="cls-6" d="M709.987 592.889c1.139-2.113-.153-4.7-1.637-6.578s-3.3-3.841-3.261-6.238c.057-3.444 3.715-5.482 6.635-7.307a32.43 32.43 0 005.958-4.8 8.785 8.785 0 001.829-2.453 9.921 9.921 0 00.55-4.365q-.188-7.373-.729-14.736" transform="translate(-420.015 -379.092)"/><path id="Path_224" data-name="Path 224" class="cls-3" d="M736.584 539.233a5.373 5.373 0 00-2.685-4.4l-1.2 2.379.039-2.881a5.373 5.373 0 103.85 4.906z" transform="translate(-431.71 -372.16)"/><path id="Path_225" data-name="Path 225" class="cls-3" d="M715.384 619.119a5.373 5.373 0 01-10.144-2.182 5.239 5.239 0 01.349-2.182 5.378 5.378 0 0110.04.057l-3.357 2.732 3.693-.873a5.342 5.342 0 01-.581 2.448z" transform="translate(-420.096 -415.677)"/><path id="Path_226" data-name="Path 226" class="cls-3" d="M715.146 591.4a5.373 5.373 0 01-1.7-10.542l-.031 2.213 1.218-2.409a5.375 5.375 0 01.5 10.738z" transform="translate(-422.512 -398.39)"/><path id="Path_227" data-name="Path 227" class="cls-3" d="M745.005 571.516a5.373 5.373 0 112.375-10.04l-.947 2.619 1.934-1.912a5.373 5.373 0 01-3.379 9.328z" transform="translate(-439.324 -387.187)"/><path id="Path_228" data-name="Path 228" class="cls-4" d="M735.849 544.47c-1.24.135-2.444.52-3.693.6a4 4 0 01-3.4-1.187 17.211 17.211 0 01-1-1.746 3.824 3.824 0 00-1.353-1.275 5.373 5.373 0 1010.04 3.57 6.492 6.492 0 00-.594.038z" transform="translate(-431.699 -375.965)"/><path id="Path_229" data-name="Path 229" class="cls-4" d="M745.035 575.485a5.373 5.373 0 01-5.111-7.665A3.977 3.977 0 01741 568.9a18.226 18.226 0 001.065 1.777 4.383 4.383 0 003.566 1.244c1.3-.065 2.549-.437 3.841-.546.179 0 .358-.026.541-.031a5.373 5.373 0 01-4.978 4.141z" transform="translate(-439.354 -391.156)"/><path id="Path_230" data-name="Path 230" class="cls-4" d="M715.149 595.5a5.373 5.373 0 01-5.155-7.565 4.365 4.365 0 011.139 1.091 17.977 17.977 0 001.165 1.812 4.866 4.866 0 003.8 1.309c1.371-.057 2.619-.354 3.929-.436a5.382 5.382 0 01-4.878 3.789z" transform="translate(-422.514 -402.494)"/><path id="Path_231" data-name="Path 231" class="cls-4" d="M715.384 623.535a5.373 5.373 0 01-10.144-2.182 5.239 5.239 0 01.349-2.182 5.364 5.364 0 011.179 1.052c.511.62.847 1.31 1.44 1.907a6.715 6.715 0 004.448 1.563 22.563 22.563 0 002.728-.158z" transform="translate(-420.096 -420.092)"/><path id="Path_232" data-name="Path 232" class="cls-6" d="M99.987 520.889c1.139-2.113-.153-4.7-1.637-6.578s-3.3-3.85-3.261-6.238c.057-3.444 3.715-5.482 6.635-7.307a32.432 32.432 0 005.958-4.8 8.787 8.787 0 001.829-2.453 9.921 9.921 0 00.55-4.365q-.192-7.372-.729-14.736" transform="translate(-76.28 -338.52)"/><path id="Path_233" data-name="Path 233" class="cls-3" d="M126.584 467.233a5.373 5.373 0 00-2.684-4.4l-1.2 2.379.039-2.881a5.373 5.373 0 103.85 4.906z" transform="translate(-87.976 -331.588)"/><path id="Path_234" data-name="Path 234" class="cls-3" d="M105.384 547.119a5.373 5.373 0 01-10.144-2.182 5.238 5.238 0 01.349-2.183 5.378 5.378 0 0110.04.057l-3.357 2.732 3.693-.873a5.343 5.343 0 01-.581 2.449z" transform="translate(-76.362 -375.105)"/><path id="Path_235" data-name="Path 235" class="cls-3" d="M105.146 519.4a5.373 5.373 0 01-1.7-10.541l-.031 2.213 1.218-2.409a5.375 5.375 0 11.5 10.738z" transform="translate(-78.777 -357.818)"/><path id="Path_236" data-name="Path 236" class="cls-3" d="M135 499.516a5.373 5.373 0 112.375-10.039l-.947 2.619 1.934-1.912a5.373 5.373 0 01-3.379 9.328z" transform="translate(-95.589 -346.615)"/><path id="Path_237" data-name="Path 237" class="cls-4" d="M125.849 472.47c-1.24.135-2.444.519-3.693.6a4 4 0 01-3.4-1.187 17.225 17.225 0 01-1-1.746 3.823 3.823 0 00-1.353-1.275 5.373 5.373 0 1010.04 3.571 6.146 6.146 0 00-.594.037z" transform="translate(-87.965 -335.393)"/><path id="Path_238" data-name="Path 238" class="cls-4" d="M135.035 503.485a5.373 5.373 0 01-5.111-7.665A3.977 3.977 0 01131 496.9a18.2 18.2 0 001.065 1.777 4.384 4.384 0 003.566 1.244c1.3-.065 2.549-.437 3.841-.546.179 0 .358-.026.541-.031a5.373 5.373 0 01-4.978 4.141z" transform="translate(-95.619 -350.585)"/><path id="Path_239" data-name="Path 239" class="cls-4" d="M105.149 523.5a5.373 5.373 0 01-5.155-7.565 4.366 4.366 0 011.139 1.091 17.986 17.986 0 001.165 1.811 4.866 4.866 0 003.8 1.31c1.371-.057 2.619-.354 3.929-.436a5.382 5.382 0 01-4.878 3.789z" transform="translate(-78.78 -361.922)"/><path id="Path_240" data-name="Path 240" class="cls-4" d="M105.384 551.535a5.373 5.373 0 01-10.144-2.182 5.238 5.238 0 01.349-2.182 5.364 5.364 0 011.179 1.052c.511.62.847 1.31 1.44 1.908a6.715 6.715 0 004.448 1.563 22.552 22.552 0 002.728-.159z" transform="translate(-76.362 -379.52)"/><path id="Path_241" data-name="Path 241" class="cls-6" d="M499.5 438.53c-1.139-2.108.153-4.692 1.641-6.574s3.3-3.841 3.256-6.238c-.052-3.448-3.71-5.482-6.635-7.307a32.3 32.3 0 01-5.954-4.8 8.634 8.634 0 01-1.833-2.449 10.06 10.06 0 01-.55-4.365q.2-7.373.729-14.736" transform="translate(-298.479 -292.116)"/><path id="Path_242" data-name="Path 242" class="cls-3" d="M478.383 384.874a5.369 5.369 0 012.68-4.4l1.2 2.379-.035-2.881a5.51 5.51 0 011.768-.214 5.373 5.373 0 11-5.618 5.12z" transform="translate(-292.263 -285.179)"/><path id="Path_243" data-name="Path 243" class="cls-3" d="M499.574 464.7a5.373 5.373 0 10-.258-4.326l3.357 2.733-3.693-.873a5.343 5.343 0 00.594 2.466z" transform="translate(-303.873 -328.639)"/><path id="Path_244" data-name="Path 244" class="cls-3" d="M499.807 437.039a5.373 5.373 0 001.707-10.541l.026 2.213-1.218-2.409a5.373 5.373 0 00-5.631 5.1 5.309 5.309 0 00.231 1.833 5.369 5.369 0 004.884 3.8z" transform="translate(-301.453 -311.407)"/><path id="Path_245" data-name="Path 245" class="cls-3" d="M469.91 417.136a5.373 5.373 0 10-2.379-10.04l.952 2.619-1.956-1.873a5.33 5.33 0 00-1.746 3.71 5.2 5.2 0 00.135 1.48 5.369 5.369 0 004.994 4.104z" transform="translate(-284.598 -300.194)"/><path id="Path_246" data-name="Path 246" class="cls-4" d="M479.272 390.11c1.24.135 2.444.52 3.688.6a4.014 4.014 0 003.4-1.187 17.21 17.21 0 00.991-1.746 3.837 3.837 0 011.357-1.275 5.373 5.373 0 11-10.04 3.566c.198.003.399.02.604.042z" transform="translate(-292.428 -288.983)"/><path id="Path_247" data-name="Path 247" class="cls-4" d="M470.111 421.1a5.378 5.378 0 005.111-7.665 4 4 0 00-1.082 1.082 18.211 18.211 0 01-1.065 1.777 4.369 4.369 0 01-3.562 1.244c-1.3-.065-2.549-.436-3.841-.546-.179 0-.362-.026-.541-.031a5.369 5.369 0 004.98 4.139z" transform="translate(-284.799 -304.163)"/><path id="Path_248" data-name="Path 248" class="cls-4" d="M500.12 441.145a5.369 5.369 0 005.155-7.565 4.29 4.29 0 00-1.135 1.091 18.009 18.009 0 01-1.165 1.811 4.876 4.876 0 01-3.806 1.31c-1.375-.057-2.619-.354-3.928-.437a5.369 5.369 0 004.88 3.789z" transform="translate(-301.766 -315.512)"/><path id="Path_249" data-name="Path 249" class="cls-4" d="M500.34 469.175a5.373 5.373 0 009.8-4.365 5.161 5.161 0 00-1.179 1.052c-.511.62-.873 1.31-1.44 1.908a6.727 6.727 0 01-4.452 1.563 23.554 23.554 0 01-2.729-.158z" transform="translate(-304.639 -333.11)"/><circle id="Ellipse_72" data-name="Ellipse 72" class="cls-2" cx="43.633" cy="43.633" r="43.633" transform="translate(296.72 60.131)"/><path id="Path_250" data-name="Path 250" class="cls-3" d="M824.787 386.389a33.062 33.062 0 00-6.984-4.666c-2.091-1-2.859-.986-4.339.083-1.231.873-2.03 1.715-3.444 1.406s-4.217-2.423-6.927-5.125-4.815-5.487-5.116-6.923.528-2.217 1.41-3.448c1.065-1.48 1.1-2.248.083-4.339a33.472 33.472 0 00-4.671-6.984c-1.532-1.528-1.864-1.192-2.7-.873a15.627 15.627 0 00-2.475 1.31 7.468 7.468 0 00-2.968 3.138c-.6 1.275-1.275 3.64 2.2 9.834a54.864 54.864 0 009.647 12.864 54.944 54.944 0 0012.907 9.664c6.19 3.492 8.56 2.8 9.834 2.2a7.328 7.328 0 003.134-2.968 15.436 15.436 0 001.31-2.475c.291-.834.631-1.175-.901-2.698z" transform="translate(-465.704 -271.373)"/><path id="Path_251" data-name="Path 251" class="cls-4" d="M775.352 300.86a43.65 43.65 0 1043.628 43.64 43.65 43.65 0 00-43.628-43.64zm0 81.46a37.832 37.832 0 1137.832-37.831 37.831 37.831 0 01-37.832 37.831z" transform="translate(-434.999 -240.725)"/><circle id="Ellipse_73" data-name="Ellipse 73" class="cls-2" cx="43.633" cy="43.633" r="43.633" transform="translate(196.478 126.405)"/><path id="Path_252" data-name="Path 252" class="cls-3" d="M594.3 522.32l-13.064 13.291a.236.236 0 000 .34l9.164 9.749a1.577 1.577 0 11-2.231 2.231l-9.119-9.712a.249.249 0 00-.349 0l-2.222 2.244a9.765 9.765 0 01-6.979 2.937 9.979 9.979 0 01-7.106-3.021l-2.134-2.179a.249.249 0 00-.349 0l-9.1 9.69a1.577 1.577 0 11-2.231-2.231l9.132-9.725a.262.262 0 000-.341L544.65 522.3a.24.24 0 00-.41.17v26.6a3.894 3.894 0 003.88 3.88h42.72a3.894 3.894 0 003.88-3.881v-26.578a.24.24 0 00-.419-.17z" transform="translate(-329.377 -365.465)"/><path id="Path_253" data-name="Path 253" class="cls-3" d="M571.409 534.835a6.609 6.609 0 004.767-1.964L595.2 513.5a3.8 3.8 0 00-2.4-.873h-42.749a3.771 3.771 0 00-2.4.873l19.031 19.368a6.583 6.583 0 004.727 1.967z" transform="translate(-331.299 -360.057)"/><path id="Path_254" data-name="Path 254" class="cls-4" d="M544.442 452.69a43.65 43.65 0 1043.628 43.636 43.65 43.65 0 00-43.628-43.636zm0 81.46a37.831 37.831 0 1137.832-37.831 37.831 37.831 0 01-37.832 37.831z" transform="translate(-304.882 -326.281)"/><circle id="Ellipse_74" data-name="Ellipse 74" class="cls-2" cx="43.633" cy="43.633" r="43.633" transform="translate(92.927 93.82)"/><path id="Path_255" data-name="Path 255" class="cls-3" d="M342.395 430.16L325 470.292l1.624 1.624 15.775-6.958 15.775 6.958 1.624-1.624z" transform="translate(-205.835 -313.585)"/><path id="Path_256" data-name="Path 256" class="cls-4" d="M308.472 378a43.625 43.625 0 10.007 0zm0 81.46a31.142 31.142 0 110 .018z" transform="translate(-171.913 -284.193)"/><path id="Path_257" data-name="Path 257" d="M814.032 579.413q-.594-1.449-1.218-2.89a8.577 8.577 0 00-1.488-2.571 2.724 2.724 0 00-.873-.655 3.722 3.722 0 00-1.139-.227 9.093 9.093 0 00-1.79-.048 8.818 8.818 0 01-.751-.266 6.233 6.233 0 004.644-5.784v-.266a6.22 6.22 0 00-6.194-6.246 6.111 6.111 0 00-3.252.93 5.836 5.836 0 00-6.547 3.156 7.215 7.215 0 00-2.226 5.369v.275c.113 3.392 2.3 6.111 5.072 6.386a2.908 2.908 0 00-.8.537 4.969 4.969 0 00-1.078 3.291l-.065.873-1.467.524a.271.271 0 00-.065.476l1.4 1v.249a1.089 1.089 0 00.026.284 2 2 0 00-.541.773 3.569 3.569 0 00-.127 1.414l.052 1.218a9.565 9.565 0 00.371 2.711c.183.541.978 1.846 1.55 1.855a56.466 56.466 0 00-.668 7.464c-.066.066.118.127.437.179.314 2.41 1.34 9.167 3.16 12.139a25.61 25.61 0 01.685 2.951s.519 6.421 1.2 8.328a42.408 42.408 0 011.174 6.792.667.667 0 00-.484.5c-.345 1.039-2.58 2.619-2.58 2.619a10.811 10.811 0 00-1.929 1.235c-.7.633-.677 1.2 2.444.847 6.024-.694 7.054-2.619 7.054-2.619s-.1-.323-.24-.742a8.058 8.058 0 00-.79-1.864c-.087-.083-.175.057-.279.275a37.374 37.374 0 01-.41-8.429 13.675 13.675 0 00-.69-5.033 9.532 9.532 0 010-3.3c.345-1.388-1.375-8.158-1.375-8.158l-.987-4.985a1.431 1.431 0 01.275.581l.026.1.026.144a.271.271 0 00.07.135c.672 2.794 2.514 10.533 2.514 11.668 0 1.388 1.72 4.858 1.72 4.858s.685 5.727 1.89 7.979a11.568 11.568 0 01.895 5.338 4.945 4.945 0 01-.55 1.772 4.219 4.219 0 00-.65 1.131l-.039.083s-.515 1.043-.17 1.218a8.454 8.454 0 004.129.519s.69-.873.69-1.213a5.44 5.44 0 00-.079-.62 82.808 82.808 0 00-.367-2.126 5.958 5.958 0 00-.436-2.113l-.175-4.858a22.425 22.425 0 00-1.2-9.721s-.873-3.121-.685-3.99-.345-10.066-.345-10.066l-.052-.131a9.951 9.951 0 01.052-1.951 25.921 25.921 0 00-.69-6.591 5.713 5.713 0 01-.244-1.436c.039-.362.157-1.423.319-2.741a49.293 49.293 0 005.072-.436.633.633 0 00.436-.175.611.611 0 00.1-.354c.199-2.612-.757-5.153-1.748-7.571zm-3.461 5.5c.179-1.244.371-2.449.563-3.344l.026.079a24.251 24.251 0 01.829 2.75 9.352 9.352 0 01-1.418.519z" transform="translate(-469.664 -387.009)" fill="url(#linear-gradient)"/><path id="Path_258" data-name="Path 258" class="cls-8" d="M802.37 648.24s1.03 9.267 3.261 12.868a24.975 24.975 0 01.685 2.916s.515 6.347 1.2 8.232a45.421 45.421 0 011.2 7.036s2.4 2.741 3.261.515a36.158 36.158 0 01-.515-8.922 13.434 13.434 0 00-.685-4.976 9.306 9.306 0 010-3.256c.34-1.375-1.375-8.062-1.375-8.062l-1.371-6.692z" transform="translate(-474.833 -436.282)"/><path id="Path_259" data-name="Path 259" class="cls-9" d="M814.424 721.572s-1.03 1.886-7.032 2.571c-3.117.354-3.138-.209-2.436-.838a10.87 10.87 0 011.921-1.222s2.231-1.541 2.571-2.571 1.545-.17 1.545-.17c1.715 2.571 2.06-.69 2.4-.345a7.746 7.746 0 01.79 1.838c.145.414.241.737.241.737z" transform="translate(-476.08 -476.33)"/><path id="Path_260" data-name="Path 260" class="cls-4" d="M814.424 723.978s-1.03 1.886-7.032 2.571c-3.117.354-3.138-.21-2.436-.838.489.31 1.475.436 3.461-.362 2.859-1.17 4.932-1.846 5.766-2.108.145.414.241.737.241.737z" transform="translate(-476.08 -478.736)"/><path id="Path_261" data-name="Path 261" class="cls-4" d="M817.238 670.886a13.437 13.437 0 00-.685-4.976 9.3 9.3 0 010-3.256c.341-1.375-1.375-8.062-1.375-8.062l-1.371-6.692-1.187.07 1.358 6.622s1.715 6.687 1.375 8.062a9.308 9.308 0 000 3.256 13.044 13.044 0 01.685 4.976 36.155 36.155 0 00.515 8.922 1.5 1.5 0 01-.5.707 1.121 1.121 0 001.7-.707 36.155 36.155 0 01-.515-8.922z" transform="translate(-480.609 -436.281)"/><path id="Path_262" data-name="Path 262" class="cls-2" d="M805.136 562.42a6.112 6.112 0 00-3.239.921 5.827 5.827 0 00-6.548 3.121 7.106 7.106 0 00-2.222 5.308c0 3.649 2.458 6.6 5.487 6.6a5.541 5.541 0 004.972-3.8 6.022 6.022 0 001.545.2 6.176 6.176 0 100-12.353z" transform="translate(-469.624 -388.114)"/><path id="Path_263" data-name="Path 263" class="cls-8" d="M823.348 650.65l.515 1.371s.515 9.092.341 9.952a16.207 16.207 0 00.69 3.929 21.962 21.962 0 011.2 9.6l.17 4.8s.685 1.886.345 2.231-2.929-.306-2.929-.306.345-3.6-.873-5.832-1.886-7.892-1.886-7.892-1.715-3.431-1.715-4.8-2.746-12.523-2.746-12.523z" transform="translate(-482.773 -437.831)"/><path id="Path_264" data-name="Path 264" class="cls-2" d="M801.563 636.319s.175-6.176.873-8.062a12.805 12.805 0 00.764-2.737s10.384 1.877 11.244 1.192a14.892 14.892 0 00.345 2.571 24.667 24.667 0 01.685 6.521c-.188 2.06 0 2.056 0 2.056s-7.036 1.03-7.207 0-.685-1.026-.685-1.026-6.36-.192-6.019-.515z" transform="translate(-474.371 -423.67)"/><g id="Group_57" data-name="Group 57" class="cls-1" transform="translate(327.192 203.041)"><path id="Path_265" data-name="Path 265" d="M807.241 649.8s-4.339-.118-5.648-.354v.354c-.341.34 6.006.515 6.006.515a.436.436 0 01.236.1c-.235-.615-.594-.615-.594-.615z" transform="translate(-801.58 -640.196)"/><path id="Path_266" data-name="Path 266" d="M823.364 630.821a14.9 14.9 0 01-.345-2.571.737.737 0 01-.292.1 8.671 8.671 0 00.292 1.951 27.248 27.248 0 01.685 6.521c-.188 2.06 0 2.056 0 2.056s-5.565.816-6.914.271a2.084 2.084 0 00.052.245c.17 1.03 7.207 0 7.207 0s-.175 0 0-2.056a25.5 25.5 0 00-.685-6.517z" transform="translate(-810.151 -628.25)"/><path id="Path_267" data-name="Path 267" d="M807.241 649.8s-4.339-.118-5.648-.354v.354c-.341.34 6.006.515 6.006.515a.436.436 0 01.236.1c-.235-.615-.594-.615-.594-.615z" transform="translate(-801.58 -640.196)"/><path id="Path_268" data-name="Path 268" d="M823.364 630.821a14.9 14.9 0 01-.345-2.571.737.737 0 01-.292.1 8.671 8.671 0 00.292 1.951 27.248 27.248 0 01.685 6.521c-.188 2.06 0 2.056 0 2.056s-5.565.816-6.914.271a2.084 2.084 0 00.052.245c.17 1.03 7.207 0 7.207 0s-.175 0 0-2.056a25.5 25.5 0 00-.685-6.517z" transform="translate(-810.151 -628.25)"/></g><path id="Path_269" data-name="Path 269" class="cls-8" d="M814.133 584.9a2.275 2.275 0 00.655.847 1.469 1.469 0 00.615.266c-.384.222-.8.388-1.187.611a21.112 21.112 0 00-1.746 1.31 3.553 3.553 0 01-2 .777 2.453 2.453 0 00.279-2.44 2.278 2.278 0 01-.306-.847 1.521 1.521 0 01.842-1.135c.327-.223.664-.436 1-.65.266-.166.668-.515 1-.5s.375.31.437.615a4.844 4.844 0 00.411 1.146z" transform="translate(-479.381 -399.789)"/><path id="Path_270" data-name="Path 270" class="cls-4" d="M814.133 584.9a2.275 2.275 0 00.655.847 1.469 1.469 0 00.615.266c-.384.222-.8.388-1.187.611a21.112 21.112 0 00-1.746 1.31 3.553 3.553 0 01-2 .777 2.453 2.453 0 00.279-2.44 2.278 2.278 0 01-.306-.847 1.521 1.521 0 01.842-1.135c.327-.223.664-.436 1-.65.266-.166.668-.515 1-.5s.375.31.437.615a4.844 4.844 0 00.411 1.146z" transform="translate(-479.381 -399.789)"/><circle id="Ellipse_75" data-name="Ellipse 75" class="cls-8" cx="3.946" cy="3.946" r="3.946" transform="translate(334.827 187.345)"/><path id="Path_271" data-name="Path 271" class="cls-9" d="M834.528 724.372c0 .345-.685 1.2-.685 1.2a8.5 8.5 0 01-4.116-.515c-.345-.17.17-1.2.17-1.2l.039-.083a4.162 4.162 0 01.65-1.118 4.884 4.884 0 00.546-1.746c1.065-1.746 2.955.755 2.955.755s.24 1.31.367 2.1a5.982 5.982 0 01.074.607z" transform="translate(-490.181 -477.074)"/><path id="Path_272" data-name="Path 272" class="cls-4" d="M834.528 728.851c0 .345-.685 1.2-.685 1.2a8.494 8.494 0 01-4.116-.515c-.345-.17.17-1.2.17-1.2l.039-.083a8.293 8.293 0 003.737.768l.781-.781c.046.292.074.524.074.611z" transform="translate(-490.181 -481.553)"/><circle id="Ellipse_76" data-name="Ellipse 76" class="cls-8" cx="3.859" cy="3.859" r="3.859" transform="translate(327.022 179.195)"/><path id="Path_273" data-name="Path 273" class="cls-8" d="M801.286 598.808a4.845 4.845 0 00-1.074 3.252l-.131 1.707a8.615 8.615 0 00-.031 1.384c0 .284.07.572.1.873s.035.681.039 1.026v2.523a2.979 2.979 0 00.279 1.515 1.03 1.03 0 001.309.471 1.493 1.493 0 00.541-.838 13.032 13.032 0 00.873-3.2c.035-.38.039-.76.074-1.139s.1-.777.157-1.161c.244-1.606.354-3.23.463-4.85.031-.48.463-2.37-.166-2.58-.306-.1-.938.214-1.231.319a3.464 3.464 0 00-1.2.694z" transform="translate(-473.518 -408.036)"/><path id="Path_274" data-name="Path 274" class="cls-4" d="M801.286 598.808a4.845 4.845 0 00-1.074 3.252l-.131 1.707a8.615 8.615 0 00-.031 1.384c0 .284.07.572.1.873s.035.681.039 1.026v2.523a2.979 2.979 0 00.279 1.515 1.03 1.03 0 001.309.471 1.493 1.493 0 00.541-.838 13.032 13.032 0 00.873-3.2c.035-.38.039-.76.074-1.139s.1-.777.157-1.161c.244-1.606.354-3.23.463-4.85.031-.48.463-2.37-.166-2.58-.306-.1-.938.214-1.231.319a3.464 3.464 0 00-1.2.694z" transform="translate(-473.518 -408.036)"/><path id="Path_275" data-name="Path 275" class="cls-9" d="M811.786 588.16a21.16 21.16 0 01-4.631 2.746s-1.017 1.161-1.192 1.44-.524 3.361-.873 4.051a3.278 3.278 0 000 3.771 6.54 6.54 0 01.17 2.06c-.17.515-.794 2.4-.227 2.488s2.287 1.283 3.828.943 7.294 1.31 7.294 1.31.952-8.839 1.641-10.4l-1.545-.515s-4.286-2.571-1.715-6.517c-.005-.002-2.414-.517-2.75-1.377z" transform="translate(-476.016 -402.618)"/><path id="Path_276" data-name="Path 276" class="cls-2" d="M796.7 610.4l3.544 2.51a.262.262 0 00.31 0l.96-.72a.271.271 0 000-.41l-2.728-2.423a.262.262 0 00-.266-.052l-1.751.629a.266.266 0 00-.07.467z" transform="translate(-471.575 -414.521)"/><path id="Path_277" data-name="Path 277" class="cls-8" d="M799 620.43a9.5 9.5 0 01-.371-2.676l-.052-1.209a3.492 3.492 0 01.127-1.4 2.283 2.283 0 011.471-1.288 5.082 5.082 0 012-.144.515.515 0 01.258.07.481.481 0 01.14.236 1.58 1.58 0 01.078 1.261 1.307 1.307 0 01-.4.415c-.476.34-1.03.567-1.48.938a.536.536 0 00-.2.253.589.589 0 000 .275 4.407 4.407 0 00.227.7.694.694 0 00.2.3c.083.07.192.1.279.161.188.153.581.354.559.594a19.567 19.567 0 01-.794 2.715c-.401 1.693-1.794-.463-2.042-1.201z" transform="translate(-472.681 -416.996)"/><g id="Group_58" data-name="Group 58" class="cls-1" transform="translate(331.732 193.691)"><path id="Path_278" data-name="Path 278" d="M812.076 628.2h-.1a2.937 2.937 0 001.122 0h.109a3.928 3.928 0 00-1.131 0z" transform="translate(-811.98 -618.847)"/><path id="Path_279" data-name="Path 279" d="M830.655 606.83c-.616 1.384-1.523 8.878-1.685 10.367.6.157 1 .271 1 .271s.943-8.817 1.633-10.38z" transform="translate(-821.554 -606.83)"/></g><path id="Path_280" data-name="Path 280" class="cls-8" d="M819.115 595.535a1.309 1.309 0 00.563.851 7.563 7.563 0 011 1.013 7.168 7.168 0 01.991 1.986 24.32 24.32 0 01.825 2.715c-2.182 1.013-4.662.965-6.984 1.633a5.572 5.572 0 00-2.619 1.55 3.609 3.609 0 00-.965 2.842.3.3 0 00.358.292 2.619 2.619 0 001.6-.55 7.624 7.624 0 001.227-1.2 1.972 1.972 0 01.873-.646 14.282 14.282 0 013.928-.384 49.519 49.519 0 005.853-.463.471.471 0 00.524-.524c.192-2.575-.764-5.09-1.746-7.477q-.589-1.436-1.214-2.859a8.469 8.469 0 00-1.484-2.54 2.618 2.618 0 00-.873-.646 3.691 3.691 0 00-1.17-.218 8.3 8.3 0 00-1.916-.035 4.091 4.091 0 00-.183.991 8.585 8.585 0 001.056 3.348c.068.155.256.164.356.321z" transform="translate(-480.207 -404.122)"/><path id="Path_281" data-name="Path 281" d="M811.846 606.67a3.2 3.2 0 00-.436 1.667 2.248 2.248 0 00.109.681 2.209 2.209 0 001.392 1.309" transform="translate(-479.926 -413.048)" stroke="#000" fill="none" stroke-miterlimit="10" opacity=".1"/><path id="Path_282" data-name="Path 282" class="cls-2" d="M807.3 572.045a2 2 0 00-.633.1 4.185 4.185 0 00-3.492-1.475c-2.087 0-3.776 1.078-3.776 2.405s1.689 2.4 3.776 2.4a5.313 5.313 0 002.265-.48 2.056 2.056 0 101.851-2.951z" transform="translate(-473.16 -392.762)"/><path id="Path_283" data-name="Path 283" class="cls-4" d="M807.46 577.776a2.052 2.052 0 01-1.851-1.166 5.312 5.312 0 01-2.265.481c-2.082 0-3.771-1.074-3.771-2.4a1.459 1.459 0 010-.24 1.628 1.628 0 00-.192.755c0 1.309 1.689 2.4 3.776 2.4a5.313 5.313 0 002.265-.48 2.056 2.056 0 003.872-.511 2.047 2.047 0 01-1.834 1.161z" transform="translate(-473.148 -394.892)"/><path id="Path_284" data-name="Path 284" class="cls-4" d="M795.332 567.475a5.827 5.827 0 016.547-3.121 6.172 6.172 0 019.393 4.74v-.515a6.172 6.172 0 00-9.415-5.238 5.827 5.827 0 00-6.548 3.121 7.106 7.106 0 00-2.222 5.308v.515a6.984 6.984 0 012.245-4.81z" transform="translate(-469.602 -388.114)"/><path id="Path_285" data-name="Path 285" class="cls-6" d="M882.067 517c1.139-2.108-.153-4.7-1.641-6.578s-3.3-3.837-3.256-6.238c.052-3.444 3.71-5.478 6.635-7.307a32.257 32.257 0 005.954-4.8 8.694 8.694 0 001.833-2.449 10.059 10.059 0 00.55-4.365q-.192-7.377-.729-14.736" transform="translate(-516.982 -336.334)"/><path id="Path_286" data-name="Path 286" class="cls-3" d="M908.654 463.318a5.365 5.365 0 00-2.68-4.4l-1.2 2.379.035-2.881a5.272 5.272 0 00-1.768-.214 5.373 5.373 0 105.618 5.116z" transform="translate(-528.672 -329.383)"/><path id="Path_287" data-name="Path 287" class="cls-3" d="M887.464 543.151a5.373 5.373 0 11.258-4.33l-3.357 2.732 3.693-.873a5.344 5.344 0 01-.594 2.471z" transform="translate(-517.063 -372.843)"/><path id="Path_288" data-name="Path 288" class="cls-3" d="M887.219 515.486a5.373 5.373 0 01-1.707-10.542l-.026 2.213 1.218-2.405a5.375 5.375 0 11.5 10.738z" transform="translate(-519.472 -355.615)"/><path id="Path_289" data-name="Path 289" class="cls-3" d="M917.08 495.606a5.373 5.373 0 112.379-10.04l-.952 2.619 1.956-1.877a5.343 5.343 0 011.746 3.71 5.194 5.194 0 01-.135 1.48 5.373 5.373 0 01-4.994 4.108z" transform="translate(-536.29 -344.412)"/><path id="Path_290" data-name="Path 290" class="cls-4" d="M907.927 468.55c-1.24.14-2.449.524-3.693.6a4 4 0 01-3.4-1.192 16.672 16.672 0 01-.991-1.746 3.865 3.865 0 00-1.353-1.275 5.373 5.373 0 1010.04 3.566c-.202.012-.403.025-.603.047z" transform="translate(-528.664 -333.184)"/><path id="Path_291" data-name="Path 291" class="cls-4" d="M917.109 499.575A5.378 5.378 0 01912 491.91a3.977 3.977 0 011.083 1.078 17.217 17.217 0 001.065 1.777 4.372 4.372 0 003.562 1.248c1.3-.061 2.549-.437 3.841-.546.179 0 .362-.031.541-.035a5.373 5.373 0 01-4.983 4.143z" transform="translate(-536.319 -348.381)"/><path id="Path_292" data-name="Path 292" class="cls-4" d="M887.22 519.573a5.369 5.369 0 01-5.155-7.573 4.429 4.429 0 011.135 1.091c.437.589.677 1.27 1.165 1.811a4.974 4.974 0 003.806 1.336c1.375-.031 2.619-.358 3.929-.458a5.374 5.374 0 01-4.88 3.793z" transform="translate(-519.473 -359.702)"/><path id="Path_293" data-name="Path 293" class="cls-4" d="M887.5 547.625a5.378 5.378 0 01-9.8-4.365 5.27 5.27 0 011.179 1.052c.515.624.851 1.31 1.44 1.912a6.749 6.749 0 004.452 1.563 23.557 23.557 0 002.728-.162z" transform="translate(-517.102 -377.317)"/><path id="Path_294" data-name="Path 294" class="cls-6" d="M1041.067 669c1.139-2.108-.153-4.7-1.641-6.578s-3.3-3.837-3.256-6.237c.052-3.444 3.71-5.478 6.635-7.307a32.26 32.26 0 005.954-4.8 8.7 8.7 0 001.833-2.449 10.058 10.058 0 00.55-4.365q-.188-7.377-.729-14.736" transform="translate(-606.579 -421.986)"/><path id="Path_295" data-name="Path 295" class="cls-3" d="M1067.682 615.319a5.365 5.365 0 00-2.68-4.4l-1.2 2.379.035-2.881a5.277 5.277 0 00-1.746-.214 5.373 5.373 0 105.618 5.116z" transform="translate(-618.296 -415.036)"/><path id="Path_296" data-name="Path 296" class="cls-3" d="M1046.464 695.151a5.373 5.373 0 11.257-4.33l-3.357 2.732 3.693-.873a5.34 5.34 0 01-.593 2.471z" transform="translate(-606.659 -458.495)"/><path id="Path_297" data-name="Path 297" class="cls-3" d="M1046.219 667.486a5.373 5.373 0 01-1.707-10.542l-.026 2.213 1.218-2.405a5.375 5.375 0 11.5 10.738z" transform="translate(-609.068 -441.267)"/><path id="Path_298" data-name="Path 298" class="cls-3" d="M1076.08 647.606a5.373 5.373 0 112.379-10.039l-.952 2.619 1.955-1.877a5.342 5.342 0 011.746 3.71 5.184 5.184 0 01-.135 1.48 5.373 5.373 0 01-4.993 4.107z" transform="translate(-625.887 -430.064)"/><path id="Path_299" data-name="Path 299" class="cls-4" d="M1066.927 620.55c-1.24.14-2.449.524-3.693.6a4 4 0 01-3.4-1.192 16.7 16.7 0 01-.991-1.746 3.866 3.866 0 00-1.353-1.275 5.373 5.373 0 1010.039 3.566c-.201.012-.402.025-.602.047z" transform="translate(-618.261 -418.836)"/><path id="Path_300" data-name="Path 300" class="cls-4" d="M1076.109 651.575a5.378 5.378 0 01-5.109-7.665 3.978 3.978 0 011.082 1.078 17.218 17.218 0 001.065 1.777 4.372 4.372 0 003.562 1.248c1.3-.061 2.549-.437 3.841-.546.179 0 .362-.031.541-.035a5.373 5.373 0 01-4.982 4.143z" transform="translate(-625.915 -434.033)"/><path id="Path_301" data-name="Path 301" class="cls-4" d="M1046.22 671.573a5.369 5.369 0 01-5.155-7.573 4.434 4.434 0 011.135 1.091c.437.589.677 1.27 1.165 1.812a4.974 4.974 0 003.806 1.336c1.375-.031 2.619-.358 3.929-.458a5.374 5.374 0 01-4.88 3.792z" transform="translate(-609.069 -445.354)"/><path id="Path_302" data-name="Path 302" class="cls-4" d="M1046.5 699.625a5.378 5.378 0 01-9.8-4.365 5.256 5.256 0 011.178 1.052c.515.624.873 1.309 1.44 1.912a6.749 6.749 0 004.453 1.563 23.557 23.557 0 002.729-.162z" transform="translate(-606.699 -462.969)"/><path id="Path_303" data-name="Path 303" d="M454.449 572.087a4.282 4.282 0 00-1.707-3.457 236.329 236.329 0 00-7.534-8.656 4.263 4.263 0 00-.62-.144h-.738a4.915 4.915 0 00-4.749 4.2c-1.532-.354-2.933.1-3.191 1.074a1.31 1.31 0 00.044.777 3.378 3.378 0 002.252 1.825l.148.044.223.057h.048a3.859 3.859 0 00-.367 1.654 3.815 3.815 0 002.056 3.4l-.1.061a1.361 1.361 0 00-.332.463 6.923 6.923 0 00-.642 1.545c-.109.463-.127.943-.262 1.4-.253.842-.9 1.554-.973 2.431-.035.393.031.873-.249 1.126a1.351 1.351 0 01-.223.157 1.8 1.8 0 00-.485.511 1.692 1.692 0 01-.34.489c-.253.188-.668.17-.79.463s.2.637.122.956-.345.38-.541.559a1.944 1.944 0 00-.467.873 2.864 2.864 0 01-2.357-.6 4.407 4.407 0 01.244.873 3.825 3.825 0 00-1.27-.637 4.011 4.011 0 01-1.353-1l.725-.1-3.2-4.884-.947-.2.847 1.628a.519.519 0 00-.288.345 1.481 1.481 0 00-.031.554 9.929 9.929 0 00.218 1.31l.244 1.143c.022.1.048.214.079.319a3.009 3.009 0 00-.947.1 8.243 8.243 0 00-1.969-.467 1.092 1.092 0 00-.437 0 1.129 1.129 0 00-.415.336 13.422 13.422 0 00-1.462 2.06 71.92 71.92 0 01-6.17 8.325c-1.484.6-2.981 1.174-4.479 1.746l-3.221 1.231a4.883 4.883 0 01-2 .437c-.306 0-.685-.065-.873.2a1.839 1.839 0 00-.2.437l-.332.035a3.814 3.814 0 00-.773-1.423.489.489 0 00-.362.279c-.079.144-.127.3-.218.437-.17.253-.471.375-.685.589s-.349.546-.585.764a2.314 2.314 0 01-1.1.437 6.912 6.912 0 00-1.715.65 2.759 2.759 0 01-.633.292 2.378 2.378 0 01-.746.026l-1.7-.127a1.348 1.348 0 00-.458.022.873.873 0 00-.541.873 1.375 1.375 0 00.541.938 3.465 3.465 0 00.969.5 28.442 28.442 0 004.54 1.345v.345a7.748 7.748 0 003.492.829.54.54 0 00.262-.048.576.576 0 00.218-.341 14.042 14.042 0 00.681-3.344 1.746 1.746 0 00.615-.157c.585-.161 1.17.24 1.777.306a4.854 4.854 0 002.143-.62l.306-.1a3.348 3.348 0 01-.707.677c-.292.21-.62.367-.9.585a6.2 6.2 0 01-.768.594 4.808 4.808 0 01-.589.227 3.889 3.889 0 00-.842.436 1.707 1.707 0 00-.572.559.838.838 0 00-.048.786.829.829 0 00.563.393 2.316 2.316 0 00.694 0c.925-.07 1.846-.153 2.767-.236a7.379 7.379 0 001.157-.166c.2-.048.4-.114.6-.17a5.365 5.365 0 011.052-.157.874.874 0 01.306.031c.214.07.367.288.585.332a.872.872 0 00.437-.057 9.743 9.743 0 012.047-.218.845.845 0 00.794-.354c.14-.279-.113-.729-.227-1.1a3.367 3.367 0 01-.1-.724 4.536 4.536 0 00-.506-1.72 4.491 4.491 0 01-.38-.786 19.859 19.859 0 003.767-1.912 6.735 6.735 0 012.148-1.034 5.841 5.841 0 012.7.314 61.415 61.415 0 016.185 2.156c.965.4 1.925.816 2.92 1.117a4.553 4.553 0 001.039 1.008 4.8 4.8 0 002.248.615 29.448 29.448 0 003.165.118 5.339 5.339 0 002.357-.437 2.419 2.419 0 00.493-.327 1.955 1.955 0 001.554-.572 3.767 3.767 0 001.183-1.868c.258-1 .061-2.183.672-2.977.161-.218.375-.393.537-.611a1.72 1.72 0 00.279-1.008.2.2 0 01.026-.039 3.7 3.7 0 00.262-1 5.748 5.748 0 01.284-.794 24.538 24.538 0 00.812-2.353 13.746 13.746 0 00.375-1.615c.065-.436.1-.873.14-1.31a8.134 8.134 0 01.4-2.021 16.448 16.448 0 00.917-4.836V579a3.243 3.243 0 002.872-3.3 3.443 3.443 0 00-.3-1.41 4.366 4.366 0 00.585-2.203zm-15.618 18.975c.048.17.1.336.161.5-.258-.249-.506-.506-.764-.76.1.035.205.066.3.1a1.621 1.621 0 01.288.153zm-1.235-.838c-1.51-1.309-3.256-2.326-4.8-3.6.842.415 1.663.9 2.475 1.362q1.445.825 2.929 1.585a2.4 2.4 0 01-.615.65zm.642-3.3l.074-.074v.519l-.406-.14a3.612 3.612 0 00.319-.306zm-13.283 3.536a12.5 12.5 0 001.606-2.292 15.427 15.427 0 002.4 2.676 53.693 53.693 0 00-4.007-.385z" transform="translate(-245.801 -386.654)" fill="url(#linear-gradient-2)"/><path id="Path_304" data-name="Path 304" class="cls-12" d="M415.35 438.25l.952.192 3.243 4.8-1.427.192z" transform="translate(-234.05 -247.156)"/><path id="Path_305" data-name="Path 305" class="cls-13" d="M414.49 645.4a18.676 18.676 0 00.952 2.475 23.582 23.582 0 003.165-.9 9.959 9.959 0 00-.659-.873 3.256 3.256 0 00-.895-.685 2.462 2.462 0 00-1.087 0c-.489-.017-.983-.01-1.476-.017z" transform="translate(-256.263 -434.845)"/><path id="Path_306" data-name="Path 306" class="cls-12" d="M406.53 644.9a1.973 1.973 0 01-1.082-1.231 3.964 3.964 0 00-.825-1.471.471.471 0 00-.367.275c-.079.14-.127.3-.214.437-.175.249-.48.371-.7.581s-.349.537-.585.751a2.322 2.322 0 01-1.1.436 7.164 7.164 0 00-1.746.642 3.008 3.008 0 01-.642.288 2.538 2.538 0 01-.751 0l-1.72-.122a1.343 1.343 0 00-.437 0 .834.834 0 00-.546.873 1.309 1.309 0 00.546.925 3.624 3.624 0 00.978.5 28.764 28.764 0 004.609 1.31v.341a7.98 7.98 0 003.514.816.594.594 0 00.262-.044.576.576 0 00.218-.34 13.618 13.618 0 00.72-3.737 2.977 2.977 0 00-.074-.965c-.1-.31.227-.179-.07-.3" transform="translate(-245.736 -433.07)"/><path id="Path_307" data-name="Path 307" class="cls-12" d="M452.226 631.784c-5.1.306-10.136-1.187-15.243-1.344a7.443 7.443 0 00-1.894.118 9.542 9.542 0 00-1.877.729c-2.737 1.275-5.57 2.331-8.4 3.383l-3.252 1.209a4.924 4.924 0 01-2.012.437c-.31 0-.69-.066-.873.192a3.184 3.184 0 00.07 2.815c.114.284.306.594.611.624a1.776 1.776 0 00.62-.157c.589-.157 1.179.24 1.79.306a5.032 5.032 0 002.161-.611 18.751 18.751 0 013.7-.629 16.583 16.583 0 005.8-2.405 6.767 6.767 0 012.161-1.021 5.98 5.98 0 012.719.31 62.392 62.392 0 016.238 2.121 29.074 29.074 0 003.256 1.192 11.786 11.786 0 007.3-.437c.816-.323 1.7-.873 1.746-1.772.031-.5-.362-.943-.62-1.375a19.65 19.65 0 00-.515-.816c-.871-1.267-1.936-2.961-3.486-2.869z" transform="translate(-258.451 -426.433)"/><path id="Path_308" data-name="Path 308" class="cls-4" d="M452.226 631.784c-5.1.306-10.136-1.187-15.243-1.344a7.443 7.443 0 00-1.894.118 9.542 9.542 0 00-1.877.729c-2.737 1.275-5.57 2.331-8.4 3.383l-3.252 1.209a4.924 4.924 0 01-2.012.437c-.31 0-.69-.066-.873.192a3.184 3.184 0 00.07 2.815c.114.284.306.594.611.624a1.776 1.776 0 00.62-.157c.589-.157 1.179.24 1.79.306a5.032 5.032 0 002.161-.611 18.751 18.751 0 013.7-.629 16.583 16.583 0 005.8-2.405 6.767 6.767 0 012.161-1.021 5.98 5.98 0 012.719.31 62.392 62.392 0 016.238 2.121 29.074 29.074 0 003.256 1.192 11.786 11.786 0 007.3-.437c.816-.323 1.7-.873 1.746-1.772.031-.5-.362-.943-.62-1.375a19.65 19.65 0 00-.515-.816c-.871-1.267-1.936-2.961-3.486-2.869z" transform="translate(-258.451 -426.433)"/><path id="Path_309" data-name="Path 309" class="cls-13" d="M436.92 643.26q1.2.406 2.414.751c.436-.746 1.309-1.266 1.5-2.121a.2.2 0 000-.114.209.209 0 00-.092-.083 4.576 4.576 0 00-1.894-.554c-.524-.031-.764.515-1 .9-.094.169-.714 1.304-.928 1.221z" transform="translate(-268.902 -432.471)"/><path id="Path_310" data-name="Path 310" class="cls-12" d="M429.3 643.217a1.746 1.746 0 01-1.174-.773c-.109-.2-.231-.463-.458-.437s-.3.262-.349.467a13.1 13.1 0 01-.659 2.266 4.251 4.251 0 01-1.41 1.855c-.3.205-.624.358-.917.576a6.3 6.3 0 01-.773.585 4.591 4.591 0 01-.594.218 4.113 4.113 0 00-.847.436 1.681 1.681 0 00-.581.555.8.8 0 00-.044.773.825.825 0 00.563.384 2.375 2.375 0 00.7 0c.93-.065 1.86-.148 2.789-.231a8.047 8.047 0 001.165-.162l.607-.166a4.833 4.833 0 011.061-.157.826.826 0 01.31.031c.214.07.367.284.589.327a.986.986 0 00.436-.057 9.64 9.64 0 012.065-.214.871.871 0 00.8-.349c.175-.341-.114-.72-.231-1.087a3.49 3.49 0 01-.1-.711 4.338 4.338 0 00-.511-1.694c-.236-.437-.559-.917-.393-1.379a1.309 1.309 0 00.157-.476c-.051-.75-1.771-.484-2.201-.58z" transform="translate(-260.167 -432.96)"/><path id="Path_311" data-name="Path 311" class="cls-13" d="M472.875 609.013a3.981 3.981 0 01-2.034-2.013c-.083-.192-.153-.4-.236-.589a4.478 4.478 0 00-1.213-1.689.6.6 0 00-.436-.188.476.476 0 00-.327.354 1.349 1.349 0 00-.035.546 9.718 9.718 0 00.218 1.275l.249 1.126a2.468 2.468 0 00.153.5 1.746 1.746 0 00.415.493c.227.209.458.41.69.611a2.371 2.371 0 00.436.3 2.539 2.539 0 00.773.227 6.574 6.574 0 012.9 1.117v-.838a1.108 1.108 0 00-.218-.607 3.87 3.87 0 00-1.335-.625z" transform="translate(-286.742 -411.843)"/><path id="Path_312" data-name="Path 312" class="cls-4" d="M472.875 609.013a3.981 3.981 0 01-2.034-2.013c-.083-.192-.153-.4-.236-.589a4.478 4.478 0 00-1.213-1.689.6.6 0 00-.436-.188.476.476 0 00-.327.354 1.349 1.349 0 00-.035.546 9.718 9.718 0 00.218 1.275l.249 1.126a2.468 2.468 0 00.153.5 1.746 1.746 0 00.415.493c.227.209.458.41.69.611a2.371 2.371 0 00.436.3 2.539 2.539 0 00.773.227 6.574 6.574 0 012.9 1.117v-.838a1.108 1.108 0 00-.218-.607 3.87 3.87 0 00-1.335-.625z" transform="translate(-286.742 -411.843)"/><ellipse id="Ellipse_77" data-name="Ellipse 77" class="cls-12" cx="1.24" cy="1.248" rx="1.24" ry="1.248" transform="translate(195.273 186.057)"/><path id="Path_313" data-name="Path 313" class="cls-12" d="M489.367 590.432a1.34 1.34 0 00-.978.14 1.358 1.358 0 00-.336.458 6.658 6.658 0 00-.646 1.519c-.109.437-.127.93-.266 1.379-.253.829-.9 1.532-.978 2.4-.035.388.031.842-.253 1.1a1.61 1.61 0 01-.223.161 1.676 1.676 0 00-.489.5 1.646 1.646 0 01-.345.476c-.253.188-.672.17-.794.436s.2.629.122.943-.349.375-.546.55a1.906 1.906 0 00-.471.873 2.912 2.912 0 01-2.375-.589 7.56 7.56 0 01.371 2.715 1.109 1.109 0 01-.218.838 15.117 15.117 0 012.911.506 2.01 2.01 0 001.27 0 2.122 2.122 0 00.585-.463 3.728 3.728 0 001.2-1.851 10.888 10.888 0 00.022-1.253 7.064 7.064 0 01.319-1.523 18.123 18.123 0 00.554-3.134c.057-.655.624-1.179.921-1.746a8.549 8.549 0 001.174-3.492c.019-.397-.12-.899-.531-.943z" transform="translate(-293.623 -403.878)"/><path id="Path_314" data-name="Path 314" class="cls-4" d="M489.367 590.432a1.34 1.34 0 00-.978.14 1.358 1.358 0 00-.336.458 6.658 6.658 0 00-.646 1.519c-.109.437-.127.93-.266 1.379-.253.829-.9 1.532-.978 2.4-.035.388.031.842-.253 1.1a1.61 1.61 0 01-.223.161 1.676 1.676 0 00-.489.5 1.646 1.646 0 01-.345.476c-.253.188-.672.17-.794.436s.2.629.122.943-.349.375-.546.55a1.906 1.906 0 00-.471.873 2.912 2.912 0 01-2.375-.589 7.56 7.56 0 01.371 2.715 1.109 1.109 0 01-.218.838 15.117 15.117 0 012.911.506 2.01 2.01 0 001.27 0 2.122 2.122 0 00.585-.463 3.728 3.728 0 001.2-1.851 10.888 10.888 0 00.022-1.253 7.064 7.064 0 01.319-1.523 18.123 18.123 0 00.554-3.134c.057-.655.624-1.179.921-1.746a8.549 8.549 0 001.174-3.492c.019-.397-.12-.899-.531-.943z" transform="translate(-293.623 -403.878)"/><path id="Path_315" data-name="Path 315" class="cls-12" d="M464.914 622.444a11.508 11.508 0 01-2.7-2.252c-1.637-1.541-3.64-2.619-5.365-4.073a37.784 37.784 0 00-3.418-2.872 8.542 8.542 0 00-3.662-1.279.976.976 0 00-.437 0 1 1 0 00-.415.327 13.189 13.189 0 00-1.48 2.03c-2.183 3.71-5.286 6.827-7.857 10.275a.654.654 0 00-.127.244.607.607 0 00.1.38l.524 1.021c.292.576.764 1.244 1.392 1.131a1.524 1.524 0 00.729-.467l2.348-2.248 2.462-2.353a18.883 18.883 0 003.85-4.548c.733 1.275 2.038 2.108 2.929 3.274.341.437.62.93.925 1.4.484.751 1.039 1.458 1.589 2.182l2.824 3.6a5.406 5.406 0 001.31 1.31 5 5 0 002.265.607 29.918 29.918 0 003.191.114 5.5 5.5 0 002.379-.437 2.156 2.156 0 001.288-1.916 2.811 2.811 0 00-.406-1.192 9.727 9.727 0 00-4.238-4.258z" transform="translate(-270.331 -416.02)"/><ellipse id="Ellipse_78" data-name="Ellipse 78" class="cls-14" cx=".956" cy=".96" rx=".956" ry=".96" transform="translate(196.32 187.209)"/><path id="Path_316" data-name="Path 316" class="cls-13" d="M501.78 588.659a1.838 1.838 0 01.1 1.379 5.6 5.6 0 01-.615 1.27 6.05 6.05 0 01-.8 1.135 8.222 8.222 0 004.2-1.2 6.1 6.1 0 002.65-2.309 1.222 1.222 0 01-.978-.183 3.5 3.5 0 01-.746-.694l-.738-.829a3.325 3.325 0 01-.437-.6 1.65 1.65 0 01-.2-.965 5.617 5.617 0 01-.978.812c-.528.345-1.109.594-1.641.934-.183.122-.6.314-.493.559s.527.432.676.691z" transform="translate(-304.713 -401.209)"/><path id="Path_317" data-name="Path 317" class="cls-4" d="M501.78 588.659a1.838 1.838 0 01.1 1.379 5.6 5.6 0 01-.615 1.27 6.05 6.05 0 01-.8 1.135 8.222 8.222 0 004.2-1.2 6.1 6.1 0 002.65-2.309 1.222 1.222 0 01-.978-.183 3.5 3.5 0 01-.746-.694l-.738-.829a3.325 3.325 0 01-.437-.6 1.65 1.65 0 01-.2-.965 5.617 5.617 0 01-.978.812c-.528.345-1.109.594-1.641.934-.183.122-.6.314-.493.559s.527.432.676.691z" transform="translate(-304.713 -401.209)"/><path id="Path_318" data-name="Path 318" class="cls-14" d="M496.01 592.66a1.244 1.244 0 000 1.44c.044.052.2.38.266.384a.24.24 0 00.166-.087 10.959 10.959 0 00.934-1.113 2.078 2.078 0 011.187-.777 2.566 2.566 0 011.637.511 1.554 1.554 0 01.563.436 1.523 1.523 0 01.183.624 30.064 30.064 0 01.166 3.968 15.633 15.633 0 01-.188 2.859c-.1.485-.236.96-.3 1.454a9.28 9.28 0 00-.061 1.31v1.825a4.8 4.8 0 00.07 1c.087.4.275.768.4 1.157a7.562 7.562 0 01.266 1.366l.249 1.886a2.384 2.384 0 01-.223 1.746c-.161.214-.375.388-.541.6-.615.8-.437 1.951-.677 2.933a3.658 3.658 0 01-1.2 1.833 1.977 1.977 0 01-1.576.563 2.159 2.159 0 01-1.436-1.7 6.789 6.789 0 00-.738-2.213 5.872 5.872 0 00-1.458-1.218 2.518 2.518 0 01-1.139-1.48c-.048-.275 0-.559-.048-.838a1.977 1.977 0 00-1.218-1.6c-.393-.153-.873-.209-1.1-.567a2.649 2.649 0 001.148-1.541 7.912 7.912 0 00.279-1.947l.131-2.182a7.29 7.29 0 01.52-2.833c.192-.393.436-.764.633-1.152a12.513 12.513 0 00.677-1.689c.314-.9.629-1.8.908-2.706a5.1 5.1 0 01.5-1.261c.238-.41.579-.903 1.02-.991z" transform="translate(-298.925 -405.067)"/><path id="Path_319" data-name="Path 319" class="cls-12" d="M492.28 606.4h.581l.122-.873a1.817 1.817 0 01.122-.511 3.061 3.061 0 01.336-.489 6.381 6.381 0 00.668-2.859 14.548 14.548 0 011.275-3.737l1.126-2.51a3.459 3.459 0 00.244-.642 3.846 3.846 0 00.07-.742c0-.388.122-1.8.135-2.182 0-.144-.319-.065-.384-.192-.14-.279-.332.476-.6.642a1.466 1.466 0 00-.519.759c-.244.629-.393 1.31-.62 1.934a3.95 3.95 0 01-1.052 1.711c-.231.2-.5.362-.716.581a3.918 3.918 0 00-.79 2.772c-.016.599-.129 6.338.002 6.338z" transform="translate(-300.062 -404.556)"/><path id="Path_320" data-name="Path 320" class="cls-12" d="M504.665 590.394a1.982 1.982 0 00-1.035 1.419 7.175 7.175 0 01-.524 1.746c-.707 1.231-2.51 1.589-3.012 2.92a5.366 5.366 0 00-.2 1.375c-.087.956-.4 1.877-.5 2.829a12.6 12.6 0 00.052 2.222l.633 7.516a10.04 10.04 0 01-.188 3.309 3.186 3.186 0 001.894-.314c.589-.271 1.131-.642 1.7-.956a17.536 17.536 0 002.92-1.641 1.784 1.784 0 00.393-.437 3.771 3.771 0 00.262-.986 5.333 5.333 0 01.284-.777 22.887 22.887 0 00.821-2.322 13.337 13.337 0 00.375-1.589c.07-.436.109-.873.144-1.31a7.68 7.68 0 01.4-1.986 16 16 0 00.921-4.767 2.49 2.49 0 00-.048-.7 3.741 3.741 0 00-.384-.8c-.262-.493-.437-1.034-.664-1.536a7.556 7.556 0 00-2.58-2.711 1.964 1.964 0 00-1.664-.504z" transform="translate(-304.092 -403.843)"/><path id="Path_321" data-name="Path 321" class="cls-13" d="M472.467 615.3a4.553 4.553 0 01-1.2-.912c-.157-.183-.288-.388-.436-.572a2.973 2.973 0 00-1.51-.873 7.382 7.382 0 00-1.746-.17 3.169 3.169 0 00-1.165.14 1.187 1.187 0 00-.773.829 1.375 1.375 0 00.589 1.222 2.775 2.775 0 001.174.567 9.355 9.355 0 001.061.127c2.086.218 3.95 1.353 5.779 2.388q2.409 1.371 4.915 2.549a10.214 10.214 0 00.083-1.506c0-.375-.031-.952-.384-1.174a7.715 7.715 0 00-1.563-.467 24.587 24.587 0 01-3.147-1.275 15.654 15.654 0 01-1.677-.873z" transform="translate(-285.082 -416.482)"/><ellipse id="Ellipse_79" data-name="Ellipse 79" class="cls-13" cx="3.719" cy="3.741" rx="3.719" ry="3.741" transform="translate(192.794 179.54)"/><path id="Path_322" data-name="Path 322" class="cls-12" d="M502.092 599.568a5.958 5.958 0 00-.72 1.349c-.436.943-1.179 1.746-1.541 2.746s-.367 2.283-1.113 3.1a1.086 1.086 0 00-.327.471 2.252 2.252 0 01-.035.341c-.109.3-.594.31-.685.615-.026.087 0 .183-.044.271-.074.2-.336.227-.506.345-.362.244-.288.812-.546 1.165a.982.982 0 01-.93.327 3.274 3.274 0 01-.965-.362.929.929 0 00-.349-.109.72.72 0 00-.4.14 2.475 2.475 0 00-1 2.117 6.915 6.915 0 00.576 2.37.952.952 0 00.188.354.834.834 0 00.925.07 4.367 4.367 0 01.9-.406c.576-.1 1.139.292 1.724.258a2.4 2.4 0 001.161-.511 6.414 6.414 0 001.563-1.31c.253-.336.436-.716.664-1.074a13.778 13.778 0 01.938-1.253l2.148-2.619a6.031 6.031 0 00.576-.794 5.6 5.6 0 00.437-1.2 9.2 9.2 0 00.436-2.134 8.2 8.2 0 00-.157-1.79 6.322 6.322 0 00-.436-1.707c-.474-.988-1.604-1.791-2.482-.77z" transform="translate(-300.46 -408.779)"/><path id="Path_323" data-name="Path 323" d="M506.878 573.332a4.19 4.19 0 00-1.72-3.4 4.981 4.981 0 00-4.23-4.85 4.832 4.832 0 00-9.52.258c-1.545-.349-2.959.1-3.217 1.056s.834 2.182 2.462 2.619a4.587 4.587 0 001.58.157 4.837 4.837 0 003.326 2.073 4.963 4.963 0 003.632 3.745 4.17 4.17 0 001.122 1.55v.362a3.147 3.147 0 106.294 0 3.36 3.36 0 00-.3-1.392 4.207 4.207 0 00.571-2.178z" transform="translate(-297.772 -387.424)" fill="#f86d70"/><path id="Path_324" data-name="Path 324" class="cls-4" d="M489.233 566.59c.257-.952 1.672-1.406 3.217-1.056a4.915 4.915 0 014.8-4.138h.319a4.734 4.734 0 00-1.371-.205 4.915 4.915 0 00-4.8 4.138c-1.545-.349-2.96.1-3.217 1.056s.834 2.183 2.462 2.619a4.8 4.8 0 00.934.161c-1.558-.465-2.601-1.602-2.344-2.575z" transform="translate(-297.767 -387.421)"/><path id="Path_325" data-name="Path 325" class="cls-4" d="M506.734 587.582a3.28 3.28 0 010-.358 4.075 4.075 0 01-1.122-1.549 4.95 4.95 0 01-3.632-3.75 4.823 4.823 0 01-3.33-2.069 4.189 4.189 0 01-.93-.026 4.85 4.85 0 003.208 1.907 4.963 4.963 0 003.632 3.745 4.168 4.168 0 001.122 1.55v.362a3.2 3.2 0 003.13 3.256 3.256 3.256 0 01-2.078-3.068z" transform="translate(-303.163 -397.924)"/><ellipse id="Ellipse_80" data-name="Ellipse 80" class="cls-13" cx=".572" cy=".764" rx=".572" ry=".764" transform="rotate(-37.22 371.313 -200.389)"/></g></svg>