<svg id="Layer_1" data-name="Layer 1" xmlns="http://www.w3.org/2000/svg" viewBox="0 0 340.28 36.51"><path id="Path_2" data-name="Path 2" d="M8.52 36.51a8.2 8.2 0 01-6-2.5A8.2 8.2 0 010 28V8.58a8.2 8.2 0 012.5-6 8.23 8.23 0 016-2.49 8.15 8.15 0 016 2.5 8.26 8.26 0 012.47 6v4.06h-5.52V8.47a3.1 3.1 0 00-3.1-3.1 2.94 2.94 0 00-2.17.91 3 3 0 00-.89 2.19V28a3.06 3.06 0 003.07 3 3 3 0 002.19-.89 2.92 2.92 0 00.9-2.11v-7h-3v-5.4H17V28a8.15 8.15 0 01-2.5 6 8.22 8.22 0 01-5.98 2.51zm20.68-.06A8.44 8.44 0 0120.71 28V.45H26v27.48a2.94 2.94 0 00.91 2.17 3 3 0 002.19.89 3.06 3.06 0 003.07-3.07V.45h5.6V28a8.09 8.09 0 01-2.5 6 8.31 8.31 0 01-6.07 2.45zm20.69-36q4.49 0 6.59 2.47a9 9 0 011.85 6v5.17a8.32 8.32 0 01-2.87 6.39l4 15.54h-5.84l-3.25-13.38h-3.58v13.41h-5.37V.45zM53.1 9q0-3.1-3.07-3.1h-3.24v11.42H50a2.94 2.94 0 002.17-.91 3 3 0 00.9-2.19zm27.78 18.19A10 10 0 0179 33.55a7 7 0 01-3.7 2.53 10.07 10.07 0 01-3 .4 8.44 8.44 0 01-5.3-1.56 8.74 8.74 0 01-2.74-3.48 14 14 0 01-1.18-5l5.16-.44a7.77 7.77 0 001.65 4.51 2.75 2.75 0 002.22 1 3.33 3.33 0 002.81-1.74 4.31 4.31 0 00.54-2.36 6.55 6.55 0 00-2-4.41l-4.77-4.52a20.39 20.39 0 01-3.78-4.64 10.72 10.72 0 01-1.19-5Q63.69 4 67 1.51A8.12 8.12 0 0172 0a9.09 9.09 0 014.92 1.28 7.38 7.38 0 012.57 2.78 10.3 10.3 0 011.18 4.12l-5.14.94a6.2 6.2 0 00-1.25-3.41 2.62 2.62 0 00-2.13-.88 2.45 2.45 0 00-2.25 1.3 5 5 0 00-.62 2.62 7.84 7.84 0 002.1 5A17.76 17.76 0 0073.72 16q1.88 1.56 2.47 2.19a18.22 18.22 0 013.07 3.92 15 15 0 01.82 1.68 9.76 9.76 0 01.8 3.4zm9.06 8.86h-5.37V.45h5.37zm9.06 0h-5.36V.43h7.71l5 25.59 4.8-25.59h7.4v35.62h-5.37V13.66l-4.66 22.39h-4.32L99 13.72zM130.71.45q4.49 0 6.59 2.47a9 9 0 011.85 6v5.17a8.32 8.32 0 01-2.87 6.39l4 15.54h-5.8l-3.26-13.41h-3.58v13.44h-5.37V.45zM133.92 9q0-3.1-3.07-3.1h-3.23v11.42h3.24a2.94 2.94 0 002.17-.91 3 3 0 00.9-2.19zm16.93 18.84l-1.3 8.18H144l6-35.57h7.39l6 35.6h-5.65l-1.25-8.18zm2.82-19.26l-2 14h4zm19.4-8.15l7.13 23.94V.43h5.37v35.62h-5.77l-7.39-22.81v22.81H167V.43zm28 27.56a8.13 8.13 0 01-2.49 6 8.23 8.23 0 01-6 2.46 10.74 10.74 0 01-3.32-.43l.77-5a8.67 8.67 0 001.56.17 8.24 8.24 0 001.14 0 3.41 3.41 0 002.2-.94 2.82 2.82 0 00.9-2.13V.51h5.26zM213.27 0a8.2 8.2 0 016 2.5 8.23 8.23 0 012.49 6V28a8.51 8.51 0 11-17 0V8.52a8.2 8.2 0 012.5-6A8.2 8.2 0 01213.27 0zm2.93 8.41a3.06 3.06 0 00-3.07-3.07 3 3 0 00-2.19.9 2.94 2.94 0 00-.94 2.17V27.9a2.94 2.94 0 00.91 2.17 3 3 0 002.19.89 3.06 3.06 0 003.07-3.07zm15-2.56h-5.71V.45h16.76v5.4h-5.68v30.2h-5.37zm36.19 21.33a10 10 0 01-1.93 6.36 7 7 0 01-3.69 2.53 10.07 10.07 0 01-3 .4 8.44 8.44 0 01-5.23-1.56 8.74 8.74 0 01-2.74-3.48 14 14 0 01-1.18-5l5.11-.37a7.77 7.77 0 001.65 4.51 2.75 2.75 0 002.22 1 3.33 3.33 0 002.81-1.74 4.31 4.31 0 00.54-2.36 6.55 6.55 0 00-2-4.41l-4.77-4.52a20.39 20.39 0 01-3.78-4.64 10.72 10.72 0 01-1.19-5q0-4.86 3.27-7.36a8.12 8.12 0 015-1.51 9.09 9.09 0 014.92 1.28 7.38 7.38 0 012.6 2.76 10.3 10.3 0 011.18 4.12l-5.18.93a6.2 6.2 0 00-1.25-3.41 2.62 2.62 0 00-2.13-.88 2.45 2.45 0 00-2.24 1.31 5 5 0 00-.63 2.61 7.84 7.84 0 002.1 5 17.76 17.76 0 002.38 2.25q1.88 1.56 2.47 2.19a18.22 18.22 0 013.07 3.92 15 15 0 01.82 1.68 9.76 9.76 0 01.8 3.4zm9.07 8.86h-5.37V.45h5.37zM286.17.43l7.13 23.94V.43h5.37v35.62h-5.77l-7.39-22.81v22.81h-5.37V.43zm24.71 36.08a8.52 8.52 0 01-8.53-8.51V8.58a8.2 8.2 0 012.5-6 8.23 8.23 0 016-2.49 8.15 8.15 0 016 2.5 8.26 8.26 0 012.47 6v4.06h-5.52V8.47a3.1 3.1 0 00-3.1-3.1 2.94 2.94 0 00-2.17.91 3 3 0 00-.89 2.19V28a3.06 3.06 0 003.07 3 3 3 0 002.19-.89 2.92 2.92 0 00.9-2.11v-7h-3v-5.4h8.55V28a8.49 8.49 0 01-8.49 8.49zM328.44 21v15.05h-5.37V.45h5.37v15.12h6.48V.45h5.37v35.6h-5.37V21z" fill="#3a3a3a"/></svg>