<svg xmlns="http://www.w3.org/2000/svg" xmlns:xlink="http://www.w3.org/1999/xlink" width="432" height="330.612"><defs><linearGradient id="linear-gradient" x1=".141" y1="1.022" x2=".929" y2="-.011" gradientUnits="objectBoundingBox"><stop offset="0" stop-color="gray" stop-opacity=".251"/><stop offset=".54" stop-color="gray" stop-opacity=".122"/><stop offset="1" stop-color="gray" stop-opacity=".102"/></linearGradient><linearGradient id="linear-gradient-2" x1="5.25" y1="1" x2="5.25" y2=".001" xlink:href="#linear-gradient"/><linearGradient id="linear-gradient-3" x1="2.739" y1="1" x2="2.739" y2="0" xlink:href="#linear-gradient"/><style>.cls-2,.cls-5{fill:none;stroke-miterlimit:10}.cls-2{stroke:#535461;stroke-width:2px}.cls-14,.cls-3{fill:#6c63ff}.cls-4{opacity:.25}.cls-5{stroke:#333;stroke-width:3px}.cls-12{opacity:.5}.cls-12,.cls-9{fill:#fff}.cls-13,.cls-14{opacity:.6}.cls-17{fill:#fda57d}.cls-18{fill:#edeef9}.cls-20{fill:#333}.cls-21{opacity:.1}</style></defs><g id="Group_42" data-name="Group 42" transform="translate(.011)"><path id="Path_107" data-name="Path 107" d="M321.45 662.255c5.792.381 11.913 2.39 17.182-.042 1.36-.626 2.592-1.529 4-2.033 3.242-1.157 6.8-.033 10.068 1.049a446.327 446.327 0 0078.506 18.316c5.5.767 11.23 1.411 16.467-.376 3.83-1.3 7.147-3.82 10.939-5.232 6.2-2.3 13.051-1.444 19.652-1.082a125.886 125.886 0 0050.813-7.74l.852-.325a25.689 25.689 0 0124.508 3.293 60.11 60.11 0 008.742 5.331 21.29 21.29 0 019.687 28.055l-.113.245c-2.691 5.867-4.935 12.435-10.21 16.161-4.973 3.515-11.5 3.66-17.587 3.674l-37.371.089a48.993 48.993 0 01-11.565-.913 47.452 47.452 0 01-9.65-3.947l-16.721-8.295c-6.733-3.345-14.115-6.789-21.482-5.251-7.528 1.571-12.953 7.9-19.511 11.889a34.482 34.482 0 01-34.1.607c-4.978-2.795-9.3-6.869-14.731-8.624-8.967-2.9-18.495 1.115-27.721 3.039-17.954 3.745-39.1-1.379-52.859-13.766-17.716-15.956 3.089-35.377 22.205-34.122z" transform="translate(-221.191 -395.728)" fill="#f0e4e4"/><path id="Path_108" data-name="Path 108" class="cls-2" d="M203.622 554.724s-13.7-46.475 2.569-80.717a73.408 73.408 0 005.938-46.075 123.51 123.51 0 00-6.521-21.642" transform="translate(-171.258 -261.549)"/><path id="Path_109" data-name="Path 109" class="cls-3" d="M212.186 348.748c0 5.7-10.318 22.221-10.318 22.221s-10.318-16.524-10.318-22.221a10.318 10.318 0 0120.636 0z" transform="translate(-167.721 -225.616)"/><path id="Path_110" data-name="Path 110" class="cls-3" d="M248.319 409.524c-3.1 4.785-20.739 13.047-20.739 13.047s.32-19.478 3.416-24.263a10.319 10.319 0 1117.323 11.216z" transform="translate(-186.799 -254.827)"/><path id="Path_111" data-name="Path 111" class="cls-3" d="M242.545 520.108c-5.086 2.564-24.465.8-24.465.8s10.111-16.655 15.2-19.219a10.318 10.318 0 119.292 18.425z" transform="translate(-181.769 -311.474)"/><path id="Path_112" data-name="Path 112" class="cls-3" d="M222.345 607.622c-4.583 3.388-23.995 4.921-23.995 4.921s7.151-18.123 11.729-21.511a10.317 10.317 0 1112.271 16.59z" transform="translate(-171.322 -358.301)"/><path id="Path_113" data-name="Path 113" class="cls-3" d="M178.019 437.579c4.089 3.971 23.129 8.083 23.129 8.083s-4.663-18.914-8.751-22.885a10.318 10.318 0 10-14.378 14.8z" transform="translate(-158.899 -268.735)"/><path id="Path_114" data-name="Path 114" class="cls-3" d="M152.515 537.19c5.086 2.564 24.465.8 24.465.8s-10.111-16.655-15.2-19.219a10.318 10.318 0 00-9.269 18.424z" transform="translate(-144.202 -320.601)"/><path id="Path_115" data-name="Path 115" class="cls-3" d="M145.067 639.672c4.583 3.388 23.995 4.921 23.995 4.921s-7.151-18.123-11.729-21.511a10.317 10.317 0 10-12.271 16.59z" transform="translate(-140.89 -375.272)"/><path id="Path_116" data-name="Path 116" class="cls-4" d="M212.186 348.748c0 5.7-10.318 22.221-10.318 22.221s-10.318-16.524-10.318-22.221a10.318 10.318 0 0120.636 0z" transform="translate(-167.721 -225.616)"/><path id="Path_117" data-name="Path 117" class="cls-4" d="M248.319 409.524c-3.1 4.785-20.739 13.047-20.739 13.047s.32-19.478 3.416-24.263a10.319 10.319 0 1117.323 11.216z" transform="translate(-186.799 -254.827)"/><path id="Path_118" data-name="Path 118" class="cls-4" d="M242.545 520.108c-5.086 2.564-24.465.8-24.465.8s10.111-16.655 15.2-19.219a10.318 10.318 0 119.292 18.425z" transform="translate(-181.769 -311.474)"/><path id="Path_119" data-name="Path 119" class="cls-4" d="M222.345 607.622c-4.583 3.388-23.995 4.921-23.995 4.921s7.151-18.123 11.729-21.511a10.317 10.317 0 1112.271 16.59z" transform="translate(-171.322 -358.301)"/><path id="Path_120" data-name="Path 120" class="cls-4" d="M178.019 437.579c4.089 3.971 23.129 8.083 23.129 8.083s-4.663-18.914-8.751-22.885a10.318 10.318 0 10-14.378 14.8z" transform="translate(-158.899 -268.735)"/><path id="Path_121" data-name="Path 121" class="cls-4" d="M152.515 537.19c5.086 2.564 24.465.8 24.465.8s-10.111-16.655-15.2-19.219a10.318 10.318 0 00-9.269 18.424z" transform="translate(-144.202 -320.601)"/><path id="Path_122" data-name="Path 122" class="cls-4" d="M145.067 639.672c4.583 3.388 23.995 4.921 23.995 4.921s-7.151-18.123-11.729-21.511a10.317 10.317 0 10-12.271 16.59z" transform="translate(-140.89 -375.272)"/><path id="Path_123" data-name="Path 123" class="cls-3" d="M726.13 301.214c-1.741-13.644 3.712-27.688.471-41.045-2.494-10.318-9.88-18.932-12.308-29.269-3.566-15.319 4.592-31.052 15-42.814 7.161-8.107 16.147-15.465 26.86-16.938 6.615-.941 13.414.513 19.521 3.209a49.528 49.528 0 0126.63 29.25c1.411 4.187 2.225 8.568 3.962 12.628 2.988 7 8.469 12.642 11.88 19.445a36.9 36.9 0 011.252 29.815c-3.947 9.852-12.233 18.095-13.456 28.639-.889 7.6 1.962 15.921-1.741 22.616-2.795 5.053-8.549 7.6-14 9.513-12.675 4.423-30.394 11.574-43.1 4.766-11.101-5.952-19.361-17.22-20.971-29.815z" transform="translate(-444.069 -136.886)"/><path id="Path_124" data-name="Path 124" class="cls-5" d="M816 422.462s18.659-7.528 21.012-11.762 5.646-29.17 5.646-29.17" transform="translate(-498.375 -248.438)"/><path id="Line_2" data-name="Line 2" class="cls-5" transform="translate(317.447 126.985)" d="M0 162.318V0"/><g id="Group_36" data-name="Group 36" transform="translate(132.328)" opacity=".5"><path id="Path_125" data-name="Path 125" d="M585.01 98.65l-156.437.381a6.427 6.427 0 00-6.413 6.441l.71 292.573a6.427 6.427 0 006.446 6.413l156.437-.381a6.427 6.427 0 006.413-6.441l-.706-292.573a6.427 6.427 0 00-6.45-6.413z" transform="translate(-422.16 -98.65)" fill="url(#linear-gradient)"/></g><rect id="Rectangle_34" data-name="Rectangle 34" width="164.723" height="297.325" rx="13.64" transform="rotate(-.14 1861.072 -55088.082)" fill="#535461"/><path id="Path_126" data-name="Path 126" class="cls-9" d="M592.959 399.154a6.258 6.258 0 01-6.239 6.272l-143.969.348a6.257 6.257 0 01-6.272-6.239l-.1-42.226-.549-227.679a6.257 6.257 0 016.239-6.272l30.111-.071a13.357 13.357 0 0013.174 11.325l56.891-.136a13.362 13.362 0 0013.169-11.391L586 123.01a6.257 6.257 0 016.272 6.239l.588 228.06z" transform="translate(-297.07 -111.549)"/><path id="Path_127" data-name="Path 127" d="M593.578 662.845a6.257 6.257 0 01-6.239 6.272l-143.969.348a6.257 6.257 0 01-6.272-6.239L437 621h156.475z" transform="translate(-297.69 -375.241)" fill="#e6e6e6"/><rect id="Rectangle_35" data-name="Rectangle 35" class="cls-9" width="36.707" height="2.296" rx="1.148" transform="rotate(-.86 1130.474 -13126.067)"/><circle id="Ellipse_31" data-name="Ellipse 31" class="cls-9" cx="1.379" cy="1.379" r="1.379" transform="rotate(-.86 1077.88 -15998.82)"/><path id="Path_128" data-name="Path 128" class="cls-3" d="M841.13 301.214c-1.741-13.644 3.712-27.688.471-41.045-2.494-10.318-9.88-18.932-12.308-29.269-3.566-15.319 4.592-31.052 15-42.814 7.161-8.107 16.147-15.465 26.86-16.938 6.615-.941 13.414.513 19.521 3.209a49.529 49.529 0 0126.63 29.25c1.411 4.187 2.225 8.568 3.961 12.628 2.988 7 8.469 12.642 11.88 19.445a36.9 36.9 0 011.237 29.834c-3.947 9.852-12.233 18.095-13.456 28.639-.889 7.6 1.962 15.921-1.741 22.616-2.795 5.053-8.549 7.6-14 9.513-12.661 4.4-30.379 11.555-43.083 4.747-11.102-5.952-19.362-17.22-20.972-29.815z" transform="translate(-504.963 -136.886)"/><path id="Path_129" data-name="Path 129" d="M841.13 301.214c-1.741-13.644 3.712-27.688.471-41.045-2.494-10.318-9.88-18.932-12.308-29.269-3.566-15.319 4.592-31.052 15-42.814 7.161-8.107 16.147-15.465 26.86-16.938 6.615-.941 13.414.513 19.521 3.209a49.529 49.529 0 0126.63 29.25c1.411 4.187 2.225 8.568 3.961 12.628 2.988 7 8.469 12.642 11.88 19.445a36.9 36.9 0 011.237 29.834c-3.947 9.852-12.233 18.095-13.456 28.639-.889 7.6 1.962 15.921-1.741 22.616-2.795 5.053-8.549 7.6-14 9.513-12.661 4.4-30.379 11.555-43.083 4.747-11.102-5.952-19.362-17.22-20.972-29.815z" transform="translate(-504.963 -136.886)" opacity=".2"/><path id="Path_130" data-name="Path 130" class="cls-5" d="M931 422.462s18.66-7.528 21.012-11.762 5.646-29.17 5.646-29.17" transform="translate(-559.268 -248.438)"/><path id="Line_3" data-name="Line 3" class="cls-5" transform="translate(371.553 126.985)" d="M0 162.318V0"/><path id="Path_131" data-name="Path 131" class="cls-2" d="M279.688 688.991s-5.985-20.32 1.12-35.287a32.092 32.092 0 002.6-20.132 53.968 53.968 0 00-2.851-9.452" transform="translate(-213.143 -376.893)"/><path id="Path_132" data-name="Path 132" class="cls-3" d="M283.435 598.985c0 2.489-4.507 9.711-4.507 9.711s-4.507-7.222-4.507-9.711a4.51 4.51 0 119.019 0z" transform="translate(-211.602 -361.195)"/><path id="Path_133" data-name="Path 133" class="cls-3" d="M299.232 625.546c-1.355 2.089-9.062 5.7-9.062 5.7s.141-8.511 1.491-10.6a4.509 4.509 0 017.57 4.9z" transform="translate(-219.942 -373.961)"/><path id="Path_134" data-name="Path 134" class="cls-3" d="M296.684 673.875c-2.225 1.12-10.7.348-10.7.348s4.418-7.278 6.643-8.4a4.508 4.508 0 114.06 8.05z" transform="translate(-217.723 -398.72)"/><path id="Path_135" data-name="Path 135" class="cls-3" d="M287.867 712.1c-2 1.482-10.487 2.15-10.487 2.15s3.124-7.918 5.128-9.41a4.509 4.509 0 115.364 7.25z" transform="translate(-213.169 -419.169)"/><path id="Path_136" data-name="Path 136" class="cls-3" d="M268.461 637.816c1.788 1.736 10.106 3.533 10.106 3.533s-2.037-8.266-3.825-10a4.508 4.508 0 10-6.281 6.469z" transform="translate(-207.722 -380.045)"/><path id="Path_137" data-name="Path 137" class="cls-3" d="M257.21 681.245c2.225 1.12 10.7.348 10.7.348s-4.418-7.279-6.643-8.4a4.508 4.508 0 10-4.06 8.05z" transform="translate(-201.176 -402.622)"/><path id="Path_138" data-name="Path 138" class="cls-3" d="M254.1 726.114c2 1.482 10.487 2.15 10.487 2.15s-3.124-7.918-5.128-9.41a4.509 4.509 0 10-5.364 7.25z" transform="translate(-199.871 -426.587)"/><path id="Path_139" data-name="Path 139" class="cls-4" d="M283.435 598.985c0 2.489-4.507 9.711-4.507 9.711s-4.507-7.222-4.507-9.711a4.51 4.51 0 119.019 0z" transform="translate(-211.602 -361.195)"/><path id="Path_140" data-name="Path 140" class="cls-4" d="M299.232 625.546c-1.355 2.089-9.062 5.7-9.062 5.7s.141-8.511 1.491-10.6a4.509 4.509 0 017.57 4.9z" transform="translate(-219.942 -373.961)"/><path id="Path_141" data-name="Path 141" class="cls-4" d="M296.684 673.875c-2.225 1.12-10.7.348-10.7.348s4.418-7.278 6.643-8.4a4.508 4.508 0 114.06 8.05z" transform="translate(-217.723 -398.72)"/><path id="Path_142" data-name="Path 142" class="cls-4" d="M287.867 712.1c-2 1.482-10.487 2.15-10.487 2.15s3.124-7.918 5.128-9.41a4.509 4.509 0 115.364 7.25z" transform="translate(-213.169 -419.169)"/><path id="Path_143" data-name="Path 143" class="cls-4" d="M268.461 637.816c1.788 1.736 10.106 3.533 10.106 3.533s-2.037-8.266-3.825-10a4.508 4.508 0 10-6.281 6.469z" transform="translate(-207.722 -380.045)"/><path id="Path_144" data-name="Path 144" class="cls-4" d="M257.21 681.245c2.225 1.12 10.7.348 10.7.348s-4.418-7.279-6.643-8.4a4.508 4.508 0 10-4.06 8.05z" transform="translate(-201.176 -402.622)"/><path id="Path_145" data-name="Path 145" class="cls-4" d="M254.1 726.114c2 1.482 10.487 2.15 10.487 2.15s-3.124-7.918-5.128-9.41a4.509 4.509 0 10-5.364 7.25z" transform="translate(-199.871 -426.587)"/><path id="Path_146" data-name="Path 146" class="cls-2" d="M983.78 647.141s-7.415-25.171 1.411-43.7a39.76 39.76 0 003.213-24.936 66.876 66.876 0 00-3.533-11.706" transform="translate(-585.673 -346.541)"/><path id="Path_147" data-name="Path 147" class="cls-3" d="M988.429 535.592c0 3.086-5.585 12.03-5.585 12.03s-5.585-8.939-5.585-12.03a5.587 5.587 0 0111.174 0z" transform="translate(-583.764 -327.058)"/><path id="Path_148" data-name="Path 148" class="cls-3" d="M1007.976 568.489c-1.675 2.588-11.226 7.057-11.226 7.057s.174-10.546 1.85-13.136a5.586 5.586 0 119.377 6.074z" transform="translate(-594.084 -342.867)"/><path id="Path_149" data-name="Path 149" class="cls-3" d="M1004.838 628.365c-2.752 1.411-13.258.428-13.258.428s5.472-9.015 8.229-10.407a5.585 5.585 0 015.03 9.974z" transform="translate(-591.346 -373.539)"/><path id="Path_150" data-name="Path 150" class="cls-3" d="M993.9 675.749c-2.479 1.835-12.995 2.663-12.995 2.663s3.872-9.81 6.352-11.645a5.586 5.586 0 116.643 8.982z" transform="translate(-585.696 -398.895)"/><path id="Path_151" data-name="Path 151" class="cls-3" d="M970.073 583.841c2.211 2.15 12.524 4.375 12.524 4.375s-2.527-10.242-4.738-12.388a5.585 5.585 0 00-7.787 8z" transform="translate(-579.137 -350.554)"/><path id="Path_152" data-name="Path 152" class="cls-3" d="M955.933 637.5c2.752 1.411 13.258.428 13.258.428s-5.472-9.015-8.229-10.407a5.585 5.585 0 10-5.03 9.974z" transform="translate(-570.844 -378.378)"/><path id="Path_153" data-name="Path 153" class="cls-3" d="M952.081 693.1c2.479 1.835 12.995 2.663 12.995 2.663s-3.872-9.81-6.352-11.645a5.586 5.586 0 10-6.643 8.982z" transform="translate(-569.232 -408.082)"/><path id="Path_154" data-name="Path 154" class="cls-12" d="M988.429 535.592c0 3.086-5.585 12.03-5.585 12.03s-5.585-8.939-5.585-12.03a5.587 5.587 0 0111.174 0z" transform="translate(-583.764 -327.058)"/><path id="Path_155" data-name="Path 155" class="cls-12" d="M1007.976 568.489c-1.675 2.588-11.226 7.057-11.226 7.057s.174-10.546 1.85-13.136a5.586 5.586 0 119.377 6.074z" transform="translate(-594.084 -342.867)"/><path id="Path_156" data-name="Path 156" class="cls-12" d="M1004.838 628.365c-2.752 1.411-13.258.428-13.258.428s5.472-9.015 8.229-10.407a5.585 5.585 0 015.03 9.974z" transform="translate(-591.346 -373.539)"/><path id="Path_157" data-name="Path 157" class="cls-12" d="M993.9 675.749c-2.479 1.835-12.995 2.663-12.995 2.663s3.872-9.81 6.352-11.645a5.586 5.586 0 116.643 8.982z" transform="translate(-585.696 -398.895)"/><path id="Path_158" data-name="Path 158" class="cls-12" d="M970.073 583.841c2.211 2.15 12.524 4.375 12.524 4.375s-2.527-10.242-4.738-12.388a5.585 5.585 0 00-7.787 8z" transform="translate(-579.137 -350.554)"/><path id="Path_159" data-name="Path 159" class="cls-12" d="M955.933 637.5c2.752 1.411 13.258.428 13.258.428s-5.472-9.015-8.229-10.407a5.585 5.585 0 10-5.03 9.974z" transform="translate(-570.844 -378.378)"/><path id="Path_160" data-name="Path 160" class="cls-12" d="M952.081 693.1c2.479 1.835 12.995 2.663 12.995 2.663s-3.872-9.81-6.352-11.645a5.586 5.586 0 10-6.643 8.982z" transform="translate(-569.232 -408.082)"/><g id="Group_37" data-name="Group 37" class="cls-13" transform="translate(146.829 47.924)"><rect id="Rectangle_36" data-name="Rectangle 36" class="cls-3" width="30.111" height="30.111" rx="10.5"/><rect id="Rectangle_37" data-name="Rectangle 37" class="cls-3" width="30.111" height="30.111" rx="10.5" transform="translate(37.169)"/><rect id="Rectangle_38" data-name="Rectangle 38" class="cls-3" width="30.111" height="30.111" rx="10.5" transform="translate(74.337)"/><rect id="Rectangle_39" data-name="Rectangle 39" class="cls-3" width="30.111" height="30.111" rx="10.5" transform="translate(111.506)"/></g><rect id="Rectangle_40" data-name="Rectangle 40" class="cls-3" width="30.111" height="30.111" rx="10.5" transform="translate(146.673 93.091)"/><rect id="Rectangle_41" data-name="Rectangle 41" class="cls-14" width="30.111" height="30.111" rx="10.5" transform="translate(183.842 93.091)"/><rect id="Rectangle_42" data-name="Rectangle 42" class="cls-14" width="30.111" height="30.111" rx="10.5" transform="translate(221.011 93.091)"/><rect id="Rectangle_43" data-name="Rectangle 43" class="cls-14" width="30.111" height="30.111" rx="10.5" transform="translate(258.179 93.091)"/><g id="Group_38" data-name="Group 38" class="cls-13" transform="translate(146.518 138.258)"><rect id="Rectangle_44" data-name="Rectangle 44" class="cls-3" width="30.111" height="30.111" rx="10.5"/><rect id="Rectangle_45" data-name="Rectangle 45" class="cls-3" width="30.111" height="30.111" rx="10.5" transform="translate(37.169)"/><rect id="Rectangle_46" data-name="Rectangle 46" class="cls-3" width="30.111" height="30.111" rx="10.5" transform="translate(74.337)"/><rect id="Rectangle_47" data-name="Rectangle 47" class="cls-3" width="30.111" height="30.111" rx="10.5" transform="translate(111.506)"/></g><g id="Group_39" data-name="Group 39" class="cls-13" transform="translate(146.368 183.425)"><rect id="Rectangle_48" data-name="Rectangle 48" class="cls-3" width="30.111" height="30.111" rx="10.5"/><rect id="Rectangle_49" data-name="Rectangle 49" class="cls-3" width="30.111" height="30.111" rx="10.5" transform="translate(37.169)"/><rect id="Rectangle_50" data-name="Rectangle 50" class="cls-3" width="30.111" height="30.111" rx="10.5" transform="translate(74.337)"/><rect id="Rectangle_51" data-name="Rectangle 51" class="cls-3" width="30.111" height="30.111" rx="10.5" transform="translate(111.506)"/></g><path id="Path_161" data-name="Path 161" d="M473.09 333.559v2.719l-11.47-7.246 1.209-1.51.56.329 8.878-13.009v-7.565l3.383.3v-1.209c8.939-10.266 9.838 1.209 8 4.531a20.161 20.161 0 01-5.227 5.735c-1.882 1.581-5.175 13.531-5.97 16.528z" transform="translate(-310.726 -206.428)" fill="url(#linear-gradient-2)"/><path id="Path_162" data-name="Path 162" d="M300.6 334.3s8.756 17.13 6.036 34.261c-.913 5.759-.532 9.278.381 11.423a21.007 21.007 0 01-1.882 6.69c-3.322 6.944-3.322 14.19.9 22.645l1.209 43.755s1.51 20.527 0 24.757.6 24.465.6 24.465h-.3v11.169l22.621.607s5.3-2.517 6.243-4.4l11.367 3.5s12.51-2.155 5.175-5.138c-5.462-2.221-6.817-5.4-7.156-6.865l17.886-51.409s-3.322-43.755-15.4-58.872l-1.223-8.9h.169l2.564-51.975.212.028h-.061a57.629 57.629 0 0019.93-.306 31.051 31.051 0 005.773-1.614l.343-.136h.071a17.474 17.474 0 003.924-2.24l7.528-11.532-11.471-7.9-3.924 5.6s-12.294-2.6-19.045-5.335a28.847 28.847 0 00-9.88-2.122l-7.373-.254-3.675-2.207 1.148-2.969c.113-.052.226-.1.339-.165l.1-.635a17.61 17.61 0 0012.849-21.327h.24c-.1-6.116-1.976-6.714-1.976-6.714 0-6.22-5.434-10.769-11.626-11.292a30.784 30.784 0 00-9.546.837 11.108 11.108 0 00-8.469 9.654c-8.088 2.225-5.378 6.46-5.5 8.083-.621 7.9 1.882 12.576 4.658 15.3a14.585 14.585 0 004.079 2.992l-1.764 3.533h-.518l-1.44 4.234h-.071l-1.571 1.016A29.5 29.5 0 00300.6 334.3zm24.15 168v-13.588l5.735-40.152v-20.531l10.271 21.421-11.056 46.465-.579-.16-2.545 9.146a6.008 6.008 0 01-1.821-2.606z" transform="translate(-225.207 -183.459)" fill="url(#linear-gradient-3)"/><path id="Path_163" data-name="Path 163" class="cls-17" d="M471.388 316.04v7.25l-8.638 12.656 8.638 5.622s3.839-14.792 5.909-16.533a19.417 19.417 0 005.02-5.509c1.769-3.19.885-14.213-7.683-4.352v1.162z" transform="translate(-311.325 -211.178)"/><path id="Path_164" data-name="Path 164" class="cls-17" d="M334.783 349.053l3.42-6.841a1.265 1.265 0 011.068-.7l12.99-.663a1.266 1.266 0 011.247 1.722l-3.35 8.662a1.266 1.266 0 01-1.294.8l-13.056-1.162a1.266 1.266 0 01-1.026-1.821z" transform="translate(-243.495 -226.896)"/><path id="Path_165" data-name="Path 165" class="cls-18" d="M193.6 253.4l-2.207 6.469 22.659-.814-8.7-5.222z" transform="translate(-101.349 -134.178)"/><path id="Path_166" data-name="Path 166" class="cls-18" d="M318.47 265.639l1.157-1.449 9.861 5.8v2.61z" transform="translate(-168.64 -139.892)"/><path id="Path_167" data-name="Path 167" d="M313.418 502.32a21.553 21.553 0 01-1.529 13.277c-3.19 6.672-3.19 13.644.87 21.755l1.162 42.062s1.449 19.728 0 23.788.569 23.5.569 23.5h16.246v-13.055l5.509-38.58v-19.732l9.88 20.6-11.292 47.576 14.792 6.093 18.565-53.377s-3.218-42.062-14.82-56.562l-2.183-15.813z" transform="translate(-230.228 -312.398)" fill="#7a7478"/><path id="Path_168" data-name="Path 168" class="cls-20" d="M319.4 777.422V766.69h16.533s1.162 4.352 8.7 5.222-3.482 6.093-3.482 6.093z" transform="translate(-235.419 -452.385)"/><path id="Path_169" data-name="Path 169" class="cls-20" d="M357.36 763.651l2.879-10.351 15.931 4.437s-.052 4.5 6.982 7.363-4.987 4.935-4.987 4.935z" transform="translate(-255.519 -445.295)"/><path id="Path_170" data-name="Path 170" class="cls-21" d="M355.485 505.7l-37.775-1.53a21.132 21.132 0 01.287 6.85 4.531 4.531 0 005.434 2.955l33.052-1.016z" transform="translate(-234.524 -313.378)"/><path id="Path_171" data-name="Path 171" d="M318.185 360.68l-1.506 1.021a28.342 28.342 0 00-11.979 28.577s8.412 16.467 5.8 32.934 5.8 13.926 5.8 13.926l33.216-1.021 2.465-49.942s20.015 2.846 29.01-4.117l7.25-11.08-11.024-7.608-3.764 5.382s-11.814-2.494-18.3-5.128a27.716 27.716 0 00-9.513-2.037z" transform="translate(-227.386 -237.398)" fill="#4d8af0"/><path id="Path_172" data-name="Path 172" class="cls-21" d="M334.356 531.47s-2.033 10.153 9.574 26.978" transform="translate(-243.266 -327.833)"/><path id="Path_173" data-name="Path 173" class="cls-21" d="M406 409.719s13.922-4.639 20.015-4.639 5.077 2.63 5.077 2.63-9.702 4.329-25.092 2.009z" transform="translate(-281.275 -260.908)"/><path id="Path_174" data-name="Path 174" class="cls-21" d="M365.75 342.1l-5.542.663c-.174 0-.334.24-.428.583 1.219 2.2 2.743 3.505 4.4 3.505a3.42 3.42 0 001.68-.47l.423-2.564c.14-.853-.142-1.766-.533-1.717z" transform="translate(-256.801 -227.558)"/><circle id="Ellipse_32" data-name="Ellipse 32" class="cls-17" cx="16.919" cy="16.919" r="16.919" transform="translate(88.163 84.871)"/><path id="Path_175" data-name="Path 175" class="cls-21" d="M357.177 281.636l-.866.781a2.926 2.926 0 00.852 4.86s-7.58 7.58-8.633 8.986.174 5.109.174 5.109 3.35 6.168-14.275 4.757c0 0-11.63-2.465-10.4-18.151.122-1.571-2.465-5.646 5.288-7.754a10.671 10.671 0 018.172-9.269 29.579 29.579 0 019.175-.8 11.518 11.518 0 0110.513 11.481z" transform="translate(-237.702 -189.425)"/><path id="Path_176" data-name="Path 176" d="M357.21 280.391s1.8.555 1.882 6.45l-2.555-.174s-5.909 15.808-5.288 13.748c2.291-7.58-2.291-6.168-3.35-4.757s.174 5.11.174 5.11 3.35 6.168-14.275 4.757c0 0-11.63-2.465-10.4-18.151.122-1.571-2.465-5.646 5.288-7.754a10.671 10.671 0 018.158-9.273 29.582 29.582 0 019.175-.8c5.969.498 11.191 4.878 11.191 10.844z" transform="translate(-237.368 -189.102)" fill="#72351c"/><g id="Group_40" data-name="Group 40" class="cls-13" transform="translate(146.838 255.169)"><rect id="Rectangle_52" data-name="Rectangle 52" class="cls-3" width="30.111" height="30.111" rx="10.5"/><rect id="Rectangle_53" data-name="Rectangle 53" class="cls-3" width="30.111" height="30.111" rx="10.5" transform="translate(37.169)"/><rect id="Rectangle_54" data-name="Rectangle 54" class="cls-3" width="30.111" height="30.111" rx="10.5" transform="translate(74.337)"/><rect id="Rectangle_55" data-name="Rectangle 55" class="cls-3" width="30.111" height="30.111" rx="10.5" transform="translate(111.506)"/></g><g id="Group_41" data-name="Group 41" transform="translate(146.838 255.169)" opacity=".1"><rect id="Rectangle_56" data-name="Rectangle 56" width="30.111" height="30.111" rx="10.5"/><rect id="Rectangle_57" data-name="Rectangle 57" width="30.111" height="30.111" rx="10.5" transform="translate(37.169)"/><rect id="Rectangle_58" data-name="Rectangle 58" width="30.111" height="30.111" rx="10.5" transform="translate(74.337)"/><rect id="Rectangle_59" data-name="Rectangle 59" width="30.111" height="30.111" rx="10.5" transform="translate(111.506)"/></g></g></svg>