<svg id="Capa_1" data-name="Capa 1" xmlns="http://www.w3.org/2000/svg" viewBox="0 0 17.47 17.47"><defs><style>.cls-1{fill:#031826}</style></defs><path class="cls-1" d="M5.93 5a3.61 3.61 0 00-.9.09v2.82a3.38 3.38 0 00.72.09c1.16 0 1.87-.59 1.87-1.57S7 5 5.93 5z"/><path class="cls-1" d="M16.4 0H1.07A1.07 1.07 0 000 1.07V16.4a1.07 1.07 0 001.07 1.07H16.4a1.07 1.07 0 001.07-1.07V1.07A1.07 1.07 0 0016.4 0zM8.89 8.62a4.46 4.46 0 01-3.12 1 5.4 5.4 0 01-.74 0V13H2.87V3.54a18 18 0 012.94-.2 4.61 4.61 0 012.94.77 2.81 2.81 0 011 2.23 3.07 3.07 0 01-.86 2.28zm3.25 4.56a4.93 4.93 0 01-2.26-.48l.39-1.56a4.27 4.27 0 001.87.53c.65 0 .93-.23.93-.59s-.21-.53-1-.8c-1.44-.48-2-1.27-2-2.1 0-1.3 1.11-2.29 2.84-2.29a4.7 4.7 0 012 .4l-.39 1.5A3.42 3.42 0 0013 7.4c-.53 0-.83.21-.83.57s.27.5 1.13.8c1.33.46 1.89 1.13 1.9 2.15-.03 1.3-1.06 2.26-3.05 2.26z"/></svg>