<svg id="ps_cc_app_RGB.svg" xmlns="http://www.w3.org/2000/svg" viewBox="0 0 233.75 227.48"><path d="M198.34 230.74H41.66a38.65 38.65 0 01-38.58-38.59V41.85A38.65 38.65 0 0141.66 3.26h156.58a38.58 38.58 0 0138.59 38.59V192a38.52 38.52 0 01-38.49 38.74z" transform="translate(-3.08 -3.26)" fill="#2e001f"/><path d="M94.9 109.5l28 53.8c.5.8.2 1.6-.6 1.6h-17.4a2 2 0 01-2.1-1.3c-6.4-13.2-12.9-26.4-19.6-40.6H83c-6 13.4-12.6 27.5-19 40.7a1.92 1.92 0 01-1.8 1.1H45.7c-1 0-1.1-.8-.6-1.4l27.4-52.2L46 58.4a.81.81 0 01.6-1.4h17.2a1.57 1.57 0 011.8 1.1c6.3 13.2 12.7 26.8 18.7 40.1h.2c5.8-13.2 12.2-26.9 18.4-40 .5-.8.8-1.3 1.8-1.3h16.1c.8 0 1.1.6.6 1.4zm32.9 16.3c0-23.3 15.5-41.5 40.1-41.5a44.35 44.35 0 015.2.2V58a1 1 0 011-1h15.8c.8 0 1 .3 1 .8v91.8a71.23 71.23 0 00.5 9.8c0 .6-.2.8-.8 1.1a59.57 59.57 0 01-25.6 5.8c-21.7.1-37.2-13.3-37.2-40.5zm45.3-25.6a15.12 15.12 0 00-5.8-1c-12.6 0-21.4 9.7-21.4 25.8 0 18.4 9 25.8 20.3 25.8a18.87 18.87 0 006.9-1.1z" transform="translate(-3.08 -3.26)" fill="#ffd9f2"/></svg>