<?xml version="1.0" encoding="utf-8"?>
<!-- Generator: Adobe Illustrator 21.0.0, SVG Export Plug-In . SVG Version: 6.00 Build 0)  -->
<svg version="1.1" id="Layer_1" xmlns="http://www.w3.org/2000/svg" xmlns:xlink="http://www.w3.org/1999/xlink" x="0px" y="0px"
	 viewBox="0 0 149 149" style="enable-background:new 0 0 149 149;" xml:space="preserve">
<style type="text/css">
	.st0{fill:#E64D4D;}
</style>
<g>
	<g id="Artboard_1">
		<g id="startup" transform="translate(15.036 14.991)">
			<g id="Group_79" transform="translate(58.66 56.056)">
				<g id="Group_78">
					<path id="Path_359" class="st0" d="M4,0.7c-0.9-0.9-2.4-0.9-3.3,0c-0.9,0.9-0.9,2.4,0,3.3C1.6,4.9,3.1,4.9,4,4
						C4.9,3.1,4.9,1.6,4,0.7C4,0.7,4,0.7,4,0.7z"/>
				</g>
			</g>
			<g id="Group_81" transform="translate(72.42 23.646)">
				<g id="Group_80">
					<path id="Path_360" class="st0" d="M19.9,3.4C15.3-1.1,8-1.1,3.4,3.4s-4.6,11.9,0,16.5c4.6,4.6,11.9,4.6,16.5,0
						C24.4,15.4,24.5,8,19.9,3.4C19.9,3.4,19.9,3.4,19.9,3.4z M16.6,16.6c-2.7,2.7-7.2,2.7-9.9,0C4,13.9,4,9.4,6.7,6.7
						s7.2-2.7,9.9,0c0,0,0,0,0,0C19.3,9.4,19.3,13.9,16.6,16.6z"/>
				</g>
			</g>
			<g id="Group_83" transform="translate(22.387 0)">
				<g id="Group_82" transform="translate(0 0)">
					<path id="Path_361" class="st0" d="M96.3,0.7C95.9,0.2,95.2,0,94.6,0c-9.6,0.6-19,2.6-28,5.8c-12,4.2-21.9,10.3-29.6,18
						c-1.7,1.7-3.4,3.6-5,5.5c-7.6-4.5-13.7-3.1-17.6-1C5.5,33,0,45.9,0,55.1c0,1.3,1,2.3,2.3,2.3c0.6,0,1.2-0.2,1.6-0.7
						c3.3-3.2,7.8-4.7,12.3-4.1l0.8,0.8c-1.6,3.7-2.8,7.5-3.9,11.3c-0.3,1.3-0.2,2.8,0.3,4.1c-2.3,1.1-4.5,2.6-6.3,4.4
						c-6,6-7.2,20.6-7.3,21.2c-0.1,1.3,0.9,2.4,2.1,2.5c0.1,0,0.1,0,0.2,0c0.1,0,0.1,0,0.2,0c0.6,0,15.2-1.3,21.2-7.3
						c1.8-1.8,3.3-4,4.4-6.3c1.3,0.5,2.7,0.6,4.1,0.3c3.9-1,7.6-2.3,11.3-3.8l0.8,0.8c0.6,4.5-0.9,9.1-4.1,12.3
						c-0.9,0.9-0.9,2.4,0,3.3c0.4,0.4,1,0.7,1.6,0.7c9.2,0,22.1-5.5,26.9-14.4c2.1-3.9,3.5-10-1-17.6c1.9-1.6,3.7-3.3,5.5-5
						c7.7-7.7,13.7-17.7,18-29.6c3.2-9,5.2-18.4,5.8-28C97,1.8,96.8,1.1,96.3,0.7z M5.2,50.1c1.4-7,5.7-14.7,11.4-17.8
						c3.8-2,8-1.8,12.4,0.6c-3.8,5-7.1,10.3-9.8,16c-0.3-0.4-0.8-0.6-1.2-0.7C13.6,47.4,9.1,48,5.2,50.1z M20.5,86.4
						C17.3,89.6,9.7,91.3,5,92c0.7-4.8,2.4-12.3,5.6-15.5c1.7-1.7,3.7-3.1,6-3.9l7.8,7.8C23.5,82.7,22.2,84.7,20.5,86.4L20.5,86.4z
						 M31.1,79.2c-0.7,0.1-1.5-0.1-2-0.7L24.5,74l-6-6c-0.6-0.5-0.8-1.3-0.7-2c0.8-3,1.8-6,2.9-8.9L40,76.3
						C37.1,77.4,34.1,78.4,31.1,79.2z M64.7,80.4c-3.1,5.7-10.7,9.9-17.8,11.4c2.1-3.9,2.7-8.4,1.9-12.8c-0.1-0.5-0.4-0.9-0.7-1.2
						c5.6-2.7,11-6,16-9.8C66.5,72.4,66.7,76.6,64.7,80.4z M69.9,56.7c-2.1,2.1-4.4,4.1-6.7,6c-5.7,4.6-11.9,8.5-18.6,11.5
						L22.7,52.4c3.1-6.6,6.9-12.9,11.5-18.6c1.9-2.3,3.9-4.6,6-6.7c6.9-6.9,15.8-12.4,26.5-16.4l19.5,19.5
						C82.3,40.9,76.8,49.8,69.9,56.7z M88,25.3L71.7,9C78.3,7,85.2,5.6,92.1,4.9C91.4,11.8,90,18.7,88,25.3z"/>
				</g>
			</g>
			<g id="Group_85" transform="translate(45.471 95.624)">
				<g id="Group_84">
					<path id="Path_362" class="st0" d="M10.6,0.7c-0.9-0.9-2.4-0.9-3.3,0c0,0,0,0,0,0L0.7,7.3c-0.9,0.9-0.9,2.4,0,3.3
						c0.9,0.9,2.4,0.9,3.3,0L10.6,4C11.5,3.1,11.5,1.6,10.6,0.7C10.6,0.7,10.6,0.7,10.6,0.7z"/>
				</g>
			</g>
			<g id="Group_87" transform="translate(12.495 62.651)">
				<g id="Group_86">
					<path id="Path_363" class="st0" d="M10.6,0.7c-0.9-0.9-2.4-0.9-3.3,0c0,0,0,0,0,0L0.7,7.3c-0.9,0.9-0.9,2.4,0,3.3
						c0.9,0.9,2.4,0.9,3.3,0L10.6,4C11.5,3.1,11.5,1.6,10.6,0.7C10.6,0.7,10.6,0.7,10.6,0.7z"/>
				</g>
			</g>
			<g id="Group_89" transform="translate(19.784 98.924)">
				<g id="Group_88">
					<path id="Path_364" class="st0" d="M19.8,0.7c-0.9-0.9-2.4-0.9-3.3,0c0,0,0,0,0,0L0.7,16.5c-0.9,0.9-0.9,2.4,0,3.3
						c0.9,0.9,2.4,0.9,3.3,0L19.8,4C20.7,3.1,20.7,1.6,19.8,0.7C19.8,0.7,19.8,0.7,19.8,0.7z"/>
				</g>
			</g>
			<g id="Group_91" transform="translate(1.131 98.924)">
				<g id="Group_90">
					<path id="Path_365" class="st0" d="M19.8,0.7c-0.9-0.9-2.4-0.9-3.3,0c0,0,0,0,0,0L0.7,16.5c-0.9,0.9-0.9,2.4,0,3.3
						c0.9,0.9,2.4,0.9,3.3,0L19.8,4C20.7,3.1,20.7,1.6,19.8,0.7C19.8,0.7,19.8,0.7,19.8,0.7z"/>
				</g>
			</g>
			<g id="Group_93" transform="translate(0 79.137)">
				<g id="Group_92" transform="translate(0)">
					<path id="Path_366" class="st0" d="M19.8,0.7c-0.9-0.9-2.4-0.9-3.3,0c0,0,0,0,0,0L0.7,16.5c-0.9,0.9-0.9,2.4,0,3.3
						c0.9,0.9,2.4,0.9,3.3,0L19.8,4C20.7,3.1,20.7,1.6,19.8,0.7z"/>
				</g>
			</g>
			<g id="Group_95" transform="translate(65.255 46.164)">
				<g id="Group_94">
					<path id="Path_367" class="st0" d="M7.3,0.7C6.4-0.2,4.9-0.2,4,0.7c0,0,0,0,0,0L0.7,4c-0.9,0.9-0.9,2.4,0,3.3
						c0.9,0.9,2.4,0.9,3.3,0l0,0L7.3,4C8.2,3.1,8.2,1.6,7.3,0.7C7.3,0.7,7.3,0.7,7.3,0.7z"/>
				</g>
			</g>
		</g>
	</g>
</g>
</svg>
