<?xml version="1.0" encoding="utf-8"?>
<!-- Generator: Adobe Illustrator 21.0.0, SVG Export Plug-In . SVG Version: 6.00 Build 0)  -->
<svg version="1.1" id="Layer_1" xmlns="http://www.w3.org/2000/svg" xmlns:xlink="http://www.w3.org/1999/xlink" x="0px" y="0px"
	 viewBox="0 0 149 149" style="enable-background:new 0 0 149 149;" xml:space="preserve">
<style type="text/css">
	.st0{fill:#E64D4D;}
</style>
<g>
	<g id="Artboard_2">
		<g id="sketch" transform="translate(8.123 8.078)">
			<g id="Group_75" transform="translate(92.211 92.061)">
				<g id="Group_74">
					<path id="Path_357" class="st0" d="M23.7,0.2c-0.7-0.3-1.5-0.1-2.1,0.4l-21,21c-0.8,0.8-0.8,2,0,2.7c0.4,0.4,0.8,0.6,1.4,0.6
						h21c1.1,0,1.9-0.9,1.9-1.9v-21C24.8,1.1,24.4,0.4,23.7,0.2z M6.6,21L21,6.6V21H6.6z"/>
				</g>
			</g>
			<g id="Group_77" transform="translate(0 0)">
				<g id="Group_76">
					<path id="Path_358" class="st0" d="M129.8,61.4c-0.7-0.3-1.5-0.1-2.1,0.4l-5.8,5.8V28.4c0-1.1-0.9-1.9-1.9-1.9h-14.8l5.4-5.4
						l0,0l5.2-5.2c2.3-2.3,2.3-6,0-8.3l-6-6c-2.3-2.3-6-2.3-8.3,0l-5.2,5.2l-6.2,6.2L76.7,26.5H17v-19c0-1.1-0.9-1.9-1.9-1.9h0
						C6.8,5.6,0,12.3,0,20.7v81.6c0,0.1,0,0.3,0,0.4c0.6,7.6,6.9,13.5,14.5,13.5h58.7l-11.1,11.1c-0.8,0.8-0.8,2,0,2.7
						c0.4,0.4,0.8,0.6,1.4,0.6H129c1.1,0,1.9-0.9,1.9-1.9V63.2C131,62.4,130.5,61.7,129.8,61.4z M104.2,4.4c0.8-0.8,2.1-0.8,2.9,0
						l6,6c0.8,0.8,0.8,2.1,0,2.9l-3.8,3.8l-8.8-8.8L104.2,4.4z M97.7,11l8.8,8.8l-3.5,3.5l-8.8-8.8L97.7,11z M127.1,84.8h-3.5
						c-1.1,0-1.9,0.9-1.9,1.9c0,1.1,0.9,1.9,1.9,1.9h3.5v5.8h-3.5c-1.1,0-1.9,0.9-1.9,1.9c0,1.1,0.9,1.9,1.9,1.9h3.5v5.8h-3.5
						c-1.1,0-1.9,0.9-1.9,1.9c0,1.1,0.9,1.9,1.9,1.9h3.5v5.8h-3.5c-1.1,0-1.9,0.9-1.9,1.9c0,1.1,0.9,1.9,1.9,1.9h3.5v9.2H68.2
						l19.4-19.4c0.8-0.8,0.8-2,0-2.7c-0.8-0.8-2-0.8-2.7,0l0,0l-7.8,7.8H14.6c-5.8,0-10.6-4.6-10.7-10.4c0-0.4,0-0.7,0.1-1.1v0
						c0-0.2,0-0.3,0.1-0.5l0-0.1c0-0.2,0.1-0.3,0.1-0.4c0,0,0-0.1,0-0.1c0-0.1,0.1-0.3,0.1-0.4c0-0.1,0-0.1,0.1-0.2
						c0-0.1,0.1-0.2,0.1-0.3s0.1-0.2,0.1-0.3c0-0.1,0-0.1,0.1-0.2c0-0.1,0.1-0.3,0.1-0.4c0,0,0-0.1,0-0.1c0.1-0.2,0.1-0.3,0.2-0.5
						l0,0c1.5-3.2,4.4-5.4,7.9-6.2l0,0c0.2,0,0.3-0.1,0.5-0.1l0.1,0c0.1,0,0.3,0,0.4-0.1l0.1,0c0.1,0,0.3,0,0.4,0c0,0,0.1,0,0.1,0
						c0.2,0,0.4,0,0.6,0c1.1,0,1.9-0.9,1.9-1.9V75.2c0-1.1-0.9-1.9-1.9-1.9c-1.1,0-1.9,0.9-1.9,1.9c0,0,0,0,0,0v12.1
						c-3.3,0.4-6.3,1.9-8.6,4.2c-0.3,0.2-0.5,0.5-0.7,0.8V20.7c0-5.5,4-10.2,9.4-11.1v57.9l0,0c0,1.1,0.9,1.9,1.9,1.9
						c1.1,0,1.9-0.9,1.9-1.9l0,0V30.4h55.8L62.2,41c-0.7,0.8-0.7,2,0,2.7c0.7,0.7,1.9,0.7,2.7,0l13.9-13.9l0,0l12.6-12.6l8.8,8.8
						l-1,1l0,0L60.5,65.8L51.6,57l7.6-7.6c0.7-0.8,0.7-2,0-2.7c-0.7-0.7-1.9-0.7-2.7,0l-9,9c0,0-0.1,0.1-0.1,0.2c0,0,0,0,0,0.1
						c0,0-0.1,0.1-0.1,0.1c0,0,0,0,0,0.1s0,0.1-0.1,0.1s0,0,0,0.1s0,0.1,0,0.1c0,0,0,0,0,0L43.4,67l-2.6,7.2c0,0.1-0.1,0.2-0.1,0.3
						h-6.4c-1.1,0-1.9,0.9-1.9,1.9c0,1.1,0.9,1.9,1.9,1.9h53.2c1.1,0,1.9-0.9,1.9-1.9c0-1.1-0.9-1.9-1.9-1.9H49.4l11.7-4.1l0,0
						c0,0,0.1,0,0.1-0.1l0.1,0c0,0,0.1,0,0.1-0.1l0,0c0,0,0.1-0.1,0.1-0.1l0,0c0.1,0,0.1-0.1,0.2-0.1l39.6-39.6h16.7v41.1L90.6,98.9
						c-0.8,0.8-0.8,2,0,2.7c0,0,0.1,0.1,0.1,0.1c0.8,0.6,1.9,0.6,2.6-0.1l0,0l33.8-33.8L127.1,84.8z M57,67.7l-5.5,1.9L47.8,66
						l1.9-5.5L57,67.7z"/>
				</g>
			</g>
		</g>
	</g>
</g>
</svg>
