<?xml version="1.0" encoding="utf-8"?>
<!-- Generator: Adobe Illustrator 21.0.0, SVG Export Plug-In . SVG Version: 6.00 Build 0)  -->
<svg version="1.1" id="Layer_1" xmlns="http://www.w3.org/2000/svg" xmlns:xlink="http://www.w3.org/1999/xlink" x="0px" y="0px"
	 viewBox="0 0 149 149" style="enable-background:new 0 0 149 149;" xml:space="preserve">
<style type="text/css">
	.st0{fill:#E64D4D;}
</style>
<g>
	<g id="Artboard_3">
		<g id="blueprint" transform="translate(7.383 16.396)">
			<path id="Path_339" class="st0" d="M128.5,33.5h-20.8l12.4-13.8c1.4-1.6,1.3-4-0.3-5.5c0,0,0,0,0,0l-5.3-4.8
				c-1.6-1.4-4-1.3-5.5,0.3L87.6,33.5H50.4c-1.1,0-1.9,0.9-1.9,2s0.9,2,1.9,2h33.7l-8.7,9.7c-0.7,0.8-1,1.8-1,2.8c0,0.1,0,0.2,0,0.4
				l-3,8.1c-0.6,1.6,0.2,3.4,1.8,4c0.8,0.3,1.7,0.2,2.5-0.1l7.7-3.8c0,0,0.1,0,0.1,0c0.1,0,0.1,0,0.2,0c1-0.1,2-0.5,2.7-1.3
				l17.6-19.6h24.3c0.4,0,0.6,0.3,0.6,0.6v75.1c0,0.4-0.3,0.6-0.6,0.6h-14.2c-1.1,0-1.9,0.9-1.9,1.9s0.9,1.9,1.9,1.9h14.2
				c2.5,0,4.5-2,4.5-4.5V38C133,35.5,131,33.5,128.5,33.5L128.5,33.5z M117.2,17.1l-2.3,2.6l-5.3-4.8l2.3-2.6L117.2,17.1z
				 M106.9,17.8l1.2,1.1L79.5,50.7l-1.2-1.1L106.9,17.8z M77.2,53.9l2.3,2l-3.7,1.8L77.2,53.9z M83.6,54.4l-1.2-1.1L111,21.5
				l1.2,1.1L83.6,54.4z"/>
			<path id="Path_340" class="st0" d="M105.8,113.7H18.2c-7.9,0-14.3-6.4-14.3-14.3v-1c0-7.9,6.4-14.3,14.3-14.3h4
				c2.5,0,4.5-2,4.5-4.5V37.4h15.2c1.1,0,2-0.9,2-2s-0.9-2-2-2H26.7v-6.8c0-1.1-0.9-1.9-1.9-2c-1.1,0-2,0.9-2,2l0,0v52.9
				c0,0.4-0.3,0.6-0.6,0.6h-4c-5.6,0-10.8,2.6-14.3,6.9v-69c0-7.9,6.4-14.3,14.3-14.3h4c0.4,0,0.6,0.3,0.6,0.6v13.7c0,1.1,0.9,2,2,2
				c1.1,0,1.9-0.9,1.9-2V4.5c0-2.5-2-4.5-4.5-4.5h-4C8.1,0,0,8.1,0,18.2v81.3c0,10,8.1,18.2,18.2,18.2h87.6c1.1,0,1.9-0.9,1.9-1.9
				C107.8,114.6,106.9,113.7,105.8,113.7L105.8,113.7z"/>
			<path id="Path_341" class="st0" d="M104,54c-7.9,0-14.5,6.2-15,14.1h-9c-1.1,0-1.9,0.9-1.9,1.9v22.3c0,1.1,0.9,1.9,1.9,1.9h22.3
				c1.1,0,1.9-0.9,1.9-1.9c0,0,0,0,0,0V84c8.3-0.1,14.9-6.9,14.7-15.2C118.8,60.6,112.2,54,104,54L104,54z M100.3,79.5
				c-3.4-1.2-6.1-4-7.1-7.5h7.1V79.5z M82,90.4V72h7.3c1.2,5.7,5.5,10.1,11.1,11.5v6.8L82,90.4z M104.2,80.1v-10
				c0-1.1-0.9-1.9-1.9-1.9h-9.4c0.5-6.1,5.8-10.6,11.9-10.1c6.1,0.5,10.6,5.8,10.1,11.9C114.5,75.6,109.9,80,104.2,80.1z"/>
			<path id="Path_342" class="st0" d="M111.2,85.4c-1.1,0-1.9,0.9-1.9,2c0,1.1,0.9,1.9,1.9,1.9h4.3c1.1,0,2-0.9,2-1.9
				c0-1.1-0.9-2-2-2H111.2z"/>
			<path id="Path_343" class="st0" d="M117.5,92.3c0-1.1-0.9-1.9-1.9-1.9h-4.3c-1.1,0-1.9,0.9-1.9,1.9c0,1.1,0.9,2,1.9,2h4.3
				C116.6,94.3,117.5,93.4,117.5,92.3C117.5,92.3,117.5,92.3,117.5,92.3z"/>
			<path id="Path_344" class="st0" d="M35.6,53.3h3.1c1.1,0,1.9-0.9,1.9-1.9s-0.9-1.9-1.9-1.9h-3.1c-1.1,0-1.9,0.9-1.9,1.9
				S34.5,53.3,35.6,53.3z"/>
			<path id="Path_345" class="st0" d="M35.6,58.9h15c1.1,0,1.9-0.9,1.9-1.9S51.7,55,50.6,55h-15c-1.1,0-1.9,0.9-1.9,1.9
				S34.5,58.9,35.6,58.9z"/>
			<path id="Path_346" class="st0" d="M47.5,53.3h3.1c1.1,0,1.9-0.9,1.9-1.9s-0.9-1.9-1.9-1.9h-3.1c-1.1,0-1.9,0.9-1.9,1.9
				S46.4,53.3,47.5,53.3z"/>
			<path id="Path_347" class="st0" d="M62.6,49.4h-3.1c-1.1,0-1.9,0.9-1.9,1.9s0.9,1.9,1.9,1.9h3.1c1.1,0,1.9-0.9,1.9-1.9
				S63.6,49.4,62.6,49.4L62.6,49.4z"/>
			<path id="Path_348" class="st0" d="M35.6,64.6h15c1.1,0,1.9-0.9,1.9-1.9s-0.9-1.9-1.9-1.9h-15c-1.1,0-1.9,0.9-1.9,1.9
				S34.5,64.6,35.6,64.6z"/>
			<path id="Path_349" class="st0" d="M33.6,68.3c0,1.1,0.9,1.9,1.9,1.9h23.8c1.1,0,1.9-0.9,1.9-2c0-1.1-0.9-1.9-1.9-1.9H35.6
				C34.5,66.3,33.6,67.2,33.6,68.3C33.6,68.3,33.6,68.3,33.6,68.3z"/>
			<path id="Path_350" class="st0" d="M64.5,73.9c0-1.1-0.9-1.9-1.9-1.9h-27c-1.1,0-1.9,0.9-1.9,2c0,1.1,0.9,1.9,1.9,1.9h27
				C63.6,75.9,64.5,75,64.5,73.9C64.5,73.9,64.5,73.9,64.5,73.9z"/>
			<path id="Path_351" class="st0" d="M42.9,83c0-1.1-0.9-1.9-1.9-1.9h-5.4c-1.1,0-1.9,0.9-1.9,1.9v5.4c0,1.1,0.9,1.9,1.9,1.9H41
				c1.1,0,1.9-0.9,1.9-1.9V83z M39,86.4h-1.5v-1.5H39L39,86.4z"/>
			<path id="Path_352" class="st0" d="M55.8,83c0-1.1-0.9-1.9-1.9-1.9h-5.4c-1.1,0-1.9,0.9-1.9,1.9v5.4c0,1.1,0.9,1.9,1.9,1.9h5.4
				c1.1,0,1.9-0.9,1.9-1.9L55.8,83z M51.9,86.4h-1.5v-1.5h1.5V86.4z"/>
			<path id="Path_353" class="st0" d="M68.7,83c0-1.1-0.9-1.9-1.9-1.9h-5.4c-1.1,0-1.9,0.9-1.9,1.9v5.4c0,1.1,0.9,1.9,1.9,1.9h5.4
				c1.1,0,1.9-0.9,1.9-1.9V83z M64.8,86.4h-1.5v-1.5h1.5V86.4z"/>
			<path id="Path_354" class="st0" d="M41,94.7h-5.4c-1.1,0-1.9,0.9-1.9,1.9v5.4c0,1.1,0.9,1.9,1.9,1.9H41c1.1,0,1.9-0.9,1.9-1.9
				v-5.4C42.9,95.6,42,94.7,41,94.7z M39,100.1h-1.5v-1.5H39L39,100.1z"/>
			<path id="Path_355" class="st0" d="M53.8,94.7h-5.4c-1.1,0-1.9,0.9-1.9,1.9v5.4c0,1.1,0.9,1.9,1.9,1.9h5.4c1.1,0,1.9-0.9,1.9-1.9
				v-5.4C55.8,95.6,54.9,94.7,53.8,94.7z M51.9,100.1h-1.5v-1.5h1.5V100.1z"/>
			<path id="Path_356" class="st0" d="M61.4,104h5.4c1.1,0,1.9-0.9,1.9-1.9v-5.4c0-1.1-0.9-1.9-1.9-1.9h-5.4c-1.1,0-1.9,0.9-1.9,1.9
				v5.4C59.4,103.1,60.3,104,61.4,104C61.4,104,61.4,104,61.4,104z M63.3,98.6h1.5v1.5h-1.5V98.6z"/>
		</g>
	</g>
</g>
</svg>
