<svg id="Group_43" data-name="Group 43" xmlns="http://www.w3.org/2000/svg" width="429" height="363.497" viewBox="0 0 429 363.497">
  <defs>
    <style>
      .cls-1 {
        fill: #f1f1f1;
      }

      .cls-2, .cls-9 {
        fill: #6c63ff;
      }

      .cls-3 {
        fill: #2f2e41;
      }

      .cls-4 {
        fill: #9f616a;
      }

      .cls-5 {
        fill: #a0616a;
      }

      .cls-6 {
        fill: none;
        stroke: #3f3d56;
        stroke-miterlimit: 10;
        stroke-width: 2px;
      }

      .cls-7 {
        fill: #3f3d56;
      }

      .cls-8 {
        fill: #ff6584;
      }

      .cls-9 {
        opacity: 0.3;
      }
    </style>
  </defs>
  <circle id="Ellipse_33" data-name="Ellipse 33" class="cls-1" cx="6.807" cy="6.807" r="6.807" transform="translate(338.315 16.017)"/>
  <circle id="Ellipse_34" data-name="Ellipse 34" class="cls-1" cx="6.807" cy="6.807" r="6.807" transform="translate(298.183 279.413)"/>
  <circle id="Ellipse_35" data-name="Ellipse 35" class="cls-1" cx="6.807" cy="6.807" r="6.807" transform="translate(128.889 81.52)"/>
  <ellipse id="Ellipse_36" data-name="Ellipse 36" class="cls-1" cx="72.423" cy="10.61" rx="72.423" ry="10.61" transform="translate(0 342.277)"/>
  <path id="Path_177" data-name="Path 177" class="cls-2" d="M367.005,623.008l18.182-5.7a66.639,66.639,0,0,0-6.791-21.678l-18.182,5.7A40.876,40.876,0,0,1,367.005,623.008Z" transform="translate(-256.325 -346.706)"/>
  <circle id="Ellipse_37" data-name="Ellipse 37" class="cls-3" cx="16.975" cy="16.975" r="16.975" transform="translate(50.004 105.891)"/>
  <path id="Path_178" data-name="Path 178" class="cls-4" d="M101.729,725.345,98.5,739.184h7.842l3.229-15.684Z" transform="translate(-53.063 -389.756)"/>
  <path id="Path_179" data-name="Path 179" class="cls-4" d="M187.5,727.5v12.916l7.842.923V727.5Z" transform="translate(-101.008 -391.911)"/>
  <path id="Path_180" data-name="Path 180" class="cls-4" d="M235.5,464.963s.923,19.835,1.845,21.219,9.226,21.219,9.226,21.219l4.152-12.916s-6.458-10.61-5.535-16.606a68.929,68.929,0,0,0,.341-13.376Z" transform="translate(-189.14 -276.064)"/>
  <circle id="Ellipse_38" data-name="Ellipse 38" class="cls-4" cx="12.916" cy="12.916" r="12.916" transform="translate(59.737 115.092)"/>
  <path id="Path_181" data-name="Path 181" class="cls-4" d="M265.885,336.5s.461,18.452-2.768,21.219,18.452.461,18.452.461-4.613-12.916-.923-15.684S265.885,336.5,265.885,336.5Z" transform="translate(-203.841 -207.108)"/>
  <path id="Path_182" data-name="Path 182" class="cls-3" d="M267.163,376.078s-2.768-5.074-6.458-4.613-15.684,1.384-16.145,2.306-1.845,4.152-2.768,5.074-7.842,2.306-8.3,7.842S250.1,425.9,250.1,425.9s-2.306,7.842-1.845,9.687-2.306,7.381-1.845,9.687-6.919,16.145-3.229,34.135v29.061s-12.455,50.281-8.765,53.971,16.145,1.384,18.452,0S264.857,491.4,264.857,491.4l4.613-23.526.461,51.664s-.923,43.361,2.306,44.745,15.684,1.845,16.606-.923c.72-2.159,4.245-59.594,5.762-84.769a94.06,94.06,0,0,0-2.031-25.913c-1.92-8.708-4.707-18.939-7.883-23.091-6-7.842-9.687-32.752-9.687-32.752l7.842-14.3s-4.613-4.613-7.381-4.613S267.163,376.078,267.163,376.078Z" transform="translate(-188.052 -225.928)"/>
  <path id="Path_183" data-name="Path 183" class="cls-3" d="M235.639,397.5l-2.433,1.656s-1.719,29.712-.335,31.557,11.005.945,11.73-.681S235.639,397.5,235.639,397.5Z" transform="translate(-187.434 -239.969)"/>
  <path id="Path_184" data-name="Path 184" class="cls-4" d="M321.5,452.955s.461,19.374,3.229,24.91,12.916,28.6,12.916,28.6-.589,25.385,4.549,19.151,1.909-21,1.909-21l-8.764-34.135s-4.613-15.223-4.152-19.835S321.5,452.955,321.5,452.955Z" transform="translate(-235.469 -267.747)"/>
  <path id="Path_185" data-name="Path 185" class="cls-3" d="M326.332,795.247s.461-.369,1.845,1.015,5.074,3.229,4.613,8.3-3.229,6-3.229,6v-1.384h-1.384v2.306s-2.306,7.381-12.916,2.768a23.925,23.925,0,0,1,0-6c.461-2.306.461-13.377,1.845-12.916s5.074.923,6,2.768S326.793,799.306,326.332,795.247Z" transform="translate(-231.998 -454.216)"/>
  <path id="Path_186" data-name="Path 186" class="cls-3" d="M228.912,796.247s-.461-.369-1.845,1.015-5.074,3.229-4.613,8.3,3.229,6,3.229,6v-1.384h1.384v2.306s2.306,7.381,12.916,2.768a23.926,23.926,0,0,0,0-6c-.461-2.306-.461-13.377-1.845-12.916s-5.074.923-6,2.768S228.451,800.306,228.912,796.247Z" transform="translate(-182.091 -454.754)"/>
  <path id="Path_187" data-name="Path 187" class="cls-3" d="M321.369,392.5l6.458,1.384s0,10.148,1.845,14.3,5.074,13.839,3.69,14.3-14.3,6.919-15.223,3.229S314.911,392.5,321.369,392.5Z" transform="translate(-233.032 -237.276)"/>
  <circle id="Ellipse_39" data-name="Ellipse 39" class="cls-3" cx="16.975" cy="16.975" r="16.975" transform="translate(31.614 83.54)"/>
  <path id="Path_188" data-name="Path 188" class="cls-3" d="M199.709,285.833a16.976,16.976,0,0,0,26.215-8.914,16.976,16.976,0,1,1-33.115-6.961A16.97,16.97,0,0,0,199.709,285.833Z" transform="translate(-165.762 -171.261)"/>
  <circle id="Ellipse_40" data-name="Ellipse 40" class="cls-3" cx="12.449" cy="12.449" r="12.449" transform="translate(50.004 113.246)"/>
  <ellipse id="Ellipse_41" data-name="Ellipse 41" class="cls-3" cx="11.034" cy="8.629" rx="11.034" ry="8.629" transform="translate(61.887 112.398)"/>
  <ellipse id="Ellipse_42" data-name="Ellipse 42" class="cls-5" cx="2.094" cy="3.705" rx="2.094" ry="3.705" transform="translate(73.77 126.164)"/>
  <rect id="Rectangle_60" data-name="Rectangle 60" class="cls-1" width="246.329" height="197.894" transform="matrix(0.958, 0.288, -0.288, 0.958, 187.378, 9.993)"/>
  <line id="Line_4" data-name="Line 4" class="cls-6" x2="55.881" y2="22.587" transform="translate(281.924 65.454)"/>
  <path id="Path_189" data-name="Path 189" class="cls-7" d="M611.5,143.79l.837-.391-1.929-4.12,4.25-1.623-.33-.862-5.176,1.978Z" transform="translate(-328.157 -73.693)"/>
  <path id="Path_190" data-name="Path 190" class="cls-7" d="M722.71,187.788l-.33-.862,4.25-1.622-1.929-4.12.837-.391,2.348,5.019Z" transform="translate(-389.153 -97.395)"/>
  <circle id="Ellipse_43" data-name="Ellipse 43" class="cls-7" cx="5.074" cy="5.074" r="5.074" transform="translate(304.791 71.673)"/>
  <line id="Line_5" data-name="Line 5" class="cls-6" y1="31.345" x2="51.481" transform="translate(277.666 190.697)"/>
  <path id="Path_191" data-name="Path 191" class="cls-7" d="M605.51,477.364l.186-.9-4.457-.912,1.235-4.379-.889-.25-1.5,5.333Z" transform="translate(-323.27 -253.689)"/>
  <path id="Path_192" data-name="Path 192" class="cls-7" d="M707.33,416.307l-.889-.25,1.236-4.378-4.457-.913.186-.9,5.428,1.113Z" transform="translate(-378.831 -220.797)"/>
  <circle id="Ellipse_44" data-name="Ellipse 44" class="cls-7" cx="5.074" cy="5.074" r="5.074" transform="translate(298.333 201.296)"/>
  <line id="Line_6" data-name="Line 6" class="cls-6" x2="0.018" y2="60.273" transform="translate(212.985 122.724)"/>
  <path id="Path_193" data-name="Path 193" class="cls-7" d="M453.538,267.934l.676.629,3.1-3.333,3.1,3.331.675-.63-3.774-4.057Z" transform="translate(-244.325 -142.152)"/>
  <path id="Path_194" data-name="Path 194" class="cls-7" d="M453.573,389.345l.676-.63,3.1,3.331,3.1-3.333.676.629-3.772,4.058Z" transform="translate(-244.344 -209.403)"/>
  <circle id="Ellipse_45" data-name="Ellipse 45" class="cls-7" cx="5.074" cy="5.074" r="5.074" transform="translate(207.92 147.786)"/>
  <rect id="Rectangle_61" data-name="Rectangle 61" class="cls-7" width="83.955" height="104.252" transform="translate(170.216)"/>
  <path id="Path_195" data-name="Path 195" class="cls-8" d="M560.231,113.6H541.178a66.638,66.638,0,0,1,0-22.717h19.053A40.875,40.875,0,0,0,560.231,113.6Z" transform="translate(-353.287 -74.794)"/>
  <path id="Path_196" data-name="Path 196" class="cls-2" d="M606.379,138.582h19.053a66.638,66.638,0,0,0,0-22.717H606.379A40.875,40.875,0,0,1,606.379,138.582Z" transform="translate(-388.936 -88.25)"/>
  <path id="Path_197" data-name="Path 197" class="cls-2" d="M567.379,220.582h19.053a66.638,66.638,0,0,0,0-22.717H567.379A40.875,40.875,0,0,1,567.379,220.582Z" transform="translate(-367.927 -132.424)"/>
  <rect id="Rectangle_62" data-name="Rectangle 62" class="cls-7" width="83.955" height="104.252" transform="translate(345.045 99.177)"/>
  <rect id="Rectangle_63" data-name="Rectangle 63" class="cls-2" width="59.968" height="2.768" transform="translate(357.039 121.319)"/>
  <rect id="Rectangle_64" data-name="Rectangle 64" class="cls-2" width="59.968" height="2.768" transform="translate(357.039 131.006)"/>
  <rect id="Rectangle_65" data-name="Rectangle 65" class="cls-2" width="59.968" height="2.768" transform="translate(357.039 140.694)"/>
  <rect id="Rectangle_66" data-name="Rectangle 66" class="cls-2" width="59.968" height="2.768" transform="translate(357.039 150.381)"/>
  <rect id="Rectangle_67" data-name="Rectangle 67" class="cls-2" width="59.968" height="2.768" transform="translate(357.039 160.068)"/>
  <rect id="Rectangle_68" data-name="Rectangle 68" class="cls-2" width="31.368" height="11.071" transform="translate(371.339 170.216)"/>
  <rect id="Rectangle_69" data-name="Rectangle 69" class="cls-7" width="83.955" height="104.252" transform="translate(177.597 206.197)"/>
  <rect id="Rectangle_70" data-name="Rectangle 70" class="cls-2" width="59.968" height="2.768" transform="translate(189.727 264.23)"/>
  <rect id="Rectangle_71" data-name="Rectangle 71" class="cls-2" width="59.968" height="2.768" transform="translate(189.727 273.917)"/>
  <rect id="Rectangle_72" data-name="Rectangle 72" class="cls-2" width="59.968" height="2.768" transform="translate(189.727 283.604)"/>
  <rect id="Rectangle_73" data-name="Rectangle 73" class="cls-2" width="59.968" height="2.768" transform="translate(189.727 293.291)"/>
  <path id="Path_198" data-name="Path 198" class="cls-9" d="M562.731,556.911H543.678a66.641,66.641,0,0,1,0-22.717h19.053A40.877,40.877,0,0,0,562.731,556.911Z" transform="translate(-354.634 -313.608)"/>
  <rect id="Rectangle_74" data-name="Rectangle 74" class="cls-9" width="35.058" height="2.306" transform="translate(216.021 222.714)"/>
  <rect id="Rectangle_75" data-name="Rectangle 75" class="cls-9" width="35.058" height="2.306" transform="translate(216.021 231.017)"/>
  <rect id="Rectangle_76" data-name="Rectangle 76" class="cls-9" width="35.058" height="2.306" transform="translate(216.021 239.32)"/>
  <rect id="Rectangle_77" data-name="Rectangle 77" class="cls-9" width="35.058" height="2.306" transform="translate(216.021 247.623)"/>
</svg>
