<svg id="Group_35" data-name="Group 35" xmlns="http://www.w3.org/2000/svg" xmlns:xlink="http://www.w3.org/1999/xlink" width="588" height="415.867" viewBox="0 0 588 415.867">
  <defs>
    <style>
      .cls-1, .cls-10, .cls-3 {
        fill: #6c63ff;
      }

      .cls-1, .cls-18, .cls-6 {
        opacity: 0.1;
      }

      .cls-2 {
        fill: none;
        stroke: #535461;
        stroke-miterlimit: 10;
        stroke-width: 2px;
      }

      .cls-4 {
        opacity: 0.25;
      }

      .cls-5 {
        fill: #c8cad7;
      }

      .cls-7 {
        fill: #474157;
      }

      .cls-8 {
        fill: #ededf4;
      }

      .cls-9 {
        fill: #fff;
      }

      .cls-10 {
        opacity: 0.2;
      }

      .cls-11 {
        fill: #d4dfec;
      }

      .cls-12 {
        fill: url(#linear-gradient);
      }

      .cls-13 {
        fill: #a1616a;
      }

      .cls-14 {
        fill: #fa595f;
      }

      .cls-15 {
        fill: #605d82;
      }

      .cls-16 {
        fill: #5a5773;
      }

      .cls-17 {
        fill: #4a4347;
      }
    </style>
    <linearGradient id="linear-gradient" x1="0.5" y1="1" x2="0.5" gradientUnits="objectBoundingBox">
      <stop offset="0" stop-color="gray" stop-opacity="0.251"/>
      <stop offset="0.54" stop-color="gray" stop-opacity="0.122"/>
      <stop offset="1" stop-color="gray" stop-opacity="0.102"/>
    </linearGradient>
  </defs>
  <path id="Path_6" data-name="Path 6" class="cls-1" d="M654.563,153.248a120.394,120.394,0,0,0-23.327-31.419l-323.587-2.7L574.069,87.5a175.563,175.563,0,0,0-54.054-9.065C494.367,60.927,461.4,50.4,425.446,50.4c-32.262,0-62.094,8.477-86.415,22.859a173.386,173.386,0,0,0-69.264-14.112c-71.9,0-131.806,42.1-145.246,97.925Z" transform="translate(-77.938 -50.4)"/>
  <path id="Path_7" data-name="Path 7" class="cls-1" d="M623,297.268a102.51,102.51,0,0,0-10.085-44.188L52.1,302.862A109.113,109.113,0,0,0,38.96,330.914L212.628,352.8,35,368.76c5.344,63.2,69.431,113.1,147.718,113.1,39.406,0,75.212-12.65,101.745-33.271,26.616,21.012,62.749,33.922,102.6,33.922,59.1,0,110.107-28.448,133.861-69.582,47.654-12.785,84.672-44.9,97.343-85.057L398.639,299.09H623Z" transform="translate(-35 -147.615)"/>
  <path id="Path_8" data-name="Path 8" class="cls-2" d="M282.49,489.837s-24.051-34.7-19.966-67.454a63.972,63.972,0,0,0-7.7-39.724,107.566,107.566,0,0,0-11.312-16.1" transform="translate(-135.011 -202.045)"/>
  <path id="Path_9" data-name="Path 9" class="cls-3" d="M232.066,321.184c1.561,4.709-2.451,21.2-2.451,21.2S216.56,331.545,215,326.83a8.989,8.989,0,0,1,17.068-5.646Z" transform="translate(-121.116 -177.322)"/>
  <path id="Path_10" data-name="Path 10" class="cls-3" d="M275.706,357.686c-1.249,4.8-13.576,16.464-13.576,16.464s-5.068-16.193-3.814-21a8.986,8.986,0,1,1,17.391,4.533Z" transform="translate(-142.017 -192.39)"/>
  <path id="Path_11" data-name="Path 11" class="cls-3" d="M300.644,440.037c-3.507,3.518-20.034,7.358-20.034,7.358s3.8-16.537,7.285-20.049a8.987,8.987,0,0,1,12.728,12.691Z" transform="translate(-152.806 -229.933)"/>
  <path id="Path_12" data-name="Path 12" class="cls-3" d="M307.944,510.94c-2.862,4.054-18.5,10.636-18.5,10.636s.952-16.943,3.814-21a8.988,8.988,0,0,1,14.69,10.36Z" transform="translate(-157.041 -264.5)"/>
  <path id="Path_13" data-name="Path 13" class="cls-3" d="M227.57,397.233c4.465,2.165,21.335.354,21.335.354s-9.033-14.362-13.529-16.532a8.987,8.987,0,0,0-7.805,16.178Z" transform="translate(-125.06 -208.631)"/>
  <path id="Path_14" data-name="Path 14" class="cls-3" d="M232.847,477.9c4.912.728,20.471-6.047,20.471-6.047S240.4,460.847,235.5,460.119a8.988,8.988,0,0,0-2.643,17.78Z" transform="translate(-126.221 -246.872)"/>
  <path id="Path_15" data-name="Path 15" class="cls-3" d="M252.769,556.412c4.72,1.561,21.2-2.5,21.2-2.5s-10.875-13.009-15.611-14.57a8.988,8.988,0,0,0-5.609,17.078Z" transform="translate(-136.475 -284.704)"/>
  <path id="Path_16" data-name="Path 16" class="cls-4" d="M232.066,321.184c1.561,4.709-2.451,21.2-2.451,21.2S216.56,331.545,215,326.83a8.989,8.989,0,0,1,17.068-5.646Z" transform="translate(-121.116 -177.322)"/>
  <path id="Path_17" data-name="Path 17" class="cls-4" d="M275.706,357.686c-1.249,4.8-13.576,16.464-13.576,16.464s-5.068-16.193-3.814-21a8.986,8.986,0,1,1,17.391,4.533Z" transform="translate(-142.017 -192.39)"/>
  <path id="Path_18" data-name="Path 18" class="cls-4" d="M300.644,440.037c-3.507,3.518-20.034,7.358-20.034,7.358s3.8-16.537,7.285-20.049a8.987,8.987,0,0,1,12.728,12.691Z" transform="translate(-152.806 -229.933)"/>
  <path id="Path_19" data-name="Path 19" class="cls-4" d="M307.944,510.94c-2.862,4.054-18.5,10.636-18.5,10.636s.952-16.943,3.814-21a8.988,8.988,0,0,1,14.69,10.36Z" transform="translate(-157.041 -264.5)"/>
  <path id="Path_20" data-name="Path 20" class="cls-4" d="M227.57,397.233c4.465,2.165,21.335.354,21.335.354s-9.033-14.362-13.529-16.532a8.987,8.987,0,0,0-7.805,16.178Z" transform="translate(-125.06 -208.631)"/>
  <path id="Path_21" data-name="Path 21" class="cls-4" d="M232.847,477.9c4.912.728,20.471-6.047,20.471-6.047S240.4,460.847,235.5,460.119a8.988,8.988,0,0,0-2.643,17.78Z" transform="translate(-126.221 -246.872)"/>
  <path id="Path_22" data-name="Path 22" class="cls-4" d="M252.769,556.412c4.72,1.561,21.2-2.5,21.2-2.5s-10.875-13.009-15.611-14.57a8.988,8.988,0,0,0-5.609,17.078Z" transform="translate(-136.475 -284.704)"/>
  <path id="Path_23" data-name="Path 23" class="cls-2" d="M239.263,511.451s-36.05-21.98-45.593-53.6a64,64,0,0,0-23.135-33.193A107.552,107.552,0,0,0,153.67,414.53" transform="translate(-91.92 -225.053)"/>
  <path id="Path_24" data-name="Path 24" class="cls-3" d="M127.472,373.653c3.335,3.674,6.348,20.372,6.348,20.372S117.5,389.4,114.161,385.73a8.987,8.987,0,0,1,13.311-12.077Z" transform="translate(-71.851 -204.033)"/>
  <path id="Path_25" data-name="Path 25" class="cls-3" d="M182.079,389.363c.8,4.9-5.724,20.559-5.724,20.559s-11.208-12.754-12.015-17.656a8.987,8.987,0,0,1,17.739-2.9Z" transform="translate(-96.98 -209.367)"/>
  <path id="Path_26" data-name="Path 26" class="cls-3" d="M242.328,452.741c-1.785,4.636-15.335,14.846-15.335,14.846s-3.226-16.651-1.447-21.293a8.989,8.989,0,1,1,16.781,6.447Z" transform="translate(-126.138 -237.522)"/>
  <path id="Path_27" data-name="Path 27" class="cls-3" d="M275.651,515.522c-.973,4.871-12.608,17.224-12.608,17.224S257.048,516.87,258.021,512a8.989,8.989,0,0,1,17.63,3.518Z" transform="translate(-141.92 -268.338)"/>
  <path id="Path_28" data-name="Path 28" class="cls-3" d="M153.879,444.973c4.964.172,19.654-8.326,19.654-8.326s-14.076-9.47-19.04-9.653a8.987,8.987,0,1,0-.614,17.963Z" transform="translate(-87.857 -231.03)"/>
  <path id="Path_29" data-name="Path 29" class="cls-3" d="M191.692,516.686c4.787-1.322,16.266-13.821,16.266-13.821s-16.271-4.845-21.038-3.5a8.986,8.986,0,1,0,4.787,17.323Z" transform="translate(-104.705 -265.631)"/>
  <path id="Path_30" data-name="Path 30" class="cls-3" d="M241.73,580.313c4.943-.52,18.368-10.875,18.368-10.875s-15.22-7.5-20.159-7.009a8.987,8.987,0,0,0,1.79,17.885Z" transform="translate(-129.417 -295.981)"/>
  <ellipse id="Ellipse_6" data-name="Ellipse 6" class="cls-1" cx="93.143" cy="5.526" rx="93.143" ry="5.526" transform="translate(201.226 376.455)"/>
  <ellipse id="Ellipse_7" data-name="Ellipse 7" class="cls-1" cx="24.384" cy="4.439" rx="24.384" ry="4.439" transform="translate(364.253 402.088)"/>
  <path id="Path_31" data-name="Path 31" class="cls-5" d="M592.049,711.164V714.5H493.38v-2.716a32.434,32.434,0,0,0,2.232-59.9H591.4a32.454,32.454,0,0,0,.65,59.284Z" transform="translate(-254.86 -338.897)"/>
  <path id="Path_32" data-name="Path 32" class="cls-6" d="M593.457,651.89A32.486,32.486,0,0,0,575.525,673.4H515.6A32.485,32.485,0,0,0,497.67,651.89Z" transform="translate(-256.918 -338.902)"/>
  <path id="Path_33" data-name="Path 33" class="cls-5" d="M276.21,619.22v18.733c0,10.345,7.571,18.733,16.912,18.733H583.479c9.34,0,16.912-8.388,16.912-18.733V619.22Z" transform="translate(-150.695 -323.232)"/>
  <path id="Path_34" data-name="Path 34" class="cls-6" d="M592.049,762.649v3.336H493.38v-2.716a32.363,32.363,0,0,0,7.608-4.048h85.026a32.509,32.509,0,0,0,6.036,3.429Z" transform="translate(-254.86 -390.383)"/>
  <rect id="Rectangle_8" data-name="Rectangle 8" class="cls-5" width="163.912" height="9.887" rx="4.943" transform="translate(205.909 369.878)"/>
  <path id="Path_35" data-name="Path 35" class="cls-7" d="M600.391,209.132a16.912,16.912,0,0,0-16.912-16.912H293.122a16.912,16.912,0,0,0-16.911,16.912V418.054H600.391Z" transform="translate(-150.695 -118.423)"/>
  <rect id="Rectangle_9" data-name="Rectangle 9" class="cls-8" width="306.488" height="196.173" rx="16" transform="translate(134.361 89.928)"/>
  <circle id="Ellipse_8" data-name="Ellipse 8" class="cls-9" cx="3.903" cy="3.903" r="3.903" transform="translate(283.702 77.959)"/>
  <circle id="Ellipse_9" data-name="Ellipse 9" class="cls-9" cx="9.627" cy="9.627" r="9.627" transform="translate(277.978 305.875)"/>
  <path id="Path_36" data-name="Path 36" class="cls-5" d="M599.7,231.546H293.21a8.326,8.326,0,0,1,8.326-8.326H591.373A8.326,8.326,0,0,1,599.7,231.546Z" transform="translate(-158.849 -133.292)"/>
  <circle id="Ellipse_10" data-name="Ellipse 10" class="cls-8" cx="2.081" cy="2.081" r="2.081" transform="translate(140.605 92.009)"/>
  <circle id="Ellipse_11" data-name="Ellipse 11" class="cls-8" cx="2.081" cy="2.081" r="2.081" transform="translate(146.849 92.009)"/>
  <circle id="Ellipse_12" data-name="Ellipse 12" class="cls-8" cx="2.081" cy="2.081" r="2.081" transform="translate(153.093 92.009)"/>
  <rect id="Rectangle_10" data-name="Rectangle 10" class="cls-3" width="78.573" height="4.683" transform="translate(145.808 105.278)"/>
  <rect id="Rectangle_11" data-name="Rectangle 11" class="cls-3" width="78.573" height="4.683" transform="translate(145.808 242.131)"/>
  <rect id="Rectangle_12" data-name="Rectangle 12" class="cls-10" width="145.699" height="4.683" transform="translate(145.808 252.538)"/>
  <rect id="Rectangle_13" data-name="Rectangle 13" class="cls-10" width="145.699" height="4.683" transform="translate(145.808 259.308)"/>
  <rect id="Rectangle_14" data-name="Rectangle 14" class="cls-10" width="145.699" height="4.683" transform="translate(145.808 266.073)"/>
  <rect id="Rectangle_15" data-name="Rectangle 15" class="cls-10" width="144.658" height="78.573" transform="translate(145.808 117.767)"/>
  <rect id="Rectangle_16" data-name="Rectangle 16" class="cls-10" width="33.823" height="31.221" transform="translate(147.369 203.625)"/>
  <rect id="Rectangle_17" data-name="Rectangle 17" class="cls-10" width="33.823" height="31.221" transform="translate(256.644 203.625)"/>
  <rect id="Rectangle_18" data-name="Rectangle 18" class="cls-10" width="33.823" height="31.221" transform="translate(201.226 203.625)"/>
  <rect id="Rectangle_19" data-name="Rectangle 19" class="cls-10" width="99.559" height="73.281" transform="translate(321.345 140.62)"/>
  <rect id="Rectangle_20" data-name="Rectangle 20" class="cls-8" width="78.573" height="4.683" transform="translate(331.835 155.492)"/>
  <rect id="Rectangle_21" data-name="Rectangle 21" class="cls-8" width="78.573" height="4.683" transform="translate(331.835 165.207)"/>
  <rect id="Rectangle_22" data-name="Rectangle 22" class="cls-8" width="78.573" height="4.683" transform="translate(331.835 174.922)"/>
  <rect id="Rectangle_23" data-name="Rectangle 23" class="cls-8" width="78.573" height="4.683" transform="translate(331.835 184.632)"/>
  <rect id="Rectangle_24" data-name="Rectangle 24" class="cls-8" width="78.573" height="4.683" transform="translate(331.835 194.347)"/>
  <rect id="Rectangle_25" data-name="Rectangle 25" class="cls-3" width="75.28" height="13.181" transform="translate(333.484 222.228)"/>
  <rect id="Rectangle_26" data-name="Rectangle 26" class="cls-3" width="50.48" height="8.841" transform="translate(329.462 266.145)"/>
  <ellipse id="Ellipse_13" data-name="Ellipse 13" class="cls-1" cx="14.882" cy="1.509" rx="14.882" ry="1.509" transform="translate(119.593 401.958)"/>
  <ellipse id="Ellipse_14" data-name="Ellipse 14" class="cls-1" cx="8.919" cy="0.905" rx="8.919" ry="0.905" transform="translate(430.192 380.982)"/>
  <path id="Path_37" data-name="Path 37" class="cls-3" d="M292.128,778s-19.409,10.027-9.366,21.855a3.7,3.7,0,0,0,3.674,2.383s-.546-.994,1.561-1.785a10.183,10.183,0,0,0,2.081-1.114,4.939,4.939,0,0,0,1.878-2.508h0s3.97-5.313.9-15.142c0,0,.4-2.779.047-3.226l-2.383,3.179s2.44,1.634,2.716,4.038c0,0-2.539-4.033-3.091-3.575-.109.094-1.171,1.769-1.171,1.769s4.225,2.867,4.543,6.588c0,0-2.383-5.2-4.954-5.958l-1.452,2.628s4.621,2.81,5.141,7.035c0,0-2.68-5.36-5.417-6.442l-1.082,2.773s4.449,2.831,4.86,6.348c0,0-3.721-5.88-5.063-5.724a14.355,14.355,0,0,0-.729,3.408s3.148,2.081,3.205,4.163c0,0-2.9-3.668-3.351-3.424,0,0-.187,3.684.708,5.6a11.144,11.144,0,0,1-1.285-5.6,6.161,6.161,0,0,0-1.863,3.023s-.838-2.029,1.92-3.892a14.2,14.2,0,0,1,.578-3.221,13.408,13.408,0,0,0-4.246,3.242s.463-2.664,4.506-3.986l1.041-2.81s-4.038,1.712-5.282,3.221c0,0,.895-2.643,5.6-3.908l1.395-2.6a22.383,22.383,0,0,0-5.339,2.6s1.358-2.269,5.771-3.315l1.134-1.618s-2.6.931-3.33,1.264-.874.167-.874.167a9.407,9.407,0,0,1,4.683-2.118S292.31,778.151,292.128,778Z" transform="translate(-152.454 -399.39)"/>
  <ellipse id="Ellipse_15" data-name="Ellipse 15" class="cls-1" cx="11.406" cy="1.155" rx="11.406" ry="1.155" transform="translate(76.69 379.322)"/>
  <path id="Path_38" data-name="Path 38" class="cls-3" d="M203.341,745s-14.872,7.68-7.191,16.735a2.857,2.857,0,0,0,2.815,1.827s-.416-.76,1.181-1.369a8.08,8.08,0,0,0,1.6-.853,3.8,3.8,0,0,0,1.441-1.925h0s3.039-4.069.682-11.6c0,0,.307-2.133.036-2.477L202.1,747.82a5.052,5.052,0,0,1,2.081,3.091s-1.946-3.086-2.368-2.737c-.083.073-.9,1.358-.9,1.358s3.237,2.2,3.481,5.047c0,0-1.826-4-3.8-4.563l-1.108,2.009s3.533,2.154,3.934,5.391c0,0-2.055-4.106-4.163-4.933l-.827,2.123s3.414,2.17,3.726,4.865c0,0-2.852-4.506-3.882-4.366a11.1,11.1,0,0,0-.557,2.6s2.414,1.613,2.456,3.2c0,0-2.227-2.81-2.571-2.6a11.8,11.8,0,0,0,.546,4.293,8.58,8.58,0,0,1-.989-4.293,4.746,4.746,0,0,0-1.426,2.295s-.64-1.561,1.473-2.982a10.79,10.79,0,0,1,.442-2.466,10.3,10.3,0,0,0-3.252,2.482s.354-2.04,3.45-3.054l.786-2.154s-3.1,1.311-4.054,2.472c0,0,.687-2.029,4.293-3l1.072-1.983a17.515,17.515,0,0,0-4.1,1.983s1.041-1.743,4.423-2.539l.869-1.244s-1.993.713-2.55.973-.671.125-.671.125a7.223,7.223,0,0,1,3.58-1.624A21.82,21.82,0,0,0,203.341,745Z" transform="translate(-111.238 -383.562)"/>
  <path id="Path_39" data-name="Path 39" class="cls-3" d="M879.968,755.41s-11.63,6.031-5.625,13.087a2.233,2.233,0,0,0,2.2,1.426s-.328-.593.926-1.072a6.016,6.016,0,0,0,1.254-.666,2.977,2.977,0,0,0,1.124-1.5h0s2.378-3.185.52-9.07a5.875,5.875,0,0,0,.026-1.936l-1.41,1.936a3.96,3.96,0,0,1,1.629,2.425s-1.525-2.42-1.852-2.144c-.068.057-.7,1.041-.7,1.041s2.534,1.717,2.721,3.944c0,0-1.426-3.122-2.966-3.564l-.833,1.608s2.763,1.681,3.075,4.215c0,0-1.6-3.211-3.247-3.861l-.645,1.665s2.664,1.691,2.914,3.8c0,0-2.232-3.528-3.034-3.414a8.514,8.514,0,0,0-.437,2.04s1.884,1.259,1.92,2.5c0,0-1.743-2.2-2.009-2.05a9.2,9.2,0,0,0,.422,3.356,6.763,6.763,0,0,1-.77-3.356,3.7,3.7,0,0,0-1.114,1.8s-.52-1.218,1.15-2.331a8.671,8.671,0,0,1,.343-1.93,8,8,0,0,0-2.539,1.941s.276-1.6,2.7-2.388l.614-1.681a11.948,11.948,0,0,0-3.169,1.925s.52-1.561,3.362-2.342l.833-1.561a13.9,13.9,0,0,0-3.2,1.561s.817-1.358,3.46-1.982l.676-.973s-1.561.562-1.993.76-.52.1-.52.1a5.63,5.63,0,0,1,2.8-1.27A14.025,14.025,0,0,0,879.968,755.41Z" transform="translate(-436.761 -388.555)"/>
  <ellipse id="Ellipse_16" data-name="Ellipse 16" class="cls-1" cx="21.725" cy="1.816" rx="21.725" ry="1.816" transform="translate(465.347 412.235)"/>
  <path id="Path_40" data-name="Path 40" class="cls-3" d="M974.564,732.431a9.073,9.073,0,0,0-1.186,2.237c-.073.193-.141.416-.213.63a2.319,2.319,0,0,0-.416-.146A5.725,5.725,0,0,0,970.9,735c0-.245.026-.494.036-.765.073-2.742-.25-6.567-2.867-4.943-2.508,1.561-.718,4.163.9,5.828.14.146.281.281.416.411-1.473,1.041-1.759,3.5-2,6.057s-2.414,5.349-3.851,6.936l-.411.442a5.266,5.266,0,0,0-4.163-1.077c-.062-.224-.125-.458-.2-.7-1.16-4.21-3.58-11.5-6.671-13.1.135-.161.271-.333.411-.52,1.311-1.717,2.784-4.262.6-4.912s-2.373,2.206-2.253,4.35a4.464,4.464,0,0,0,.062.765,3.2,3.2,0,0,0-2.284,1.114l-.333-.4c-1.769-2.081-5.016-5.4-5.995-2.893-.916,2.331,1.936,5.36,3.944,7.113l.13.109c-1.353,5.469,4.532,9.928,7.7,11.88l.411.25c-4.371,5.152-7.066,14.809-7.066,14.809l12.239,2.185s8.112-7,7.077-13.581h.083c8.107-1.624,9.954-10.272,8.69-15.408l.141-.057a9.185,9.185,0,0,0,3.757-2.841C981.652,732.884,976.922,729.309,974.564,732.431Z" transform="translate(-470.097 -375.676)"/>
  <path id="Path_41" data-name="Path 41" class="cls-6" d="M974.564,732.431a9.073,9.073,0,0,0-1.186,2.237c-.073.193-.141.416-.213.63a2.319,2.319,0,0,0-.416-.146A5.725,5.725,0,0,0,970.9,735c0-.245.026-.494.036-.765.073-2.742-.25-6.567-2.867-4.943-2.508,1.561-.718,4.163.9,5.828.14.146.281.281.416.411-1.473,1.041-1.759,3.5-2,6.057s-2.414,5.349-3.851,6.936l-.411.442a5.266,5.266,0,0,0-4.163-1.077c-.062-.224-.125-.458-.2-.7-1.16-4.21-3.58-11.5-6.671-13.1.135-.161.271-.333.411-.52,1.311-1.717,2.784-4.262.6-4.912s-2.373,2.206-2.253,4.35a4.464,4.464,0,0,0,.062.765,3.2,3.2,0,0,0-2.284,1.114l-.333-.4c-1.769-2.081-5.016-5.4-5.995-2.893-.916,2.331,1.936,5.36,3.944,7.113l.13.109c-1.353,5.469,4.532,9.928,7.7,11.88l.411.25c-4.371,5.152-7.066,14.809-7.066,14.809l12.239,2.185s8.112-7,7.077-13.581h.083c8.107-1.624,9.954-10.272,8.69-15.408l.141-.057a9.185,9.185,0,0,0,3.757-2.841C981.652,732.884,976.922,729.309,974.564,732.431Z" transform="translate(-470.097 -375.676)"/>
  <path id="Path_42" data-name="Path 42" class="cls-3" d="M950.873,737.879l-1.431,4.163s-.8-.562-1.8-1.447c-2-1.754-4.86-4.782-3.944-7.113.978-2.5,4.225.8,5.995,2.893C950.4,737.234,950.873,737.879,950.873,737.879Z" transform="translate(-470.769 -377.607)"/>
  <path id="Path_43" data-name="Path 43" class="cls-3" d="M961.916,733.548a21.126,21.126,0,0,1-1.395,1.644,20.306,20.306,0,0,1-.255-2.206c-.12-2.144.1-4.99,2.253-4.35S963.237,731.83,961.916,733.548Z" transform="translate(-478.788 -375.669)"/>
  <path id="Path_44" data-name="Path 44" class="cls-3" d="M995.138,734.516c-.047,1.379-.182,2.482-.182,2.482a18.167,18.167,0,0,1-1.785-1.6c-1.618-1.681-3.408-4.272-.9-5.828C994.889,727.949,995.211,731.773,995.138,734.516Z" transform="translate(-493.554 -375.976)"/>
  <path id="Path_45" data-name="Path 45" class="cls-3" d="M1009,738.474a9.205,9.205,0,0,1-3.752,2.841,11.691,11.691,0,0,1-1.259.458l-1.686-2.368a16.785,16.785,0,0,1,.692-2.3,9.084,9.084,0,0,1,1.187-2.238C1006.51,731.762,1011.266,735.337,1009,738.474Z" transform="translate(-498.961 -378.129)"/>
  <path id="Path_46" data-name="Path 46" class="cls-6" d="M953.49,739.92c.708.833,1.181,1.478,1.181,1.478l-1.431,4.163s-.8-.562-1.8-1.447a8.227,8.227,0,0,1,1.613-3.679Q953.259,740.167,953.49,739.92Z" transform="translate(-474.567 -381.125)"/>
  <path id="Path_47" data-name="Path 47" class="cls-6" d="M961.94,737.642a21.089,21.089,0,0,1-1.395,1.644,20.287,20.287,0,0,1-.255-2.206,2.889,2.889,0,0,1,1.65.562Z" transform="translate(-478.812 -379.763)"/>
  <path id="Path_48" data-name="Path 48" class="cls-3" d="M964.673,754.964l-3.559,1.561s-.781-.375-1.9-1.072c-3.736-2.3-11.26-8.091-6.244-14.919s9.247,5.417,10.927,11.406C964.392,753.736,964.673,754.964,964.673,754.964Z" transform="translate(-474.499 -380.455)"/>
  <path id="Path_49" data-name="Path 49" class="cls-6" d="M995.15,740.315a2.915,2.915,0,0,1,1.967-.885c-.047,1.379-.182,2.482-.182,2.482A18.168,18.168,0,0,1,995.15,740.315Z" transform="translate(-495.532 -380.89)"/>
  <path id="Path_50" data-name="Path 50" class="cls-6" d="M1005.285,744.48a11.662,11.662,0,0,1-1.259.458l-1.686-2.368a16.787,16.787,0,0,1,.692-2.3C1004.1,740.9,1004.9,742.487,1005.285,744.48Z" transform="translate(-498.981 -381.293)"/>
  <path id="Path_51" data-name="Path 51" class="cls-3" d="M984.4,760.218c-.2.042-.4.078-.6.1-11.926,1.816-3.934-4.621-3.934-4.621s.52-.494,1.27-1.306c1.436-1.561,3.6-4.366,3.851-6.936.375-3.866.807-7.493,5.37-6.432S995.682,757.954,984.4,760.218Z" transform="translate(-486.943 -381.567)"/>
  <rect id="Rectangle_27" data-name="Rectangle 27" class="cls-11" width="22.797" height="5.994" transform="translate(474.428 408.358)"/>
  <rect id="Rectangle_28" data-name="Rectangle 28" class="cls-11" width="29.785" height="20.918" transform="translate(470.801 388.876)"/>
  <rect id="Rectangle_29" data-name="Rectangle 29" class="cls-6" width="22.797" height="5.994" transform="translate(474.428 408.358)"/>
  <rect id="Rectangle_30" data-name="Rectangle 30" class="cls-6" width="29.785" height="20.918" transform="translate(470.801 388.876)"/>
  <rect id="Rectangle_31" data-name="Rectangle 31" class="cls-11" width="22.797" height="5.994" transform="translate(475.926 408.358)"/>
  <path id="Path_52" data-name="Path 52" class="cls-6" d="M971.173,764.32c.52,1.79.775,3.018.775,3.018l-3.559,1.561s-.781-.375-1.9-1.072A9.159,9.159,0,0,1,971.173,764.32Z" transform="translate(-481.785 -392.829)"/>
  <path id="Path_53" data-name="Path 53" class="cls-6" d="M984.4,772.713c-.2.042-.4.078-.6.1-11.926,1.816-3.934-4.621-3.934-4.621s.52-.494,1.27-1.306A7.935,7.935,0,0,1,984.4,772.713Z" transform="translate(-486.943 -394.062)"/>
  <path id="Path_54" data-name="Path 54" class="cls-3" d="M953.7,783.439s6.681-23.936,16.048-16.552-3.809,18.733-3.809,18.733Z" transform="translate(-475.651 -393.382)"/>
  <circle id="Ellipse_17" data-name="Ellipse 17" class="cls-6" cx="0.749" cy="0.749" r="0.749" transform="translate(480.672 363.087)"/>
  <circle id="Ellipse_18" data-name="Ellipse 18" class="cls-6" cx="0.749" cy="0.749" r="0.749" transform="translate(480.609 366.584)"/>
  <circle id="Ellipse_19" data-name="Ellipse 19" class="cls-6" cx="0.749" cy="0.749" r="0.749" transform="translate(502.339 363.774)"/>
  <circle id="Ellipse_20" data-name="Ellipse 20" class="cls-6" cx="0.749" cy="0.749" r="0.749" transform="translate(484.855 381.695)"/>
  <circle id="Ellipse_21" data-name="Ellipse 21" class="cls-6" cx="0.749" cy="0.749" r="0.749" transform="translate(500.778 369.581)"/>
  <circle id="Ellipse_22" data-name="Ellipse 22" class="cls-6" cx="0.749" cy="0.749" r="0.749" transform="translate(493.035 377.324)"/>
  <circle id="Ellipse_23" data-name="Ellipse 23" class="cls-6" cx="0.749" cy="0.749" r="0.749" transform="translate(483.232 364.586)"/>
  <circle id="Ellipse_24" data-name="Ellipse 24" class="cls-6" cx="0.749" cy="0.749" r="0.749" transform="translate(500.279 366.022)"/>
  <circle id="Ellipse_25" data-name="Ellipse 25" class="cls-6" cx="0.749" cy="0.749" r="0.749" transform="translate(497.719 371.829)"/>
  <circle id="Ellipse_26" data-name="Ellipse 26" class="cls-6" cx="0.749" cy="0.749" r="0.749" transform="translate(489.851 381.133)"/>
  <circle id="Ellipse_27" data-name="Ellipse 27" class="cls-6" cx="0.749" cy="0.749" r="0.749" transform="translate(488.227 377.449)"/>
  <circle id="Ellipse_28" data-name="Ellipse 28" class="cls-6" cx="0.749" cy="0.749" r="0.749" transform="translate(484.356 369.144)"/>
  <rect id="Rectangle_32" data-name="Rectangle 32" class="cls-6" width="22.797" height="2.191" transform="translate(475.926 408.358)"/>
  <rect id="Rectangle_33" data-name="Rectangle 33" class="cls-11" width="29.785" height="20.918" transform="translate(472.305 388.876)"/>
  <circle id="Ellipse_29" data-name="Ellipse 29" class="cls-6" cx="0.749" cy="0.749" r="0.749" transform="translate(490.85 384.505)"/>
  <circle id="Ellipse_30" data-name="Ellipse 30" class="cls-6" cx="0.749" cy="0.749" r="0.749" transform="translate(486.354 385.442)"/>
  <path id="Path_55" data-name="Path 55" class="cls-12" d="M784.559,526.531a3.68,3.68,0,0,1-.978-2.6c0-.245-.036-.484-.047-.713a2.6,2.6,0,0,0,.723-.656c1.233-1.748-1.712-8.092-1.712-8.092a10.036,10.036,0,0,0,0-6.161,13.459,13.459,0,0,0-1.66-3.4s-3.851-7.909-3.278-8.846-.952-8.326-2.081-9.809a21.649,21.649,0,0,0-1.519-1.842,10.712,10.712,0,0,0-1.426-5.724c-1.618-2.508-3.419-9.47-3.419-9.47s-1.993-6.53-3.419-8.846a9.889,9.889,0,0,0-2.081-2.139c.224-1.041.739-2.42-.739-10.579-.6-3.351.338-5.349,1.114-8.664s.609-7.15-1.769-9.653-6.067-2.971-9.018-4.683c-2.6-1.5-4.917-4.048-7.956-4-2.232.036-2.227.385-4.282,1.223-3.554,1.447-7.55,1.009-11.162,2.206-3.247,1.077-7.373,4.616-6.39,8.367a4.11,4.11,0,0,0,1.2,2.227,2.692,2.692,0,0,0,2.524.453.328.328,0,0,1-.036.182,9.614,9.614,0,0,0-.125,1.561,10.28,10.28,0,0,0,10.371,10.116c.031.12.057.245.088.369.078.333.151.666.224,1.009-.271.359-.552.718-.817,1.077a10.452,10.452,0,0,0-1.561,2.773c-3.008.614-8.05,1.608-8.846,2.909-1.041,1.748-5.318,10.407-4.844,14.346.026.219.047.52.068.833a49.826,49.826,0,0,0-3.013,6.156c-.38,1.473-1.233,6.988-2.852,8.274s-4.938,5.427-4.465,6.244-4.465,1.837-4.465,1.837-3.32,1.285-3.122,2.3c.057.307-.177.6-.52.879-3.778-1.244-8.591-2.081-12.322-.187-5.2,2.638,3.924,4.454,9.366,5.25.9.135,1.686.239,2.3.312.042.177.213.333.651.484.343.12.853.307,1.447.52l.219-.676c1.806.64,6.733,2.633,6.733,2.633s4.277.7,5.511-1.785a22.507,22.507,0,0,1,3.486-4.163l-.172.557-3.6,11.88s-5.7,8.846-5.412,10.756-1.806,6.806-2.279,7.285-5.2,14.435-7.7,15.356-5.8,4.137-4.683,5.151,5.724,4.319,7.805,3.216,5.724.921,5.724.921a13.824,13.824,0,0,1,7.233.905c.036.359.078.749.12,1.16.338,3.122.89,7.436,1.478,8.69.952,2.024,1.806,5.609,1.041,6.988s.666,27.678,2.081,32.184c1.114,3.528,2.638,9.205,2.378,12.91-.156,2.253-.25,4.506-.265,6.765v.375c0,.125-.088.2-.13.3v.2a18.676,18.676,0,0,0-.827,2.4s-2.451,6.161-1.624,7.769a1.441,1.441,0,0,0,.39.453c1.181.947,4.163,1.15,5.2,1.192l-.047,1.561h1.4s.036-1.561.13-3.507a9.573,9.573,0,0,0,.6-3.424,14,14,0,0,1,1.249-5.916s.031-.161.062-.421h0a10.441,10.441,0,0,0,.088-1.618,5.723,5.723,0,0,0-.52-2.753,6.2,6.2,0,0,1,.1-1.681c.38-1.379-.572-11.031-.572-11.031l1.613-17.749s.952-13.7.572-17.286a11.4,11.4,0,0,1,.068-2.883,93.056,93.056,0,0,0,1.041-11.77v-1.1c3.455,1.186,9.314.213,9.314.213s1.363-.031,3.174,0c.047.375.1.744.151,1.1a20.607,20.607,0,0,0,.942,4.376c.947,2.024,1.806,5.609,1.041,6.988s.661,27.678,2.081,32.184c1.119,3.528,2.643,9.2,2.383,12.91-.156,2.248-.25,4.5-.265,6.765v.416c-.047.1-.094.2-.135.3s0,.141,0,.2a18.946,18.946,0,0,0-.786,2.409s-2.456,6.166-1.624,7.774a1.368,1.368,0,0,0,.39.447c1.181.952,4.163,1.15,5.2,1.192l-.047,1.561h1.4s.036-1.561.13-3.507a9.574,9.574,0,0,0,.6-3.424,14.051,14.051,0,0,1,1.228-5.916,10.794,10.794,0,0,0,.151-2.029,5.692,5.692,0,0,0-.546-2.768,6.394,6.394,0,0,1,.1-1.676c.38-1.379-.567-11.037-.567-11.037l1.613-17.744s.952-13.7.567-17.286a11.621,11.621,0,0,1,.073-2.883,92.746,92.746,0,0,0,1.041-11.182v-1.119c.343-.421,1.041-.755,2.966-1.4,3.325-1.1,9.975-6.624,12.634-6.988s5.032-2.118,4.272-3.5-4.938-2.3-4.558-4.413-2.565-3.4-3.892-6.895-7.129-6.244-7.223-8.846-5.474-10.553-5.474-10.553-5.406-8.992-6.6-14.487a1.935,1.935,0,0,0-.068-.354h.068a9.957,9.957,0,0,1-.2-1.249,1.94,1.94,0,0,1,.047-.354h-.073v-.234a.853.853,0,0,1,.115-.073l.312-.182-.1.042a10.3,10.3,0,0,0,1.722-1.4,7.65,7.65,0,0,0,1.983-2.768,14.05,14.05,0,0,0,.775-3.642l.676-1.041c.656,2.742,1.613,6.676,1.915,7.556a76.658,76.658,0,0,1,3.424,11.427,38.813,38.813,0,0,0,4.163,10.761s4.844,6.343,8.549,6.619,1.618,1.285,2.186,1.473l.161.036.057.744.161,2.159s3.8,15.449,8.076,13.243S785.974,527.541,784.559,526.531Z" transform="translate(-348.877 -227.988)"/>
  <path id="Path_56" data-name="Path 56" class="cls-13" d="M865.666,632.617c-4.111,2.2-7.764-13.144-7.764-13.144l-.156-2.149-.3-4.064,5.021.64a15.331,15.331,0,0,0,0,2.638,3.715,3.715,0,0,0,.942,2.565C864.75,620.113,869.772,630.426,865.666,632.617Z" transform="translate(-429.485 -320.374)"/>
  <path id="Path_57" data-name="Path 57" class="cls-13" d="M754.21,822.355l.349-.265A1.871,1.871,0,0,1,754.21,822.355Z" transform="translate(-379.966 -420.538)"/>
  <path id="Path_58" data-name="Path 58" class="cls-13" d="M760.042,660.64v11.838A95.738,95.738,0,0,1,759,684.17a11.684,11.684,0,0,0-.068,2.857c.364,3.564-.52,17.172-.52,17.172l-1.561,17.624s.911,9.585.52,10.927a6.635,6.635,0,0,0-.1,1.67c.052,1.561.323,3.564.411,4.163v.182l-.057.042-7.634,5.823c1.218-1.108,1.53-3.689,1.525-6.083v-.781q0-3.356.26-6.713c.25-3.679-1.218-9.314-2.29-12.822-1.369-4.47-2.742-30.586-2.009-31.955s-.094-4.933-1-6.942c-.536-1.223-1.056-5.5-1.369-8.622-.2-1.894-.317-3.33-.317-3.33Z" transform="translate(-375.448 -343.099)"/>
  <path id="Path_59" data-name="Path 59" class="cls-13" d="M805.26,817.841l.375-.281a2.2,2.2,0,0,1-.375.281Z" transform="translate(-404.452 -418.365)"/>
  <path id="Path_60" data-name="Path 60" class="cls-13" d="M811.077,656.14v12.421a95.768,95.768,0,0,1-1,11.11,11.678,11.678,0,0,0-.068,2.857c.364,3.564-.52,17.172-.52,17.172l-1.561,17.624s.916,9.585.552,10.927a6.364,6.364,0,0,0-.1,1.665c.052,1.561.328,3.6.411,4.163a.453.453,0,0,0,.026.172l-.057.042h0l-7.644,5.823c1.181-1.134,1.488-3.684,1.483-6.046v-.786c0-2.237.1-4.475.255-6.713.245-3.679-1.218-9.309-2.289-12.816-1.374-4.47-2.742-30.586-2.009-31.955s-.094-4.933-1-6.941a20.851,20.851,0,0,1-.911-4.345c-.484-3.476-.827-7.613-.827-7.613Z" transform="translate(-399.919 -340.941)"/>
  <path id="Path_61" data-name="Path 61" class="cls-6" d="M788.929,457.713l-.078.12A10.022,10.022,0,0,1,781.9,462a8.62,8.62,0,0,1-1.223.083c-.031-.125-.057-.25-.089-.369-.6-2.6-1.233-4.683-1.233-4.683s.682-.983,1.676-2.238c2.7-3.414,7.675-8.81,7.285-1.6a12.372,12.372,0,0,0,.52,4.324A.592.592,0,0,1,788.929,457.713Z" transform="translate(-392.029 -241.886)"/>
  <path id="Path_62" data-name="Path 62" class="cls-13" d="M782.666,444.243a10.038,10.038,0,0,1-8.81,9.965,9.72,9.72,0,0,1-1.239.078h-.073a10.043,10.043,0,1,1,10.121-10.043Z" transform="translate(-383.981 -234.488)"/>
  <path id="Path_63" data-name="Path 63" class="cls-13" d="M800.436,480.9l-9.741,8.326s-10.62-15.153-9.366-18.259a10.449,10.449,0,0,0,.1-4.626c-.141-1.041-.343-2.191-.572-3.273-.068-.338-.14-.671-.213-1-.031-.125-.057-.25-.088-.369-.6-2.6-1.233-4.683-1.233-4.683s.682-.983,1.676-2.238c2.7-3.414,7.675-8.81,7.285-1.6a12.369,12.369,0,0,0,.52,4.324.706.706,0,0,0,.078.245c1.384,4.256,4.756,7.654,7.347,9.762a29.056,29.056,0,0,0,3.356,2.383Z" transform="translate(-392.01 -241.881)"/>
  <path id="Path_64" data-name="Path 64" class="cls-6" d="M744.79,667.395l15.252-6.765v11.838a5.251,5.251,0,0,1-.989-.463c-3.013-1.863-6.765-.416-7.03-.416a7.994,7.994,0,0,1-6.484-.64c-.14-.083-.281-.161-.416-.229C744.9,668.831,744.79,667.395,744.79,667.395Z" transform="translate(-375.448 -343.094)"/>
  <path id="Path_65" data-name="Path 65" class="cls-6" d="M811.111,656.14v12.421a5.575,5.575,0,0,0-.52,1.15c-.552,1.28-4.293,1.738-7.581,1.2a46.934,46.934,0,0,0-6.3-.4c-.484-3.476-.827-7.613-.827-7.613Z" transform="translate(-399.953 -340.941)"/>
  <path id="Path_66" data-name="Path 66" class="cls-14" d="M783.2,575.467c-2.56.364-8.95,5.844-12.145,6.941s-2.831,1.275-3.377,2.555-4.293,1.733-7.582,1.192a68.038,68.038,0,0,0-9.5-.369s-6.916,1.2-9.949-.682-6.765-.416-7.03-.416a7.994,7.994,0,0,1-6.484-.64c-3.195-1.92-7.488-1.186-7.488-1.186s-3.471-2.009-5.479-.911-6.39-2.191-7.488-3.2,2.081-4.2,4.475-5.115,6.942-14.794,7.394-15.246,2.466-5.3,2.191-7.212,5.2-10.688,5.2-10.688l3.466-11.791,1.041-3.642.042-2.17c0-.978.047-2.232.073-3.642.094-5.828.193-14.471,0-18.379-.031-.6-.062-1.093-.1-1.447-.458-3.923,3.642-12.488,4.657-14.242.749-1.3,5.6-2.279,8.487-2.888a18.559,18.559,0,0,0,2.04-.489,2.383,2.383,0,0,1,.8-.062c2.727.109,10.766,1.8,10.766,1.8-.729,22.006.734,18.171.734,18.171,2.373-1.826.911-17.989.911-17.989,1.186.546,2.4-.827,2.4-.827l4.631,1.92a45.8,45.8,0,0,1,4.085,2.763,12.311,12.311,0,0,1,2.857,2.81c1.368,2.284,3.289,8.768,3.289,8.768l-1.644,2.6c-1.436,2.305-3.643,5.849-5.906,9.439l-4.017,6.4c-1.8,2.852-3.257,5.167-3.866,6.109a2.274,2.274,0,0,0-.286.734,3.818,3.818,0,0,0-.068.52,8.184,8.184,0,0,0,.213,2.165c1.15,5.453,6.348,14.388,6.348,14.388s5.2,7.941,5.3,10.5,5.661,5.3,6.941,8.768,4.106,4.746,3.741,6.848,3.643,3.013,4.381,4.381S785.757,575.1,783.2,575.467Z" transform="translate(-357.063 -257.286)"/>
  <path id="Path_67" data-name="Path 67" class="cls-6" d="M862.461,616.538a7.917,7.917,0,0,1-4.714.786l-.3-4.064,5.021.64A15.343,15.343,0,0,0,862.461,616.538Z" transform="translate(-429.485 -320.374)"/>
  <path id="Path_68" data-name="Path 68" class="cls-14" d="M826.429,510.09l3.747,2.649s1.733,6.936,3.283,9.4a10.872,10.872,0,0,1,1.369,5.661,19.765,19.765,0,0,1,1.462,1.826c1.1,1.462,2.555,8.794,2.009,9.741s3.153,8.794,3.153,8.794a11.863,11.863,0,0,1,1.6,3.377,10.425,10.425,0,0,1,0,6.119s2.831,6.3,1.644,8.034-5.027,1.561-5.573,1.369,1.462-1.187-2.081-1.462-8.222-6.572-8.222-6.572a39.254,39.254,0,0,1-4.017-10.683,78.643,78.643,0,0,0-3.284-11.323c-.458-1.369-2.466-10.225-2.466-10.225Z" transform="translate(-411.066 -270.888)"/>
  <path id="Path_69" data-name="Path 69" class="cls-6" d="M776.751,510.09s-.276,21.184-2.831,25.383Z" transform="translate(-389.42 -270.888)"/>
  <path id="Path_70" data-name="Path 70" class="cls-6" d="M803.547,524.48s-2.373,21.184-4.246,22.276S803.547,524.48,803.547,524.48Z" transform="translate(-401.423 -277.791)"/>
  <path id="Path_71" data-name="Path 71" class="cls-6" d="M797.145,518.69s-.578,19.976-3.59,21.949S797.145,518.69,797.145,518.69Z" transform="translate(-398.46 -275.013)"/>
  <path id="Path_72" data-name="Path 72" class="cls-6" d="M747.64,591.33s-3.778,11.047-3.351,15.611S747.64,591.33,747.64,591.33Z" transform="translate(-375.191 -309.855)"/>
  <path id="Path_73" data-name="Path 73" class="cls-6" d="M782.776,563.1c-4.943,1.108-18.316,3.1-30.076-4.22,0-.978.047-2.232.073-3.642,4.465,2.456,17.005,8.846,23.39,7.056,3.185-.911,5.2-1.488,6.468-1.863a6.879,6.879,0,0,0,.146,2.669Z" transform="translate(-379.242 -292.544)"/>
  <path id="Path_74" data-name="Path 74" class="cls-6" d="M782.776,561c-4.943,1.1-18.316,3.091-30.076-4.22,0-.978.047-2.238.073-3.642,4.465,2.456,17.005,8.846,23.39,7.056,3.185-.905,5.2-1.488,6.468-1.858A6.886,6.886,0,0,0,782.776,561Z" transform="translate(-379.242 -291.537)"/>
  <path id="Path_75" data-name="Path 75" class="cls-15" d="M782.776,561.753c-4.943,1.1-18.316,3.091-30.076-4.22,0-.978.047-2.232.073-3.642,4.465,2.456,17.005,8.846,23.39,7.056,3.185-.905,5.2-1.488,6.468-1.858A6.886,6.886,0,0,0,782.776,561.753Z" transform="translate(-379.242 -291.897)"/>
  <path id="Path_76" data-name="Path 76" class="cls-6" d="M782.776,561.753c-4.943,1.1-18.316,3.091-30.076-4.22,0-.978.047-2.232.073-3.642,4.465,2.456,17.005,8.846,23.39,7.056,3.185-.905,5.2-1.488,6.468-1.858A6.886,6.886,0,0,0,782.776,561.753Z" transform="translate(-379.242 -291.897)"/>
  <path id="Path_77" data-name="Path 77" class="cls-6" d="M762.545,805.439a.858.858,0,0,1-.031.224l-7.634,5.823c1.218-1.108,1.53-3.689,1.525-6.083v-.781a15.408,15.408,0,0,1,2.82-4.506,2.342,2.342,0,0,1,2.6.588v.167a2.394,2.394,0,0,1,.271.406A7.407,7.407,0,0,1,762.545,805.439Z" transform="translate(-380.288 -409.934)"/>
  <path id="Path_78" data-name="Path 78" class="cls-6" d="M763.16,802.821l-5.76,3.955s.036-.463.088-1.145a15.768,15.768,0,0,1,2.95-4.813,2.351,2.351,0,0,1,2.6.588C763.087,802.259,763.16,802.821,763.16,802.821Z" transform="translate(-381.496 -410.272)"/>
  <path id="Path_79" data-name="Path 79" class="cls-16" d="M761.454,806.521a14.362,14.362,0,0,0-1.2,5.88,9.075,9.075,0,0,1-1.223,4.74,4.07,4.07,0,0,1-.4.577s-4-.031-5.4-1.192a1.368,1.368,0,0,1-.385-.442c-.8-1.6,1.561-7.717,1.561-7.717a16.965,16.965,0,0,1,3.757-7.238C762.656,799.954,761.454,806.521,761.454,806.521Z" transform="translate(-379.233 -410.417)"/>
  <path id="Path_80" data-name="Path 80" class="cls-6" d="M759.542,823.935a4.073,4.073,0,0,1-.4.578s-4-.031-5.4-1.192c.687-2.279,2.888-9.174,3.913-8S759.3,821.734,759.542,823.935Z" transform="translate(-379.741 -417.226)"/>
  <path id="Path_81" data-name="Path 81" class="cls-16" d="M763.576,815.77,763.3,826.1h1.343s.213-9.065.817-10.334S763.576,815.77,763.576,815.77Z" transform="translate(-384.326 -417.236)"/>
  <path id="Path_82" data-name="Path 82" class="cls-6" d="M813.628,800.955l-.031.213h0l-7.6,5.781c1.181-1.134,1.488-3.684,1.483-6.046v-.786a15.391,15.391,0,0,1,2.815-4.5,2.406,2.406,0,0,1,2.628.583v.172a2.165,2.165,0,0,1,.271.4A7.558,7.558,0,0,1,813.628,800.955Z" transform="translate(-404.807 -407.775)"/>
  <path id="Path_83" data-name="Path 83" class="cls-6" d="M814.21,798.312l-5.76,3.96s.036-.463.094-1.145a15.609,15.609,0,0,1,2.945-4.813,2.364,2.364,0,0,1,2.628.588C814.137,797.755,814.21,798.312,814.21,798.312Z" transform="translate(-405.982 -408.109)"/>
  <path id="Path_84" data-name="Path 84" class="cls-16" d="M812.52,802.019a14.279,14.279,0,0,0-1.2,5.88,9.075,9.075,0,0,1-1.223,4.74,4.511,4.511,0,0,1-.4.578s-4-.031-5.4-1.192a1.435,1.435,0,0,1-.375-.448c-.8-1.6,1.561-7.717,1.561-7.717a16.965,16.965,0,0,1,3.757-7.238C813.717,795.463,812.52,802.019,812.52,802.019Z" transform="translate(-403.73 -408.257)"/>
  <path id="Path_85" data-name="Path 85" class="cls-6" d="M810.592,819.46a4.516,4.516,0,0,1-.4.578s-4-.031-5.4-1.192c.687-2.279,2.888-9.179,3.913-8.008S810.347,817.243,810.592,819.46Z" transform="translate(-404.227 -415.077)"/>
  <path id="Path_86" data-name="Path 86" class="cls-16" d="M814.631,811.27,814.35,821.6h1.342s.213-9.059.817-10.329S814.631,811.27,814.631,811.27Z" transform="translate(-408.812 -415.077)"/>
  <path id="Path_87" data-name="Path 87" class="cls-6" d="M801.892,481.8c-.062,2.6-1.483,5.375-3.976,6.151-.729.224-1.5.276-2.248.427a4.816,4.816,0,0,0-1.041.317c-1.6.734-2.394,2.555-2.716,4.283-.115.593-.187,1.192-.26,1.8a12.9,12.9,0,0,1-.713,3.367,8.523,8.523,0,0,1-3.507,4,22.584,22.584,0,0,1-5.823,2.435A13.087,13.087,0,0,0,783.17,493.7c-.333-1.067-1.041-2.258-2.17-2.227-.879.026-1.509.807-2.165,1.4-3.226,2.9-8.274,1.608-12.358.146a26.28,26.28,0,0,0,4.917-28.822,9.514,9.514,0,0,1-.9-2.326,4.85,4.85,0,0,1,.224-2.4,10.66,10.66,0,0,1,1.478-2.753c.255-.359.52-.713.791-1.072.349-.474.7-.952,1.01-1.447a7.957,7.957,0,0,0,1.041-2.253c.463-1.769-.187-4.007-1.9-4.61l-.094-.036c-1.894-.593-2.482-.77-3.773-2.29-.864-1.009-1.353-2.6-2.831-2.9a8.508,8.508,0,0,0-3.6.578,10.048,10.048,0,1,1,18.108,7.373c1.332,4.371,4.782,7.857,7.425,10.006l4.631,1.92a45.817,45.817,0,0,1,4.085,2.763,59.752,59.752,0,0,0,2.945,9.517,33.536,33.536,0,0,1,1.561,4.683,11.521,11.521,0,0,1,.286,2.857Z" transform="translate(-384.11 -234.474)"/>
  <path id="Path_88" data-name="Path 88" class="cls-17" d="M769.956,441.36c1.78.557,2.466,2.846,1.993,4.647s-1.748,3.257-2.826,4.772-2.035,3.325-1.707,5.157a9.509,9.509,0,0,0,.895,2.326,26.329,26.329,0,0,1-4.917,28.822c4.085,1.462,9.137,2.758,12.358-.146.656-.593,1.285-1.374,2.165-1.4,1.119-.036,1.842,1.16,2.17,2.227a13.076,13.076,0,0,1-1.561,10.87c3.762-1.093,7.894-2.784,9.335-6.426a27.529,27.529,0,0,0,.968-5.167c.323-1.728,1.119-3.544,2.716-4.277a27.091,27.091,0,0,1,3.289-.744c2.492-.775,3.913-3.544,3.976-6.151s-.937-5.11-1.873-7.54c-5.2-13.529-.312-2.69-3.164-18.972-.583-3.325.328-5.313,1.072-8.6s.583-7.1-1.7-9.585-5.833-2.95-8.669-4.636c-2.513-1.5-4.725-4.022-7.649-3.976-2.144.031-2.139.38-4.116,1.212-3.419,1.436-7.254,1-10.73,2.191-3.122,1.072-7.087,4.579-6.14,8.326,1.275,5.042,4.772,1.332,7.5,1.9,1.478.312,1.967,1.884,2.831,2.9C767.479,440.585,768.062,440.767,769.956,441.36Z" transform="translate(-380.679 -228.904)"/>
  <path id="Path_89" data-name="Path 89" class="cls-13" d="M707.14,570.65s-1.478-.156-3.466-.463c-5.2-.791-14-2.6-9-5.2,4.595-2.4,10.927-.364,14.632,1.27a32.43,32.43,0,0,1,3.08,1.561Z" transform="translate(-350.698 -296.689)"/>
  <path id="Path_90" data-name="Path 90" class="cls-6" d="M762.341,504.143s-2.373,11.968-3.559,14.606-3.122,9.59-3.122,9.59-2.8,2.539-5.12,5.006l1.041-3.642.042-2.17c0-.978.047-2.232.073-3.642.094-5.828.193-14.471,0-18.379.2-.38.333-.614.333-.614l1.847-2.93s3.013-8.034,4.746-10.319S762.341,504.143,762.341,504.143Z" transform="translate(-378.206 -261.928)"/>
  <path id="Path_91" data-name="Path 91" class="cls-6" d="M718.891,570.262s-.265,1.041-.713,2.446c-.567-.229-1.041-.411-1.389-.52-1.561-.52.276-1.186-.182-2.555-.39-1.176-1.114-.807-1.946-1.134a22.75,22.75,0,0,1,1.764-2.118Z" transform="translate(-360.996 -297.888)"/>
  <path id="Path_92" data-name="Path 92" class="cls-14" d="M737.071,501.953l-1.847,2.93a55.257,55.257,0,0,0-2.9,6.088c-.39,1.441-1.171,6.957-2.732,8.237s-4.751,5.386-4.293,6.208-4.293,1.826-4.293,1.826-3.195,1.28-3.013,2.284-2.649,1.826-1.644,2.555,1.92,0,2.378,1.369-1.374,2.014.182,2.56,6.666,2.685,6.666,2.685,4.106.692,5.292-1.774,7.946-8.581,7.946-8.581a98.654,98.654,0,0,1,3.122-9.59c1.207-2.649,3.564-14.606,3.564-14.606s-1.92-14.794-3.643-12.488S737.071,501.953,737.071,501.953Z" transform="translate(-361.703 -261.929)"/>
  <path id="Path_93" data-name="Path 93" class="cls-6" d="M741.186,556.94s-9.038,1.186-4.2,3.2,6.484,0,6.484,0Z" transform="translate(-371.021 -293.36)"/>
  <path id="Path_94" data-name="Path 94" class="cls-6" d="M724.79,566.842s5.3-1.093,6.666,0S724.79,566.842,724.79,566.842Z" transform="translate(-365.855 -297.877)"/>
  <path id="Path_95" data-name="Path 95" class="cls-6" d="M723.74,572.185s.364-.916,2.191,0S723.74,572.185,723.74,572.185Z" transform="translate(-365.351 -300.477)"/>
  <path id="Path_96" data-name="Path 96" class="cls-6" d="M838.58,589.32s.552,8.326,2.794,8.6S838.58,589.32,838.58,589.32Z" transform="translate(-420.434 -308.891)"/>
  <path id="Path_97" data-name="Path 97" class="cls-6" d="M845.3,553.1s.38,2.544-2,3S845.3,553.1,845.3,553.1Z" transform="translate(-422.356 -291.518)"/>
  <path id="Path_98" data-name="Path 98" class="cls-6" d="M795.85,600.69s-.12,25.69,5.115,28.854Z" transform="translate(-399.938 -314.344)"/>
  <path id="Path_99" data-name="Path 99" class="cls-6" d="M809.18,602.8s-.094,25.685,5.11,28.854Z" transform="translate(-406.332 -315.356)"/>
  <path id="Path_100" data-name="Path 100" class="cls-6" d="M755.72,709.614a19.262,19.262,0,0,1,3.564,0C761.267,709.775,755.72,709.614,755.72,709.614Z" transform="translate(-380.69 -366.55)"/>
  <path id="Path_101" data-name="Path 101" class="cls-6" d="M755.72,713.064a19.262,19.262,0,0,1,3.564,0C761.267,713.246,755.72,713.064,755.72,713.064Z" transform="translate(-380.69 -368.204)"/>
  <path id="Path_102" data-name="Path 102" class="cls-6" d="M807.77,705.564a19.23,19.23,0,0,1,3.564,0C813.317,705.751,807.77,705.564,807.77,705.564Z" transform="translate(-405.656 -364.607)"/>
  <path id="Path_103" data-name="Path 103" class="cls-6" d="M808.94,708.324a19.24,19.24,0,0,1,3.564,0C814.482,708.506,808.94,708.324,808.94,708.324Z" transform="translate(-406.217 -365.931)"/>
  <g id="Group_34" data-name="Group 34" class="cls-18" transform="translate(375.126 197.344)">
    <path id="Path_104" data-name="Path 104" d="M765.415,489.584a26.278,26.278,0,0,0,4.917-28.822,9.509,9.509,0,0,1-.9-2.326c-.328-1.832.624-3.642,1.707-5.157s2.357-2.971,2.826-4.772-.213-4.09-1.993-4.642c-1.894-.593-2.482-.775-3.773-2.295-.864-1.01-1.353-2.6-2.831-2.893-2.727-.567-6.244,3.122-7.5-1.9-.718-2.82,1.379-5.516,3.8-7.124-3.023,1.254-6.52,4.584-5.625,8.107,1.275,5.042,4.772,1.337,7.5,1.9,1.478.307,1.967,1.884,2.831,2.893,1.3,1.519,1.878,1.7,3.773,2.295,1.78.552,2.466,2.841,1.993,4.642s-1.748,3.257-2.826,4.772-2.035,3.325-1.707,5.162a9.557,9.557,0,0,0,.895,2.321,26.325,26.325,0,0,1-4.917,28.822c3.934,1.41,8.758,2.659,11.968.161C772.513,491.8,768.662,490.745,765.415,489.584Z" transform="translate(-755.906 -429.65)"/>
    <path id="Path_105" data-name="Path 105" d="M827.351,535.883a3.586,3.586,0,0,0-1.041.718c.822-.2,1.691-.229,2.5-.484a4.683,4.683,0,0,0,1.7-.947A20.671,20.671,0,0,0,827.351,535.883Z" transform="translate(-789.675 -480.262)"/>
    <path id="Path_106" data-name="Path 106" d="M805.091,553.531a28.8,28.8,0,0,1-3.955,1.431,13.076,13.076,0,0,0,1.561-10.87c-.328-1.041-1.041-2.263-2.17-2.232a2.773,2.773,0,0,0-1.728.989c1.041.036,1.754,1.192,2.082,2.227a13.077,13.077,0,0,1-1.561,10.87A22.852,22.852,0,0,0,805.091,553.531Z" transform="translate(-776.48 -483.47)"/>
  </g>
</svg>
